<?xml version="1.0" encoding="UTF-8"?>
<!DOCTYPE svg PUBLIC "-//W3C//DTD SVG 1.1//EN" "http://www.w3.org/Graphics/SVG/1.1/DTD/svg11.dtd">
<svg xmlns="http://www.w3.org/2000/svg" version="1.1" width="500px" height="500px" style="shape-rendering:geometricPrecision; text-rendering:geometricPrecision; image-rendering:optimizeQuality; fill-rule:evenodd; clip-rule:evenodd" xmlns:xlink="http://www.w3.org/1999/xlink">
<g><path style="opacity:1" fill="#162116" d="M 236.5,15.5 C 240.425,16.5787 243.758,18.5787 246.5,21.5C 243.514,20.1921 240.514,18.8588 237.5,17.5C 236.702,17.0431 236.369,16.3764 236.5,15.5 Z"/></g>
<g><path style="opacity:1" fill="#2a3d2a" d="M 236.5,15.5 C 236.369,16.3764 236.702,17.0431 237.5,17.5C 240.514,18.8588 243.514,20.1921 246.5,21.5C 250.126,24.0948 252.792,27.4281 254.5,31.5C 250.518,30.0024 247.184,27.0024 244.5,22.5C 239.031,20.158 234.031,17.8247 229.5,15.5C 227.167,16.1667 224.833,16.8333 222.5,17.5C 220.588,17.5123 218.588,17.179 216.5,16.5C 212.054,19.3898 207.387,21.7231 202.5,23.5C 208.82,16.603 216.82,13.2697 226.5,13.5C 229.976,13.5501 233.31,14.2168 236.5,15.5 Z"/></g>
<g><path style="opacity:1" fill="#334e31" d="M 254.5,31.5 C 256.446,33.734 257.613,36.4006 258,39.5C 258.816,44.6842 258.65,49.6842 257.5,54.5C 255.425,56.7662 253.925,59.4329 253,62.5C 251.933,63.1905 250.766,63.6905 249.5,64C 249.957,64.414 250.291,64.914 250.5,65.5C 247.017,66.2993 245.017,68.4659 244.5,72C 243.101,72.5946 241.768,72.4279 240.5,71.5C 239.396,72.6313 239.729,73.4646 241.5,74C 240.058,74.3768 239.058,75.2101 238.5,76.5C 237.469,75.645 236.303,74.9783 235,74.5C 233.584,75.5733 232.25,75.5733 231,74.5C 228.689,77.1555 226.523,76.9888 224.5,74C 226.027,72.9681 227.36,71.8014 228.5,70.5C 244.65,65.8274 251.15,55.1607 248,38.5C 240.937,25.0547 230.104,20.5547 215.5,25C 201.654,33.8785 198.487,45.7119 206,60.5C 209.935,65.211 214.768,68.5443 220.5,70.5C 221.473,72.1494 222.473,73.816 223.5,75.5C 223.167,76.1667 222.833,76.8333 222.5,77.5C 218.151,74.6381 213.484,73.6381 208.5,74.5C 205.986,70.4703 202.819,66.8036 199,63.5C 198.122,60.2914 196.789,57.2914 195,54.5C 194.077,46.6908 194.577,39.0241 196.5,31.5C 197.529,28.1092 199.529,25.4426 202.5,23.5C 207.387,21.7231 212.054,19.3898 216.5,16.5C 218.588,17.179 220.588,17.5123 222.5,17.5C 224.833,16.8333 227.167,16.1667 229.5,15.5C 234.031,17.8247 239.031,20.158 244.5,22.5C 247.184,27.0024 250.518,30.0024 254.5,31.5 Z"/></g>
<g><path style="opacity:1" fill="#f6f7f6" d="M 228.5,70.5 C 225.833,70.5 223.167,70.5 220.5,70.5C 214.768,68.5443 209.935,65.211 206,60.5C 198.487,45.7119 201.654,33.8785 215.5,25C 230.104,20.5547 240.937,25.0547 248,38.5C 251.15,55.1607 244.65,65.8274 228.5,70.5 Z"/></g>
<g><path style="opacity:1" fill="#2a3e2a" d="M 106.5,56.5 C 104.323,56.4139 102.323,55.7472 100.5,54.5C 98.5494,55.2561 96.7161,55.5894 95,55.5C 94.6667,54.8333 94.3333,54.1667 94,53.5C 88.896,54.3076 83.896,54.3076 79,53.5C 75.8037,54.5116 72.637,55.6783 69.5,57C 70.6223,58.6134 70.1223,59.7801 68,60.5C 67.3828,59.5509 67.5494,58.7175 68.5,58C 67.5,57.3333 66.5,57.3333 65.5,58C 61.7729,59.8529 58.1062,61.8529 54.5,64C 54.8333,64.3333 55.1667,64.6667 55.5,65C 54,65.8333 52.8333,67 52,68.5C 51.6667,68.1667 51.3333,67.8333 51,67.5C 47.4179,68.7464 44.7512,71.0797 43,74.5C 42.6605,78.5296 40.8272,81.5296 37.5,83.5C 48.257,58.4957 67.257,47.9957 94.5,52C 98.9516,52.6006 102.952,54.1006 106.5,56.5 Z"/></g>
<g><path style="opacity:1" fill="#304c2e" d="M 106.5,56.5 C 110.5,58.1667 114.5,59.8333 118.5,61.5C 130.788,59.4284 143.121,59.0951 155.5,60.5C 165.229,62.367 173.896,66.367 181.5,72.5C 183.816,78.4162 186.816,83.2495 190.5,87C 189.833,87.6667 189.167,88.3333 188.5,89C 190.126,88.8047 191.793,88.8047 193.5,89C 193.13,90.6097 193.797,92.1097 195.5,93.5C 195.291,94.086 194.957,94.586 194.5,95C 196.803,96.1236 198.803,97.6236 200.5,99.5C 200.39,101.098 200.057,102.765 199.5,104.5C 198.399,105.598 197.066,105.765 195.5,105C 195.833,104.667 196.167,104.333 196.5,104C 194.076,101.822 192.41,99.1551 191.5,96C 185.653,87.175 177.486,79.3417 167,72.5C 165.667,72.5 164.333,72.5 163,72.5C 162.649,69.5979 160.982,68.9312 158,70.5C 156.187,70.1734 154.52,69.5067 153,68.5C 150.787,69.7391 148.787,69.4057 147,67.5C 144.285,67.1976 141.452,67.5309 138.5,68.5C 136.161,68.3308 133.994,67.6642 132,66.5C 127.735,67.9561 123.401,69.2894 119,70.5C 117.135,69.6323 115.302,69.9657 113.5,71.5C 112.066,70.0642 110.9,68.3975 110,66.5C 108.644,67.3802 107.144,67.7135 105.5,67.5C 79.2636,56.0444 59.7636,63.0444 47,88.5C 45.8267,95.4371 45.16,102.437 45,109.5C 44.6174,110.056 44.1174,110.389 43.5,110.5C 42.0222,110.762 40.6888,110.429 39.5,109.5C 39.8333,108.167 40.1667,106.833 40.5,105.5C 40.1667,104.5 39.5,103.833 38.5,103.5C 38.2889,105.044 38.2889,106.71 38.5,108.5C 38.0234,109.931 37.3567,111.264 36.5,112.5C 32.4552,115.589 28.6219,118.922 25,122.5C 24.0255,120.122 23.3589,120.456 23,123.5C 22.0754,122.953 21.2421,122.287 20.5,121.5C 20.8457,120.304 21.3457,120.304 22,121.5C 23.7608,115.656 27.2608,111.99 32.5,110.5C 33.3052,108.085 34.3052,105.751 35.5,103.5C 36.325,102.614 37.325,102.281 38.5,102.5C 38.472,100.418 39.1387,98.5843 40.5,97C 38.0722,94.3621 36.7389,91.1955 36.5,87.5C 36.2322,85.901 36.5655,84.5676 37.5,83.5C 40.8272,81.5296 42.6605,78.5296 43,74.5C 44.7512,71.0797 47.4179,68.7464 51,67.5C 51.3333,67.8333 51.6667,68.1667 52,68.5C 52.8333,67 54,65.8333 55.5,65C 55.1667,64.6667 54.8333,64.3333 54.5,64C 58.1062,61.8529 61.7729,59.8529 65.5,58C 66.5,57.3333 67.5,57.3333 68.5,58C 67.5494,58.7175 67.3828,59.5509 68,60.5C 70.1223,59.7801 70.6223,58.6134 69.5,57C 72.637,55.6783 75.8037,54.5116 79,53.5C 83.896,54.3076 88.896,54.3076 94,53.5C 94.3333,54.1667 94.6667,54.8333 95,55.5C 96.7161,55.5894 98.5494,55.2561 100.5,54.5C 102.323,55.7472 104.323,56.4139 106.5,56.5 Z"/></g>
<g><path style="opacity:1" fill="#1f2b1e" d="M 155.5,60.5 C 143.121,59.0951 130.788,59.4284 118.5,61.5C 125.15,59.0834 132.15,58.0834 139.5,58.5C 145.098,58.2762 150.431,58.9429 155.5,60.5 Z"/></g>
<g><path style="opacity:1" fill="#f8f9f8" d="M 105.5,67.5 C 108.705,69.6956 111.872,72.0289 115,74.5C 151.642,62.1459 178.142,73.3126 194.5,108C 197.475,108.044 200.475,107.877 203.5,107.5C 211.05,108.179 218.216,110.179 225,113.5C 228.738,111.444 232.238,108.944 235.5,106C 254.709,96.5409 272.042,99.2076 287.5,114C 291.081,118.33 293.748,123.163 295.5,128.5C 296.268,135.616 296.602,142.616 296.5,149.5C 290.081,173.385 274.415,184.218 249.5,182C 244.302,180.736 239.302,178.902 234.5,176.5C 229.61,180.881 224.277,184.714 218.5,188C 199.837,195.491 184.171,191.491 171.5,176C 166.191,176.436 161.191,178.103 156.5,181C 146.596,183.577 136.596,184.077 126.5,182.5C 117.023,180.095 108.69,175.595 101.5,169C 98.6318,168.36 96.9651,169.527 96.5,172.5C 89.7174,182.231 80.3841,187.897 68.5,189.5C 62.4638,189.64 56.4638,189.307 50.5,188.5C 38.3334,184.166 29.5001,176.166 24,164.5C 16.1316,141.248 22.6316,123.248 43.5,110.5C 44.1174,110.389 44.6174,110.056 45,109.5C 45.16,102.437 45.8267,95.4371 47,88.5C 59.7636,63.0444 79.2636,56.0444 105.5,67.5 Z"/></g>
<g><path style="opacity:1" fill="#283a28" d="M 257.5,54.5 C 255.017,63.8123 249.684,70.979 241.5,76C 240.552,76.4828 239.552,76.6495 238.5,76.5C 239.058,75.2101 240.058,74.3768 241.5,74C 239.729,73.4646 239.396,72.6313 240.5,71.5C 241.768,72.4279 243.101,72.5946 244.5,72C 245.017,68.4659 247.017,66.2993 250.5,65.5C 250.291,64.914 249.957,64.414 249.5,64C 250.766,63.6905 251.933,63.1905 253,62.5C 253.925,59.4329 255.425,56.7662 257.5,54.5 Z"/></g>
<g><path style="opacity:1" fill="#263926" d="M 196.5,31.5 C 194.577,39.0241 194.077,46.6908 195,54.5C 196.789,57.2914 198.122,60.2914 199,63.5C 202.819,66.8036 205.986,70.4703 208.5,74.5C 195.577,66.9628 190.41,55.6294 193,40.5C 193.505,37.135 194.672,34.135 196.5,31.5 Z"/></g>
<g><path style="opacity:1" fill="#2d422c" d="M 220.5,70.5 C 223.167,70.5 225.833,70.5 228.5,70.5C 227.36,71.8014 226.027,72.9681 224.5,74C 226.523,76.9888 228.689,77.1555 231,74.5C 232.25,75.5733 233.584,75.5733 235,74.5C 236.303,74.9783 237.469,75.645 238.5,76.5C 234.773,78.8059 230.606,79.8059 226,79.5C 222.112,79.4061 218.279,78.9061 214.5,78C 212.121,77.2838 210.121,76.1172 208.5,74.5C 213.484,73.6381 218.151,74.6381 222.5,77.5C 222.833,76.8333 223.167,76.1667 223.5,75.5C 222.473,73.816 221.473,72.1494 220.5,70.5 Z"/></g>
<g><path style="opacity:1" fill="#3a503a" d="M 199.5,104.5 C 200.833,104.5 202.167,104.5 203.5,104.5C 203.5,105.5 203.5,106.5 203.5,107.5C 200.475,107.877 197.475,108.044 194.5,108C 178.142,73.3126 151.642,62.1459 115,74.5C 111.872,72.0289 108.705,69.6956 105.5,67.5C 107.144,67.7135 108.644,67.3802 110,66.5C 110.9,68.3975 112.066,70.0642 113.5,71.5C 115.302,69.9657 117.135,69.6323 119,70.5C 123.401,69.2894 127.735,67.9561 132,66.5C 133.994,67.6642 136.161,68.3308 138.5,68.5C 141.452,67.5309 144.285,67.1976 147,67.5C 148.787,69.4057 150.787,69.7391 153,68.5C 154.52,69.5067 156.187,70.1734 158,70.5C 160.982,68.9312 162.649,69.5979 163,72.5C 164.333,72.5 165.667,72.5 167,72.5C 177.486,79.3417 185.653,87.175 191.5,96C 192.41,99.1551 194.076,101.822 196.5,104C 196.167,104.333 195.833,104.667 195.5,105C 197.066,105.765 198.399,105.598 199.5,104.5 Z"/></g>
<g><path style="opacity:1" fill="#2b3f2a" d="M 181.5,72.5 C 189.862,78.6952 196.195,86.5286 200.5,96C 205.867,96.4034 211.201,97.07 216.5,98C 217.056,98.3826 217.389,98.8826 217.5,99.5C 213.821,99.6374 210.321,98.9707 207,97.5C 204.913,98.3972 202.746,99.0639 200.5,99.5C 198.803,97.6236 196.803,96.1236 194.5,95C 194.957,94.586 195.291,94.086 195.5,93.5C 193.797,92.1097 193.13,90.6097 193.5,89C 191.793,88.8047 190.126,88.8047 188.5,89C 189.167,88.3333 189.833,87.6667 190.5,87C 186.816,83.2495 183.816,78.4162 181.5,72.5 Z"/></g>
<g><path style="opacity:1" fill="#324c31" d="M 296.5,109.5 C 297.766,112.301 298.599,115.301 299,118.5C 299.853,120.125 300.853,120.458 302,119.5C 302.066,123.251 302.899,126.751 304.5,130C 304.355,130.772 304.022,131.439 303.5,132C 307.113,137.001 307.446,142.168 304.5,147.5C 302.908,148.602 302.075,147.935 302,145.5C 301.385,147.116 300.385,148.449 299,149.5C 299.528,152.109 299.195,154.775 298,157.5C 297.5,159.333 296.333,160.5 294.5,161C 295.833,162 295.833,163 294.5,164C 296.424,165.267 298.09,165.267 299.5,164C 298.288,162.893 298.621,162.393 300.5,162.5C 299.424,166.394 298.09,170.061 296.5,173.5C 280.07,192.456 260.07,197.456 236.5,188.5C 219.563,202.392 200.896,205.226 180.5,197C 175.678,194.328 171.011,191.495 166.5,188.5C 159.431,191.414 152.098,193.08 144.5,193.5C 137.804,193.609 131.137,193.276 124.5,192.5C 123.209,192.737 122.209,192.404 121.5,191.5C 125.247,191.801 128.747,191.134 132,189.5C 132.833,189.667 133.667,189.833 134.5,190C 130.489,190.166 129.989,191 133,192.5C 137.046,192.404 141.046,192.404 145,192.5C 144.973,191.212 145.973,190.212 148,189.5C 149.878,190.557 151.545,190.557 153,189.5C 153.333,188.833 153.667,188.167 154,187.5C 155.133,189.211 156.633,189.711 158.5,189C 161.299,187.864 163.466,186.031 165,183.5C 166.649,184.898 167.982,184.564 169,182.5C 169.345,180.799 168.678,179.466 167,178.5C 162.151,179.76 157.817,182.093 154,185.5C 150.059,185.749 145.726,185.416 141,184.5C 137.795,184.393 134.795,185.06 132,186.5C 131.692,185.692 131.192,185.025 130.5,184.5C 128.495,185.499 127.162,184.832 126.5,182.5C 136.596,184.077 146.596,183.577 156.5,181C 161.191,178.103 166.191,176.436 171.5,176C 184.171,191.491 199.837,195.491 218.5,188C 224.277,184.714 229.61,180.881 234.5,176.5C 239.302,178.902 244.302,180.736 249.5,182C 274.415,184.218 290.081,173.385 296.5,149.5C 297.165,146.686 297.498,143.686 297.5,140.5C 297.722,136.203 297.055,132.203 295.5,128.5C 293.748,123.163 291.081,118.33 287.5,114C 272.042,99.2076 254.709,96.5409 235.5,106C 232.238,108.944 228.738,111.444 225,113.5C 218.216,110.179 211.05,108.179 203.5,107.5C 203.5,106.5 203.5,105.5 203.5,104.5C 202.167,104.5 200.833,104.5 199.5,104.5C 200.057,102.765 200.39,101.098 200.5,99.5C 202.746,99.0639 204.913,98.3972 207,97.5C 210.321,98.9707 213.821,99.6374 217.5,99.5C 219.591,99.3184 221.591,99.6518 223.5,100.5C 244.547,86.5169 265.881,86.0169 287.5,99C 291.107,102.098 294.107,105.598 296.5,109.5 Z"/></g>
<g><path style="opacity:1" fill="#c6d4c7" d="M 295.5,128.5 C 297.055,132.203 297.722,136.203 297.5,140.5C 297.498,143.686 297.165,146.686 296.5,149.5C 296.602,142.616 296.268,135.616 295.5,128.5 Z"/></g>
<g><path style="opacity:1" fill="#0d190c" d="M 307.5,133.5 C 308.488,138.64 308.821,143.974 308.5,149.5C 341.5,149.5 374.5,149.5 407.5,149.5C 374.338,150.498 341.004,150.832 307.5,150.5C 307.5,144.833 307.5,139.167 307.5,133.5 Z"/></g>
<g><path style="opacity:1" fill="#071405" d="M 410.5,150.5 C 414.458,150.251 418.124,150.918 421.5,152.5C 417.613,152.354 413.946,151.687 410.5,150.5 Z"/></g>
<g><path style="opacity:1" fill="#2e4b2b" d="M 304.5,147.5 C 304.539,148.583 304.873,149.583 305.5,150.5C 309.553,153.596 313.72,153.929 318,151.5C 342,152.167 366,152.833 390,153.5C 397.398,152.582 404.731,152.249 412,152.5C 414,153.167 416,153.833 418,154.5C 418.333,154.167 418.667,153.833 419,153.5C 419.652,155.723 421.152,156.89 423.5,157C 427.564,156.329 431.231,156.996 434.5,159C 432.567,159.251 430.734,159.751 429,160.5C 428.667,160.167 428.333,159.833 428,159.5C 427.481,160.516 426.647,161.182 425.5,161.5C 422.356,161.344 419.023,161.01 415.5,160.5C 415.719,159.325 415.386,158.325 414.5,157.5C 392.742,157.332 371.575,157.666 351,158.5C 350.667,157.833 350.333,157.167 350,156.5C 347.959,157.752 345.625,158.419 343,158.5C 338.354,157.232 334.354,157.232 331,158.5C 330.333,155.833 329.667,155.833 329,158.5C 328.333,155.833 327.667,155.833 327,158.5C 325.667,158.5 324.333,158.5 323,158.5C 322.667,157.833 322.333,157.167 322,156.5C 319.131,159.042 316.131,159.042 313,156.5C 310.23,158.944 307.397,158.944 304.5,156.5C 303.582,158.839 301.916,160.339 299.5,161C 300.056,161.383 300.389,161.883 300.5,162.5C 298.621,162.393 298.288,162.893 299.5,164C 298.09,165.267 296.424,165.267 294.5,164C 295.833,163 295.833,162 294.5,161C 296.333,160.5 297.5,159.333 298,157.5C 299.195,154.775 299.528,152.109 299,149.5C 300.385,148.449 301.385,147.116 302,145.5C 302.075,147.935 302.908,148.602 304.5,147.5 Z"/></g>
<g><path style="opacity:1" fill="#1e291e" d="M 421.5,152.5 C 425.214,152.59 428.548,153.59 431.5,155.5C 427.251,157.589 423.917,156.589 421.5,152.5 Z"/></g>
<g><path style="opacity:1" fill="#f9f9f9" d="M 479.5,231.5 C 479.792,276.847 479.458,322.18 478.5,367.5C 470.304,406.026 446.637,428.026 407.5,433.5C 299.488,433.816 191.488,433.483 83.5,432.5C 82.5,432.5 81.5,432.5 80.5,432.5C 77.8333,431.833 75.1667,431.167 72.5,430.5C 41.7879,417.454 23.7879,394.454 18.5,361.5C 18.3333,318.165 18.5,274.832 19,231.5C 20.9637,218.941 25.2971,207.274 32,196.5C 33.0195,195.313 34.1861,194.313 35.5,193.5C 52.3744,202.493 69.3744,202.827 86.5,194.5C 88.2554,193.928 89.9221,193.094 91.5,192C 94.682,188.651 98.0154,185.484 101.5,182.5C 108.009,186.092 114.675,189.092 121.5,191.5C 122.209,192.404 123.209,192.737 124.5,192.5C 128.034,194.048 131.867,194.714 136,194.5C 139.021,194.498 141.854,194.164 144.5,193.5C 152.098,193.08 159.431,191.414 166.5,188.5C 171.011,191.495 175.678,194.328 180.5,197C 200.896,205.226 219.563,202.392 236.5,188.5C 260.07,197.456 280.07,192.456 296.5,173.5C 299.829,170.188 302.162,166.188 303.5,161.5C 339.162,160.333 374.829,160.167 410.5,161C 449.614,168.945 472.614,192.445 479.5,231.5 Z"/></g>
<g><path style="opacity:1" fill="#395038" d="M 296.5,109.5 C 303.203,115.875 306.87,123.875 307.5,133.5C 307.5,139.167 307.5,144.833 307.5,150.5C 341.004,150.832 374.338,150.498 407.5,149.5C 408.391,150.11 409.391,150.443 410.5,150.5C 413.946,151.687 417.613,152.354 421.5,152.5C 423.917,156.589 427.251,157.589 431.5,155.5C 433.703,155.604 435.703,156.27 437.5,157.5C 437.281,158.675 437.614,159.675 438.5,160.5C 440.957,163.051 443.957,164.551 447.5,165C 446.833,165.333 446.167,165.667 445.5,166C 447.663,166.245 449.33,167.245 450.5,169C 449.132,170.34 447.799,171.674 446.5,173C 446.646,174.727 447.313,174.894 448.5,173.5C 453.552,176.384 457.385,180.384 460,185.5C 461,185.5 462,185.5 463,185.5C 464.113,186.76 464.28,187.927 463.5,189C 465.044,189.29 466.377,189.956 467.5,191C 467.167,191.333 466.833,191.667 466.5,192C 467.893,193.171 468.727,194.671 469,196.5C 470.938,199.39 473.105,202.056 475.5,204.5C 476.682,208.977 477.849,213.31 479,217.5C 479.665,222.156 480.165,226.823 480.5,231.5C 480.167,231.5 479.833,231.5 479.5,231.5C 472.614,192.445 449.614,168.945 410.5,161C 374.829,160.167 339.162,160.333 303.5,161.5C 302.162,166.188 299.829,170.188 296.5,173.5C 298.09,170.061 299.424,166.394 300.5,162.5C 300.389,161.883 300.056,161.383 299.5,161C 301.916,160.339 303.582,158.839 304.5,156.5C 307.397,158.944 310.23,158.944 313,156.5C 316.131,159.042 319.131,159.042 322,156.5C 322.333,157.167 322.667,157.833 323,158.5C 324.333,158.5 325.667,158.5 327,158.5C 327.667,155.833 328.333,155.833 329,158.5C 329.667,155.833 330.333,155.833 331,158.5C 334.354,157.232 338.354,157.232 343,158.5C 345.625,158.419 347.959,157.752 350,156.5C 350.333,157.167 350.667,157.833 351,158.5C 371.575,157.666 392.742,157.332 414.5,157.5C 415.386,158.325 415.719,159.325 415.5,160.5C 419.023,161.01 422.356,161.344 425.5,161.5C 426.647,161.182 427.481,160.516 428,159.5C 428.333,159.833 428.667,160.167 429,160.5C 430.734,159.751 432.567,159.251 434.5,159C 431.231,156.996 427.564,156.329 423.5,157C 421.152,156.89 419.652,155.723 419,153.5C 418.667,153.833 418.333,154.167 418,154.5C 416,153.833 414,153.167 412,152.5C 404.731,152.249 397.398,152.582 390,153.5C 366,152.833 342,152.167 318,151.5C 313.72,153.929 309.553,153.596 305.5,150.5C 304.873,149.583 304.539,148.583 304.5,147.5C 307.446,142.168 307.113,137.001 303.5,132C 304.022,131.439 304.355,130.772 304.5,130C 302.899,126.751 302.066,123.251 302,119.5C 300.853,120.458 299.853,120.125 299,118.5C 298.599,115.301 297.766,112.301 296.5,109.5 Z"/></g>
<g><path style="opacity:1" fill="#324a31" d="M 36.5,87.5 C 36.7389,91.1955 38.0722,94.3621 40.5,97C 39.1387,98.5843 38.472,100.418 38.5,102.5C 37.325,102.281 36.325,102.614 35.5,103.5C 34.3052,105.751 33.3052,108.085 32.5,110.5C 27.2608,111.99 23.7608,115.656 22,121.5C 21.3457,120.304 20.8457,120.304 20.5,121.5C 21.2421,122.287 22.0754,122.953 23,123.5C 23.3589,120.456 24.0255,120.122 25,122.5C 28.6219,118.922 32.4552,115.589 36.5,112.5C 37.3567,111.264 38.0234,109.931 38.5,108.5C 38.2889,106.71 38.2889,105.044 38.5,103.5C 39.5,103.833 40.1667,104.5 40.5,105.5C 40.1667,106.833 39.8333,108.167 39.5,109.5C 40.6888,110.429 42.0222,110.762 43.5,110.5C 22.6316,123.248 16.1316,141.248 24,164.5C 29.5001,176.166 38.3334,184.166 50.5,188.5C 53.6952,190.03 57.1952,190.696 61,190.5C 63.6903,190.497 66.1903,190.164 68.5,189.5C 80.3841,187.897 89.7174,182.231 96.5,172.5C 95.8288,173.847 95.8288,175.014 96.5,176C 91.8142,179.688 87.4809,183.688 83.5,188C 78.7839,188.876 74.2839,190.376 70,192.5C 67.9091,192.421 65.7424,192.087 63.5,191.5C 58.8538,194.427 54.5205,194.094 50.5,190.5C 49.5581,190.608 48.7247,190.941 48,191.5C 43.7461,188.24 39.2461,185.407 34.5,183C 33.0621,181.431 31.5621,179.931 30,178.5C 29.6667,179.167 29.3333,179.833 29,180.5C 27.4015,177.702 26.2349,174.702 25.5,171.5C 24.2638,170.754 22.9305,170.421 21.5,170.5C 21.7135,172.144 21.3802,173.644 20.5,175C 22.1667,178 24.5,180.333 27.5,182C 25.0323,183.588 24.8657,185.422 27,187.5C 27.9799,185.941 28.8133,184.274 29.5,182.5C 29.9183,186.697 32.2516,188.531 36.5,188C 35.5,188.333 34.5,188.667 33.5,189C 38.93,190.97 44.43,193.803 50,197.5C 53.3846,194.891 56.5512,195.225 59.5,198.5C 60.4776,198.023 61.3109,197.357 62,196.5C 63.5655,195.939 64.8989,196.606 66,198.5C 68.3123,198.045 70.3123,197.045 72,195.5C 72.6667,196.167 73.3333,196.833 74,197.5C 75.3333,196.167 76.6667,194.833 78,193.5C 78.3879,194.428 79.0546,195.095 80,195.5C 81.15,194.576 82.15,194.576 83,195.5C 83.9265,192.294 85.0932,191.961 86.5,194.5C 69.3744,202.827 52.3744,202.493 35.5,193.5C 34.1861,194.313 33.0195,195.313 32,196.5C 25.2971,207.274 20.9637,218.941 19,231.5C 18.5,274.832 18.3333,318.165 18.5,361.5C 18.0106,332.202 17.0106,302.202 15.5,271.5C 16.6495,260.131 16.6495,248.797 15.5,237.5C 16.7046,232.676 17.7046,227.843 18.5,223C 17.7728,220.876 17.1062,218.709 16.5,216.5C 18.0064,215.253 19.5064,215.253 21,216.5C 21.6667,215.5 21.6667,214.5 21,213.5C 20.3457,214.696 19.8457,214.696 19.5,213.5C 21.1938,211.446 22.3605,209.112 23,206.5C 23.9138,207.654 24.7471,207.487 25.5,206C 24.6919,205.692 24.0253,205.192 23.5,204.5C 25.9803,203.585 26.6469,202.085 25.5,200C 28.8302,192.787 27.8302,191.953 22.5,197.5C 22.7093,198.086 23.0426,198.586 23.5,199C 21.8645,200.434 20.8645,202.267 20.5,204.5C 21.6087,205.965 21.1087,206.965 19,207.5C 16.7683,212.614 14.6016,217.614 12.5,222.5C 11.9217,219.316 12.5883,216.15 14.5,213C 14.1667,212.667 13.8333,212.333 13.5,212C 15.9178,210.249 17.2511,208.249 17.5,206C 16.6634,204.989 16.33,203.822 16.5,202.5C 19.0523,197.27 22.0523,192.27 25.5,187.5C 9.49833,169.544 5.665,149.211 14,126.5C 18.4674,117.192 24.9674,109.526 33.5,103.5C 33.9899,97.9177 34.9899,92.5844 36.5,87.5 Z"/></g>
<g><path style="opacity:1" fill="#304c2d" d="M 126.5,182.5 C 127.162,184.832 128.495,185.499 130.5,184.5C 131.192,185.025 131.692,185.692 132,186.5C 134.795,185.06 137.795,184.393 141,184.5C 145.726,185.416 150.059,185.749 154,185.5C 157.817,182.093 162.151,179.76 167,178.5C 168.678,179.466 169.345,180.799 169,182.5C 167.982,184.564 166.649,184.898 165,183.5C 163.466,186.031 161.299,187.864 158.5,189C 156.633,189.711 155.133,189.211 154,187.5C 153.667,188.167 153.333,188.833 153,189.5C 151.545,190.557 149.878,190.557 148,189.5C 145.973,190.212 144.973,191.212 145,192.5C 141.046,192.404 137.046,192.404 133,192.5C 129.989,191 130.489,190.166 134.5,190C 133.667,189.833 132.833,189.667 132,189.5C 128.747,191.134 125.247,191.801 121.5,191.5C 114.675,189.092 108.009,186.092 101.5,182.5C 98.0154,185.484 94.682,188.651 91.5,192C 89.9221,193.094 88.2554,193.928 86.5,194.5C 85.0932,191.961 83.9265,192.294 83,195.5C 82.15,194.576 81.15,194.576 80,195.5C 79.0546,195.095 78.3879,194.428 78,193.5C 76.6667,194.833 75.3333,196.167 74,197.5C 73.3333,196.833 72.6667,196.167 72,195.5C 70.3123,197.045 68.3123,198.045 66,198.5C 64.8989,196.606 63.5655,195.939 62,196.5C 61.3109,197.357 60.4776,198.023 59.5,198.5C 56.5512,195.225 53.3846,194.891 50,197.5C 44.43,193.803 38.93,190.97 33.5,189C 34.5,188.667 35.5,188.333 36.5,188C 32.2516,188.531 29.9183,186.697 29.5,182.5C 28.8133,184.274 27.9799,185.941 27,187.5C 24.8657,185.422 25.0323,183.588 27.5,182C 24.5,180.333 22.1667,178 20.5,175C 21.3802,173.644 21.7135,172.144 21.5,170.5C 22.9305,170.421 24.2638,170.754 25.5,171.5C 26.2349,174.702 27.4015,177.702 29,180.5C 29.3333,179.833 29.6667,179.167 30,178.5C 31.5621,179.931 33.0621,181.431 34.5,183C 39.2461,185.407 43.7461,188.24 48,191.5C 48.7247,190.941 49.5581,190.608 50.5,190.5C 54.5205,194.094 58.8538,194.427 63.5,191.5C 65.7424,192.087 67.9091,192.421 70,192.5C 74.2839,190.376 78.7839,188.876 83.5,188C 87.4809,183.688 91.8142,179.688 96.5,176C 95.8288,175.014 95.8288,173.847 96.5,172.5C 96.9651,169.527 98.6318,168.36 101.5,169C 108.69,175.595 117.023,180.095 126.5,182.5 Z"/></g>
<g><path style="opacity:1" fill="#acb8ac" d="M 50.5,188.5 C 56.4638,189.307 62.4638,189.64 68.5,189.5C 66.1903,190.164 63.6903,190.497 61,190.5C 57.1952,190.696 53.6952,190.03 50.5,188.5 Z"/></g>
<g><path style="opacity:1" fill="#849482" d="M 124.5,192.5 C 131.137,193.276 137.804,193.609 144.5,193.5C 141.854,194.164 139.021,194.498 136,194.5C 131.867,194.714 128.034,194.048 124.5,192.5 Z"/></g>
<g><path style="opacity:1" fill="#edfaec" d="M 368.5,217.5 C 287.833,217.5 207.167,217.5 126.5,217.5C 128.556,216.784 130.723,216.117 133,215.5C 211.598,216.165 290.098,216.832 368.5,217.5 Z"/></g>
<g><path style="opacity:1" fill="#304a2e" d="M 375.5,218.5 C 394.322,222.988 405.656,234.654 409.5,253.5C 408.191,254.624 407.525,256.124 407.5,258C 407.446,285.264 407.78,312.431 408.5,339.5C 407.891,342.837 406.724,343.17 405,340.5C 404.832,313.664 404.332,286.997 403.5,260.5C 400.69,240.359 389.357,228.359 369.5,224.5C 286.999,223.833 204.332,223.167 121.5,222.5C 125.072,221.658 128.572,220.658 132,219.5C 150.274,220.311 168.44,220.978 186.5,221.5C 188.839,221.331 191.006,220.664 193,219.5C 195.333,219.833 197.667,220.167 200,220.5C 258.285,218.506 316.785,217.84 375.5,218.5 Z"/></g>
<g><path style="opacity:1" fill="#f9f9f9" d="M 369.5,224.5 C 389.357,228.359 400.69,240.359 403.5,260.5C 403.667,288.169 403.5,315.835 403,343.5C 399.008,357.992 389.841,367.325 375.5,371.5C 289.158,372.127 203.158,371.46 117.5,369.5C 105.334,364.15 98.1678,354.816 96,341.5C 95.3333,312.833 95.3333,284.167 96,255.5C 100.144,239.356 110.311,229.189 126.5,225C 207.499,224.5 288.499,224.333 369.5,224.5 Z"/></g>
<g><path style="opacity:1" fill="#2f4b2d" d="M 437.5,157.5 C 449.93,163.152 460.763,171.152 470,181.5C 472.492,184.487 474.325,187.82 475.5,191.5C 477.232,196.083 479.232,200.583 481.5,205C 480.878,207.754 481.878,210.087 484.5,212C 484.056,213.533 483.723,215.033 483.5,216.5C 483.977,217.478 484.643,218.311 485.5,219C 484.483,220.049 484.316,221.216 485,222.5C 485.889,221.112 486.389,221.278 486.5,223C 485.507,225.453 485.34,227.953 486,230.5C 486.654,229.304 487.154,229.304 487.5,230.5C 486.358,232.723 486.358,235.223 487.5,238C 487.333,239.167 487.167,240.333 487,241.5C 486.667,240.833 486.333,240.167 486,239.5C 485.833,241.333 485.667,243.167 485.5,245C 485.973,248.519 486.14,252.019 486,255.5C 484.801,252.495 483.968,249.329 483.5,246C 484.764,240.482 484.764,236.315 483.5,233.5C 483.333,232.833 483.167,232.167 483,231.5C 482.329,232.252 481.496,232.586 480.5,232.5C 480.5,232.167 480.5,231.833 480.5,231.5C 480.165,226.823 479.665,222.156 479,217.5C 477.849,213.31 476.682,208.977 475.5,204.5C 473.105,202.056 470.938,199.39 469,196.5C 468.727,194.671 467.893,193.171 466.5,192C 466.833,191.667 467.167,191.333 467.5,191C 466.377,189.956 465.044,189.29 463.5,189C 464.28,187.927 464.113,186.76 463,185.5C 462,185.5 461,185.5 460,185.5C 457.385,180.384 453.552,176.384 448.5,173.5C 447.313,174.894 446.646,174.727 446.5,173C 447.799,171.674 449.132,170.34 450.5,169C 449.33,167.245 447.663,166.245 445.5,166C 446.167,165.667 446.833,165.333 447.5,165C 443.957,164.551 440.957,163.051 438.5,160.5C 437.614,159.675 437.281,158.675 437.5,157.5 Z"/></g>
<g><path style="opacity:1" fill="#314930" d="M 475.5,191.5 C 476.376,191.369 477.043,191.702 477.5,192.5C 482.833,201.843 486.5,211.843 488.5,222.5C 489.83,287.832 489.83,353.165 488.5,418.5C 488.483,422.534 487.483,426.201 485.5,429.5C 485.327,425.106 485.327,420.773 485.5,416.5C 487.645,415.318 487.645,413.818 485.5,412C 486.308,411.692 486.975,411.192 487.5,410.5C 486.833,410.167 486.167,409.833 485.5,409.5C 488.797,408.858 489.131,407.691 486.5,406C 487.183,399.462 487.516,392.796 487.5,386C 485.507,382.323 485.507,378.49 487.5,374.5C 486.27,371.524 486.27,368.524 487.5,365.5C 487.182,364.353 486.516,363.519 485.5,363C 486.578,362.326 487.245,361.326 487.5,360C 486.715,358.21 486.715,356.543 487.5,355C 486.789,353.745 485.956,352.579 485,351.5C 483.806,353.623 483.14,355.957 483,358.5C 481.334,357.66 481.167,358.16 482.5,360C 481.956,360.717 481.289,361.217 480.5,361.5C 480.5,318.5 480.5,275.5 480.5,232.5C 481.496,232.586 482.329,232.252 483,231.5C 483.167,232.167 483.333,232.833 483.5,233.5C 484.764,236.315 484.764,240.482 483.5,246C 483.968,249.329 484.801,252.495 486,255.5C 486.14,252.019 485.973,248.519 485.5,245C 485.667,243.167 485.833,241.333 486,239.5C 486.333,240.167 486.667,240.833 487,241.5C 487.167,240.333 487.333,239.167 487.5,238C 486.358,235.223 486.358,232.723 487.5,230.5C 487.154,229.304 486.654,229.304 486,230.5C 485.34,227.953 485.507,225.453 486.5,223C 486.389,221.278 485.889,221.112 485,222.5C 484.316,221.216 484.483,220.049 485.5,219C 484.643,218.311 483.977,217.478 483.5,216.5C 483.723,215.033 484.056,213.533 484.5,212C 481.878,210.087 480.878,207.754 481.5,205C 479.232,200.583 477.232,196.083 475.5,191.5 Z"/></g>
<g><path style="opacity:1" fill="#223522" d="M 16.5,202.5 C 16.33,203.822 16.6634,204.989 17.5,206C 17.2511,208.249 15.9178,210.249 13.5,212C 13.8333,212.333 14.1667,212.667 14.5,213C 12.5883,216.15 11.9217,219.316 12.5,222.5C 10.9507,224.829 10.1173,227.496 10,230.5C 9.33333,290.167 9.33333,349.833 10,409.5C 10.7804,412.512 11.9471,415.345 13.5,418C 13.0426,418.414 12.7093,418.914 12.5,419.5C 14.0834,423.745 15.4168,428.078 16.5,432.5C 20.3879,431.045 21.3879,432.211 19.5,436C 21.2431,439.649 22.2431,443.482 22.5,447.5C 14.5886,436.616 10.0886,424.283 9,410.5C 8.33333,349.5 8.33333,288.5 9,227.5C 10.4293,218.723 12.9293,210.39 16.5,202.5 Z"/></g>
<g><path style="opacity:1" fill="#425842" d="M 126.5,217.5 C 207.167,217.5 287.833,217.5 368.5,217.5C 371.059,217.198 373.393,217.532 375.5,218.5C 316.785,217.84 258.285,218.506 200,220.5C 197.667,220.167 195.333,219.833 193,219.5C 191.006,220.664 188.839,221.331 186.5,221.5C 168.44,220.978 150.274,220.311 132,219.5C 128.572,220.658 125.072,221.658 121.5,222.5C 204.332,223.167 286.999,223.833 369.5,224.5C 288.499,224.333 207.499,224.5 126.5,225C 110.311,229.189 100.144,239.356 96,255.5C 95.3333,284.167 95.3333,312.833 96,341.5C 98.1678,354.816 105.334,364.15 117.5,369.5C 119.277,370.6 121.277,371.434 123.5,372C 206.166,372.5 288.833,372.667 371.5,372.5C 316.002,373.499 260.336,373.832 204.5,373.5C 196.887,373.426 189.387,374.093 182,375.5C 164.254,375.021 147.254,374.688 131,374.5C 128.175,375.584 128.008,376.751 130.5,378C 141.178,377.496 152.178,377.996 163.5,379.5C 233.5,379.5 303.5,379.5 373.5,379.5C 290.668,380.666 207.668,380.832 124.5,380C 104.855,375.356 93.0218,363.189 89,343.5C 88.3333,313.167 88.3333,282.833 89,252.5C 94.2816,233.05 106.782,221.384 126.5,217.5 Z"/></g>
<g><path style="opacity:1" fill="#a4b5a2" d="M 479.5,231.5 C 479.833,231.5 480.167,231.5 480.5,231.5C 480.5,231.833 480.5,232.167 480.5,232.5C 480.5,275.5 480.5,318.5 480.5,361.5C 479.833,363.5 479.167,365.5 478.5,367.5C 479.458,322.18 479.792,276.847 479.5,231.5 Z"/></g>
<g><path style="opacity:1" fill="#233220" d="M 488.5,222.5 C 489.302,223.952 489.802,225.618 490,227.5C 490.667,289.5 490.667,351.5 490,413.5C 489.802,415.382 489.302,417.048 488.5,418.5C 489.83,353.165 489.83,287.832 488.5,222.5 Z"/></g>
<g><path style="opacity:1" fill="#edf8ed" d="M 117.5,369.5 C 203.158,371.46 289.158,372.127 375.5,371.5C 374.432,372.434 373.099,372.768 371.5,372.5C 288.833,372.667 206.166,372.5 123.5,372C 121.277,371.434 119.277,370.6 117.5,369.5 Z"/></g>
<g><path style="opacity:1" fill="#304b2c" d="M 204.5,373.5 C 215.993,374.331 227.659,374.831 239.5,375C 240.308,375.308 240.975,375.808 241.5,376.5C 233.033,377.56 224.533,378.227 216,378.5C 200.118,377.587 182.618,377.92 163.5,379.5C 152.178,377.996 141.178,377.496 130.5,378C 128.008,376.751 128.175,375.584 131,374.5C 147.254,374.688 164.254,375.021 182,375.5C 189.387,374.093 196.887,373.426 204.5,373.5 Z"/></g>
<g><path style="opacity:1" fill="#364c36" d="M 409.5,253.5 C 410.167,268.33 410.5,283.33 410.5,298.5C 410.63,315.209 410.13,331.876 409,348.5C 403.364,365.905 391.531,376.239 373.5,379.5C 303.5,379.5 233.5,379.5 163.5,379.5C 182.618,377.92 200.118,377.587 216,378.5C 224.533,378.227 233.033,377.56 241.5,376.5C 240.975,375.808 240.308,375.308 239.5,375C 227.659,374.831 215.993,374.331 204.5,373.5C 260.336,373.832 316.002,373.499 371.5,372.5C 373.099,372.768 374.432,372.434 375.5,371.5C 389.841,367.325 399.008,357.992 403,343.5C 403.5,315.835 403.667,288.169 403.5,260.5C 404.332,286.997 404.832,313.664 405,340.5C 406.724,343.17 407.891,342.837 408.5,339.5C 407.78,312.431 407.446,285.264 407.5,258C 407.525,256.124 408.191,254.624 409.5,253.5 Z"/></g>
<g><path style="opacity:1" fill="#2e4b2b" d="M 295.5,374.5 C 314.833,374.5 334.167,374.5 353.5,374.5C 353.5,375.5 353.5,376.5 353.5,377.5C 323.079,377.353 291.245,377.686 258,378.5C 253.086,376.134 253.419,375.134 259,375.5C 261.197,375.651 263.364,375.985 265.5,376.5C 275.648,375.88 285.648,375.213 295.5,374.5 Z"/></g>
<g><path style="opacity:1" fill="#f7f8f7" d="M 20.5,392.5 C 28.4998,408.001 39.8331,420.501 54.5,430C 57.0711,431.454 59.7378,432.62 62.5,433.5C 69.0104,437.061 76.0104,439.561 83.5,441C 192.334,441.833 301.001,441.666 409.5,440.5C 441.381,436.908 464.381,420.908 478.5,392.5C 479.487,397.305 479.821,402.305 479.5,407.5C 476.536,429.769 466.536,448.102 449.5,462.5C 441.753,467.372 433.753,471.706 425.5,475.5C 419.321,477.39 412.988,478.557 406.5,479C 300.097,479.831 193.764,479.664 87.5,478.5C 82.8858,476.17 77.8858,474.836 72.5,474.5C 41.9348,462.579 24.2681,440.245 19.5,407.5C 19.1795,402.305 19.5128,397.305 20.5,392.5 Z"/></g>
<g><path style="opacity:1" fill="#a8baa7" d="M 480.5,389.5 C 480.5,389.833 480.5,390.167 480.5,390.5C 480.822,396.358 480.489,402.025 479.5,407.5C 479.821,402.305 479.487,397.305 478.5,392.5C 478.427,390.973 479.094,389.973 480.5,389.5 Z"/></g>
<g><path style="opacity:1" fill="#334e34" d="M 480.5,361.5 C 481.09,362.766 481.59,364.099 482,365.5C 482.654,364.304 483.154,364.304 483.5,365.5C 482.071,367.331 481.571,369.331 482,371.5C 482.333,371.167 482.667,370.833 483,370.5C 483.667,375.833 483.667,381.167 483,386.5C 481.959,387.471 481.126,388.471 480.5,389.5C 479.094,389.973 478.427,390.973 478.5,392.5C 464.381,420.908 441.381,436.908 409.5,440.5C 407.167,440.5 404.833,440.5 402.5,440.5C 404.663,439.531 406.996,438.698 409.5,438C 407.533,436.786 405.533,436.286 403.5,436.5C 405.292,435.691 407.292,435.191 409.5,435C 408.906,434.536 408.239,434.369 407.5,434.5C 407.5,434.167 407.5,433.833 407.5,433.5C 446.637,428.026 470.304,406.026 478.5,367.5C 479.167,365.5 479.833,363.5 480.5,361.5 Z"/></g>
<g><path style="opacity:1" fill="#334b33" d="M 480.5,390.5 C 482.777,390.863 483.444,391.863 482.5,393.5C 483.106,395.709 483.773,397.876 484.5,400C 484.163,403.928 482.997,407.761 481,411.5C 480.216,414.76 480.383,417.927 481.5,421C 479.227,423.032 477.56,425.532 476.5,428.5C 476.623,430.378 476.623,432.211 476.5,434C 473.665,436.141 473.165,438.641 475,441.5C 475.667,440.167 476.333,440.167 477,441.5C 479.726,437.298 482.559,433.298 485.5,429.5C 483.546,438.078 479.546,445.411 473.5,451.5C 472.25,451.577 471.417,452.244 471,453.5C 470.722,452.584 470.222,451.918 469.5,451.5C 468.761,451.631 468.094,451.464 467.5,451C 473.577,449.929 474.077,447.763 469,444.5C 467.513,445.253 467.346,446.086 468.5,447C 467.234,447.309 466.067,447.809 465,448.5C 461.499,454.06 456.832,459.393 451,464.5C 450.722,463.584 450.222,462.918 449.5,462.5C 466.536,448.102 476.536,429.769 479.5,407.5C 480.489,402.025 480.822,396.358 480.5,390.5 Z"/></g>
<g><path style="opacity:1" fill="#2f4d2d" d="M 485.5,429.5 C 482.559,433.298 479.726,437.298 477,441.5C 476.333,440.167 475.667,440.167 475,441.5C 473.165,438.641 473.665,436.141 476.5,434C 476.623,432.211 476.623,430.378 476.5,428.5C 477.56,425.532 479.227,423.032 481.5,421C 480.383,417.927 480.216,414.76 481,411.5C 482.997,407.761 484.163,403.928 484.5,400C 483.773,397.876 483.106,395.709 482.5,393.5C 483.444,391.863 482.777,390.863 480.5,390.5C 480.5,390.167 480.5,389.833 480.5,389.5C 481.126,388.471 481.959,387.471 483,386.5C 483.667,381.167 483.667,375.833 483,370.5C 482.667,370.833 482.333,371.167 482,371.5C 481.571,369.331 482.071,367.331 483.5,365.5C 483.154,364.304 482.654,364.304 482,365.5C 481.59,364.099 481.09,362.766 480.5,361.5C 481.289,361.217 481.956,360.717 482.5,360C 481.167,358.16 481.334,357.66 483,358.5C 483.14,355.957 483.806,353.623 485,351.5C 485.956,352.579 486.789,353.745 487.5,355C 486.715,356.543 486.715,358.21 487.5,360C 487.245,361.326 486.578,362.326 485.5,363C 486.516,363.519 487.182,364.353 487.5,365.5C 486.27,368.524 486.27,371.524 487.5,374.5C 485.507,378.49 485.507,382.323 487.5,386C 487.516,392.796 487.183,399.462 486.5,406C 489.131,407.691 488.797,408.858 485.5,409.5C 486.167,409.833 486.833,410.167 487.5,410.5C 486.975,411.192 486.308,411.692 485.5,412C 487.645,413.818 487.645,415.318 485.5,416.5C 485.327,420.773 485.327,425.106 485.5,429.5 Z"/></g>
<g><path style="opacity:1" fill="#c1cec1" d="M 83.5,432.5 C 191.488,433.483 299.488,433.816 407.5,433.5C 407.5,433.833 407.5,434.167 407.5,434.5C 405.167,434.5 402.833,434.5 400.5,434.5C 296.833,434.667 193.166,434.5 89.5,434C 87.2922,433.809 85.2922,433.309 83.5,432.5 Z"/></g>
<g><path style="opacity:1" fill="#425643" d="M 80.5,432.5 C 81.5,432.5 82.5,432.5 83.5,432.5C 85.2922,433.309 87.2922,433.809 89.5,434C 193.166,434.5 296.833,434.667 400.5,434.5C 299.001,435.499 197.335,435.833 95.5,435.5C 90.8125,435.801 86.3125,436.134 82,436.5C 81.5,435.333 80.6667,434.5 79.5,434C 80.056,433.617 80.3893,433.117 80.5,432.5 Z"/></g>
<g><path style="opacity:1" fill="#2b4a2b" d="M 72.5,430.5 C 75.1667,431.167 77.8333,431.833 80.5,432.5C 80.3893,433.117 80.056,433.617 79.5,434C 80.6667,434.5 81.5,435.333 82,436.5C 86.3125,436.134 90.8125,435.801 95.5,435.5C 95.811,436.478 96.4777,437.145 97.5,437.5C 198.939,436.755 300.939,436.421 403.5,436.5C 405.533,436.286 407.533,436.786 409.5,438C 406.996,438.698 404.663,439.531 402.5,440.5C 372.938,440.153 343.272,440.153 313.5,440.5C 302.189,439.667 290.855,439.001 279.5,438.5C 259.492,438.165 239.492,438.832 219.5,440.5C 191.535,440.019 163.535,439.353 135.5,438.5C 124.849,439.325 114.182,439.991 103.5,440.5C 98.4029,440.536 93.4029,439.869 88.5,438.5C 86.3072,439.554 84.8072,439.22 84,437.5C 82.1653,438.26 80.1653,438.594 78,438.5C 76.3267,436.366 74.1601,434.866 71.5,434C 68.5184,433.502 65.5184,433.335 62.5,433.5C 62.0629,431.926 61.0629,430.759 59.5,430C 60.8333,429.333 60.8333,428.667 59.5,428C 63.6342,428.878 67.6342,430.378 71.5,432.5C 72.2975,432.043 72.6309,431.376 72.5,430.5 Z"/></g>
<g><path style="opacity:1" fill="#2b442b" d="M 400.5,434.5 C 402.833,434.5 405.167,434.5 407.5,434.5C 408.239,434.369 408.906,434.536 409.5,435C 407.292,435.191 405.292,435.691 403.5,436.5C 300.939,436.421 198.939,436.755 97.5,437.5C 96.4777,437.145 95.811,436.478 95.5,435.5C 197.335,435.833 299.001,435.499 400.5,434.5 Z"/></g>
<g><path style="opacity:1" fill="#3b4f3b" d="M 62.5,433.5 C 65.5184,433.335 68.5184,433.502 71.5,434C 74.1601,434.866 76.3267,436.366 78,438.5C 80.1653,438.594 82.1653,438.26 84,437.5C 84.8072,439.22 86.3072,439.554 88.5,438.5C 93.4029,439.869 98.4029,440.536 103.5,440.5C 114.182,439.991 124.849,439.325 135.5,438.5C 163.535,439.353 191.535,440.019 219.5,440.5C 239.492,438.832 259.492,438.165 279.5,438.5C 290.855,439.001 302.189,439.667 313.5,440.5C 343.272,440.153 372.938,440.153 402.5,440.5C 404.833,440.5 407.167,440.5 409.5,440.5C 301.001,441.666 192.334,441.833 83.5,441C 76.0104,439.561 69.0104,437.061 62.5,433.5 Z"/></g>
<g><path style="opacity:1" fill="#c7d3c6" d="M 72.5,474.5 C 77.8858,474.836 82.8858,476.17 87.5,478.5C 82.1119,478.238 77.1119,476.905 72.5,474.5 Z"/></g>
<g><path style="opacity:1" fill="#324b2f" d="M 18.5,361.5 C 23.7879,394.454 41.7879,417.454 72.5,430.5C 72.6309,431.376 72.2975,432.043 71.5,432.5C 67.6342,430.378 63.6342,428.878 59.5,428C 60.8333,428.667 60.8333,429.333 59.5,430C 61.0629,430.759 62.0629,431.926 62.5,433.5C 59.7378,432.62 57.0711,431.454 54.5,430C 39.8331,420.501 28.4998,408.001 20.5,392.5C 20.5386,391.244 20.0386,390.244 19,389.5C 18.1808,395.681 18.3475,401.681 19.5,407.5C 24.2681,440.245 41.9348,462.579 72.5,474.5C 77.1119,476.905 82.1119,478.238 87.5,478.5C 193.764,479.664 300.097,479.831 406.5,479C 412.988,478.557 419.321,477.39 425.5,475.5C 423.648,478.255 420.982,479.921 417.5,480.5C 416.914,480.291 416.414,479.957 416,479.5C 416.311,480.935 416.145,482.268 415.5,483.5C 412.863,484.621 410.196,484.621 407.5,483.5C 402.429,484.887 397.263,485.553 392,485.5C 383.83,484.875 375.663,484.208 367.5,483.5C 361.944,483.528 356.611,484.194 351.5,485.5C 330.31,485.184 308.977,484.85 287.5,484.5C 269.998,483.24 252.498,483.24 235,484.5C 221.724,483.803 209.058,483.136 197,482.5C 194.583,483.998 191.917,484.665 189,484.5C 184.342,484.05 179.675,483.716 175,483.5C 153.855,485.088 132.688,485.588 111.5,485C 105.307,481.467 98.6401,479.967 91.5,480.5C 91.5792,481.93 91.2458,483.264 90.5,484.5C 91.7287,485.281 93.062,485.781 94.5,486C 115.936,487.903 137.269,489.07 158.5,489.5C 135.5,489.5 112.5,489.5 89.5,489.5C 60.4349,486.077 38.1016,472.077 22.5,447.5C 22.2431,443.482 21.2431,439.649 19.5,436C 21.3879,432.211 20.3879,431.045 16.5,432.5C 15.4168,428.078 14.0834,423.745 12.5,419.5C 12.7093,418.914 13.0426,418.414 13.5,418C 11.9471,415.345 10.7804,412.512 10,409.5C 9.33333,349.833 9.33333,290.167 10,230.5C 10.1173,227.496 10.9507,224.829 12.5,222.5C 14.6016,217.614 16.7683,212.614 19,207.5C 21.1087,206.965 21.6087,205.965 20.5,204.5C 20.8645,202.267 21.8645,200.434 23.5,199C 23.0426,198.586 22.7093,198.086 22.5,197.5C 27.8302,191.953 28.8302,192.787 25.5,200C 26.6469,202.085 25.9803,203.585 23.5,204.5C 24.0253,205.192 24.6919,205.692 25.5,206C 24.7471,207.487 23.9138,207.654 23,206.5C 22.3605,209.112 21.1938,211.446 19.5,213.5C 19.8457,214.696 20.3457,214.696 21,213.5C 21.6667,214.5 21.6667,215.5 21,216.5C 19.5064,215.253 18.0064,215.253 16.5,216.5C 17.1062,218.709 17.7728,220.876 18.5,223C 17.7046,227.843 16.7046,232.676 15.5,237.5C 16.6495,248.797 16.6495,260.131 15.5,271.5C 17.0106,302.202 18.0106,332.202 18.5,361.5 Z"/></g>
<g><path style="opacity:1" fill="#aabaa8" d="M 20.5,392.5 C 19.5128,397.305 19.1795,402.305 19.5,407.5C 18.3475,401.681 18.1808,395.681 19,389.5C 20.0386,390.244 20.5386,391.244 20.5,392.5 Z"/></g>
<g><path style="opacity:1" fill="#2f4b2b" d="M 469.5,451.5 C 469.423,452.75 468.756,453.583 467.5,454C 467.833,454.333 468.167,454.667 468.5,455C 467.167,455.667 465.833,456.333 464.5,457C 464.833,457.333 465.167,457.667 465.5,458C 463.845,459.444 463.178,461.278 463.5,463.5C 460.05,462.756 458.384,464.09 458.5,467.5C 455.166,467.527 452.499,469.193 450.5,472.5C 447.56,473.304 444.893,474.637 442.5,476.5C 440.426,474.172 439.426,474.839 439.5,478.5C 435.816,480.577 431.983,482.577 428,484.5C 427.333,483.833 426.667,483.167 426,482.5C 418.589,487.276 410.589,488.61 402,486.5C 400.933,487.191 399.766,487.691 398.5,488C 318.43,488.17 238.43,488.67 158.5,489.5C 137.269,489.07 115.936,487.903 94.5,486C 93.062,485.781 91.7287,485.281 90.5,484.5C 91.2458,483.264 91.5792,481.93 91.5,480.5C 98.6401,479.967 105.307,481.467 111.5,485C 132.688,485.588 153.855,485.088 175,483.5C 179.675,483.716 184.342,484.05 189,484.5C 191.917,484.665 194.583,483.998 197,482.5C 209.058,483.136 221.724,483.803 235,484.5C 252.498,483.24 269.998,483.24 287.5,484.5C 282.389,485.806 277.056,486.472 271.5,486.5C 259.495,485.357 247.495,485.357 235.5,486.5C 248.167,486.833 260.833,487.167 273.5,487.5C 304.811,487.053 336.144,486.887 367.5,487C 368.167,486.667 368.833,486.333 369.5,486C 363.509,485.501 357.509,485.334 351.5,485.5C 356.611,484.194 361.944,483.528 367.5,483.5C 375.663,484.208 383.83,484.875 392,485.5C 397.263,485.553 402.429,484.887 407.5,483.5C 410.196,484.621 412.863,484.621 415.5,483.5C 416.145,482.268 416.311,480.935 416,479.5C 416.414,479.957 416.914,480.291 417.5,480.5C 420.982,479.921 423.648,478.255 425.5,475.5C 433.753,471.706 441.753,467.372 449.5,462.5C 450.222,462.918 450.722,463.584 451,464.5C 456.832,459.393 461.499,454.06 465,448.5C 466.067,447.809 467.234,447.309 468.5,447C 467.346,446.086 467.513,445.253 469,444.5C 474.077,447.763 473.577,449.929 467.5,451C 468.094,451.464 468.761,451.631 469.5,451.5 Z"/></g>
<g><path style="opacity:1" fill="#2c4e2b" d="M 287.5,484.5 C 308.977,484.85 330.31,485.184 351.5,485.5C 357.509,485.334 363.509,485.501 369.5,486C 368.833,486.333 368.167,486.667 367.5,487C 336.144,486.887 304.811,487.053 273.5,487.5C 260.833,487.167 248.167,486.833 235.5,486.5C 247.495,485.357 259.495,485.357 271.5,486.5C 277.056,486.472 282.389,485.806 287.5,484.5 Z"/></g>
<g><path style="opacity:1" fill="#233123" d="M 469.5,451.5 C 470.222,451.918 470.722,452.584 471,453.5C 471.417,452.244 472.25,451.577 473.5,451.5C 470.688,457.327 466.688,462.327 461.5,466.5C 446.035,479.267 428.368,487.101 408.5,490C 301.999,490.833 195.666,490.666 89.5,489.5C 112.5,489.5 135.5,489.5 158.5,489.5C 238.43,488.67 318.43,488.17 398.5,488C 399.766,487.691 400.933,487.191 402,486.5C 410.589,488.61 418.589,487.276 426,482.5C 426.667,483.167 427.333,483.833 428,484.5C 431.983,482.577 435.816,480.577 439.5,478.5C 439.426,474.839 440.426,474.172 442.5,476.5C 444.893,474.637 447.56,473.304 450.5,472.5C 452.499,469.193 455.166,467.527 458.5,467.5C 458.384,464.09 460.05,462.756 463.5,463.5C 463.178,461.278 463.845,459.444 465.5,458C 465.167,457.667 464.833,457.333 464.5,457C 465.833,456.333 467.167,455.667 468.5,455C 468.167,454.667 467.833,454.333 467.5,454C 468.756,453.583 469.423,452.75 469.5,451.5 Z"/></g>
</svg>
