<?xml version="1.0" encoding="UTF-8"?>
<!-- Generator: visioncortex VTracer 0.6.4 -->
<svg version="1.1" xmlns="http://www.w3.org/2000/svg" width="123" height="123">
<path d="M0 0 C40.59 0 81.18 0 123 0 C123 40.59 123 81.18 123 123 C82.41 123 41.82 123 0 123 C0 82.41 0 41.82 0 0 Z " fill="#BD7D53" transform="translate(0,0)"/>
<path d="M0 0 C6.6 0 13.2 0 20 0 C17.77 5.57 14.86 8.79 10.9 13.18 C8.68 16.47 8.43 18.11 9 22 C12.18 25.28 15.91 27.05 20 29 C21 30 21 30 21.25 33.38 C20.97 37.4 20.67 37.45 18 40 C17.85 42.56 17.85 42.56 19 45 C21.46 46.84 21.46 46.84 24 48 C23.47 48.77 23.47 48.77 22.94 49.56 C21.57 53.13 21.94 55.36 23 59 C25.87 60.89 25.87 60.89 29 62 C31 64 31 64 31.23 65.88 C31.21 66.93 31.21 66.93 31.19 68 C31.18 68.7 31.17 69.4 31.17 70.12 C31 72 31 72 30 74 C29.56 77.85 29.86 79.73 31.69 83.19 C34.1 86.12 35.48 87.59 39 89 C45.19 89.58 50.73 88.55 56.69 87 C75.75 82.44 75.75 82.44 83.94 86.5 C95.68 96.09 101.27 109.24 107 123 C71.69 123 36.38 123 0 123 C0 82.41 0 41.82 0 0 Z " fill="#FEFEFE" transform="translate(0,0)"/>
<path d="M0 0 C19.47 0 38.94 0 59 0 C58.34 0.99 57.68 1.98 57 3 C56.34 3 55.68 3 55 3 C54.77 3.64 54.55 4.28 54.31 4.94 C53 7 53 7 50.38 7.75 C49.59 7.83 48.81 7.92 48 8 C48 8.66 48 9.32 48 10 C47.01 10.33 46.02 10.66 45 11 C44.32 11.68 44.32 11.68 43.62 12.38 C42 14 42 14 39.62 15.31 C34.46 18.63 32 21.98 30.69 27.88 C30.44 29.25 30.21 30.62 30 32 C30.99 32.33 31.98 32.66 33 33 C34.19 35.06 34.19 35.06 35 37 C35.66 36.34 36.32 35.68 37 35 C39.25 34.77 39.25 34.77 42.01 34.8 C42.99 34.81 43.98 34.82 45 34.82 C46.03 34.84 47.06 34.86 48.12 34.88 C49.17 34.88 50.21 34.89 51.28 34.9 C53.85 34.93 56.43 34.96 59 35 C59.33 34.01 59.66 33.02 60 32 C64.62 31.67 69.24 31.34 74 31 C74.33 29.35 74.66 27.7 75 26 C76.65 26 78.3 26 80 26 C80 25.34 80 24.68 80 24 C83.03 23.77 85.97 23.64 89 24 C91.06 26 91.06 26 92 28 C91.53 28.76 91.05 29.53 90.56 30.31 C88.9 32.96 88.9 32.96 88 36 C86.52 36.49 86.52 36.49 85 37 C84.69 37.78 84.38 38.57 84.06 39.38 C82.84 42.4 81.6 43.16 79 45 C78.67 45.99 78.34 46.98 78 48 C74.94 49.19 74.94 49.19 72 50 C72 50.66 72 51.32 72 52 C70.57 53.51 70.57 53.51 68.69 55.12 C68.07 55.66 67.46 56.2 66.82 56.76 C65 58 65 58 62 58 C62 58.66 62 59.32 62 60 C60.02 59.51 60.02 59.51 58 59 C57.67 59.99 57.34 60.98 57 62 C54.1 64.04 51.49 65.35 48 66 C48 66.66 48 67.32 48 68 C47.01 68.33 46.02 68.66 45 69 C44.67 69.66 44.34 70.32 44 71 C42.68 71 41.36 71 40 71 C40 71.66 40 72.32 40 73 C38.02 73.5 38.02 73.5 36 74 C36 74.66 36 75.32 36 76 C28.41 80.4 21 84.03 12 83 C10.18 81.69 10.18 81.69 9 80 C8.75 76.9 8.6 74.8 10 72 C10.32 67.97 10.32 67.97 10 64 C8.04 61.9 6.51 61.17 3.81 60.25 C2 59 2 59 1.06 55.62 C1 52 1 52 2.44 49.56 C2.95 49.05 3.47 48.53 4 48 C3.22 47.73 2.43 47.46 1.62 47.19 C-1 46 -1 46 -3 43 C-2.62 40.81 -2.62 40.81 -2 39 C-1.34 39 -0.68 39 0 39 C0 36.03 0 33.06 0 30 C-0.92 29.51 -0.92 29.51 -1.86 29.01 C-3.08 28.36 -3.08 28.36 -4.31 27.69 C-5.11 27.26 -5.91 26.83 -6.74 26.39 C-10.55 24.05 -10.55 24.05 -12 22 C-12.59 18.95 -12.56 16.96 -10.97 14.24 C-9.57 12.34 -8.09 10.54 -6.56 8.75 C-2.94 4.61 -2.94 4.61 0 0 Z " fill="#D99A6E" transform="translate(20,0)"/>
<path d="M0 0 C0.97 0.01 1.94 0.01 2.94 0.02 C6.03 0.05 9.11 0.11 12.2 0.18 C14.3 0.2 16.39 0.22 18.49 0.24 C23.62 0.29 28.75 0.39 33.89 0.49 C33.89 10.39 33.89 20.29 33.89 30.49 C29.89 28.49 29.89 28.49 28.89 27.49 C25.42 35.9 25.42 35.9 21.89 44.49 C21.23 44.49 20.57 44.49 19.89 44.49 C19.64 45.21 19.39 45.93 19.14 46.68 C17.76 49.76 16.16 52 13.89 54.49 C13.23 54.49 12.57 54.49 11.89 54.49 C11.89 55.15 11.89 55.81 11.89 56.49 C10.24 56.82 8.59 57.15 6.89 57.49 C6.89 58.15 6.89 58.81 6.89 59.49 C3.89 61.49 3.89 61.49 0.89 61.49 C0.89 62.15 0.89 62.81 0.89 63.49 C-1.21 64.66 -3.32 65.83 -5.43 66.99 C-6.02 67.32 -6.62 67.66 -7.23 68 C-10.07 69.56 -11.82 70.49 -15.11 70.49 C-15.11 71.15 -15.11 71.81 -15.11 72.49 C-15.77 72.49 -16.43 72.49 -17.11 72.49 C-17.11 73.15 -17.11 73.81 -17.11 74.49 C-18.43 74.49 -19.75 74.49 -21.11 74.49 C-21.11 75.15 -21.11 75.81 -21.11 76.49 C-22.88 77.33 -24.65 78.16 -26.43 78.99 C-27.9 79.68 -27.9 79.68 -29.41 80.39 C-32.11 81.49 -32.11 81.49 -35.11 81.49 C-35.11 82.15 -35.11 82.81 -35.11 83.49 C-41.2 87.1 -46.02 88.55 -53.11 87.49 C-56.24 85.99 -56.24 85.99 -58.11 84.49 C-57.62 83.5 -57.62 83.5 -57.11 82.49 C-54.71 82.25 -54.71 82.25 -51.61 82.18 C-46.09 81.83 -42.55 80.57 -37.95 77.55 C-36.11 76.49 -36.11 76.49 -33.11 76.49 C-33.11 75.83 -33.11 75.17 -33.11 74.49 C-31.13 73.99 -31.13 73.99 -29.11 73.49 C-29.11 72.83 -29.11 72.17 -29.11 71.49 C-27.79 71.49 -26.47 71.49 -25.11 71.49 C-24.62 70 -24.62 70 -24.11 68.49 C-23.12 68.49 -22.13 68.49 -21.11 68.49 C-21.11 67.83 -21.11 67.17 -21.11 66.49 C-18.77 64.93 -16.41 63.63 -13.86 62.43 C-11.93 61.61 -11.93 61.61 -11.11 59.49 C-9.79 59.82 -8.47 60.15 -7.11 60.49 C-7.11 59.83 -7.11 59.17 -7.11 58.49 C-6.16 58.24 -5.22 57.99 -4.24 57.74 C-1.03 56.8 -1.03 56.8 0.26 54.36 C0.47 53.74 0.67 53.13 0.89 52.49 C1.55 52.49 2.21 52.49 2.89 52.49 C2.89 51.83 2.89 51.17 2.89 50.49 C3.86 50.24 4.83 49.99 5.82 49.74 C7.34 49.12 7.34 49.12 8.89 48.49 C9.56 46.55 9.56 46.55 9.89 44.49 C10.53 44.01 11.17 43.54 11.82 43.05 C14.34 41.14 14.93 39.45 15.89 36.49 C16.88 36.49 17.87 36.49 18.89 36.49 C19.07 35.1 19.07 35.1 19.26 33.68 C19.89 30.49 19.89 30.49 21.89 27.49 C19.49 25.09 18.55 25.15 15.26 24.86 C14.44 24.79 13.63 24.71 12.79 24.64 C12.16 24.59 11.53 24.54 10.89 24.49 C10.89 25.15 10.89 25.81 10.89 26.49 C9.24 26.82 7.59 27.15 5.89 27.49 C5.89 29.14 5.89 30.79 5.89 32.49 C0.94 32.49 -4.01 32.49 -9.11 32.49 C-9.44 33.81 -9.77 35.13 -10.11 36.49 C-10.77 36.48 -11.43 36.47 -12.1 36.46 C-15.06 36.42 -18.03 36.39 -20.99 36.36 C-22.02 36.35 -23.05 36.33 -24.12 36.31 C-25.1 36.31 -26.09 36.3 -27.11 36.29 C-28.02 36.28 -28.93 36.27 -29.87 36.26 C-32.32 36.27 -32.32 36.27 -34.11 38.49 C-34.79 37.28 -34.79 37.28 -35.49 36.05 C-36.86 33.4 -36.86 33.4 -39.11 32.49 C-39.22 25.78 -37.68 21.92 -33.03 17.07 C-30.59 15.05 -28.16 14.29 -25.11 13.49 C-24.78 12.5 -24.45 11.51 -24.11 10.49 C-23.12 10.49 -22.13 10.49 -21.11 10.49 C-21.11 9.83 -21.11 9.17 -21.11 8.49 C-20.23 8.1 -19.34 7.7 -18.43 7.3 C-15.02 5.71 -15.02 5.71 -13.04 2.91 C-8.8 -0.59 -5.33 -0.15 0 0 Z " fill="#CF9063" transform="translate(89.11328125,-0.48828125)"/>
<path d="M0 0 C15.84 0 31.68 0 48 0 C48 0.66 48 1.32 48 2 C46.35 2.33 44.7 2.66 43 3 C43 3.66 43 4.32 43 5 C42.34 5 41.68 5 41 5 C41 5.66 41 6.32 41 7 C40.01 7 39.02 7 38 7 C37.77 7.78 37.55 8.57 37.31 9.38 C36 12 36 12 33.38 13.31 C32.59 13.54 31.81 13.77 31 14 C31 14.66 31 15.32 31 16 C30.02 17.02 29.02 18.02 28 19 C24.46 22.84 24.46 22.84 24 28 C23.34 28 22.68 28 22 28 C22.21 28.74 22.41 29.48 22.62 30.25 C23.07 33.5 22.46 34.16 21 37 C20.85 38.37 20.72 39.75 20.62 41.12 C20 45 20 45 18.31 46.56 C13.12 47.55 8.94 45.8 4.62 43 C0.21 39.82 0.21 39.82 -0.64 36.54 C-0.63 34.27 -0.45 32.21 0 30 C-0.92 29.51 -0.92 29.51 -1.86 29.01 C-3.08 28.36 -3.08 28.36 -4.31 27.69 C-5.11 27.26 -5.91 26.83 -6.74 26.39 C-10.55 24.05 -10.55 24.05 -12 22 C-12.59 18.95 -12.56 16.96 -10.97 14.24 C-9.57 12.34 -8.09 10.54 -6.56 8.75 C-2.94 4.61 -2.94 4.61 0 0 Z " fill="#E8AE82" transform="translate(20,0)"/>
<path d="M0 0 C0.33 0 0.66 0 1 0 C1 3.96 1 7.92 1 12 C2.32 12.66 3.64 13.32 5 14 C5 14.66 5 15.32 5 16 C6.32 16 7.64 16 9 16 C9 16.66 9 17.32 9 18 C10.05 17.81 11.1 17.63 12.19 17.44 C15.57 17.05 17.76 17.12 21 18 C21 18.66 21 19.32 21 20 C22.32 20 23.64 20 25 20 C25 22.64 25 25.28 25 28 C24.34 28 23.68 28 23 28 C23 28.66 23 29.32 23 30 C22.34 30 21.68 30 21 30 C21 30.66 21 31.32 21 32 C21.99 31.34 22.98 30.68 24 30 C27.64 28.88 31.3 27.89 35 27 C33.74 30.79 32.48 31.22 29 33 C26.69 33.69 26.69 33.69 25 34 C25 34.66 25 35.32 25 36 C24.01 36.33 23.02 36.66 22 37 C21.5 37.99 21.5 37.99 21 39 C19.68 39 18.36 39 17 39 C17 39.66 17 40.32 17 41 C15.02 41.5 15.02 41.5 13 42 C13 42.66 13 43.32 13 44 C5.41 48.4 -2 52.03 -11 51 C-12.82 49.69 -12.82 49.69 -14 48 C-14.25 44.9 -14.4 42.8 -13 40 C-12.68 35.97 -12.68 35.97 -13 32 C-14.96 29.9 -16.49 29.17 -19.19 28.25 C-21 27 -21 27 -21.94 23.62 C-22 20 -22 20 -20.56 17.56 C-20.05 17.05 -19.53 16.53 -19 16 C-19.78 15.73 -20.57 15.46 -21.38 15.19 C-24 14 -24 14 -26 11 C-25.62 8.81 -25.62 8.81 -25 7 C-21.46 7.63 -19.14 9.12 -16.19 11.12 C-12.89 13.18 -10.78 14.48 -6.88 13.88 C-5.93 13.59 -4.98 13.3 -4 13 C-3.9 11.78 -3.79 10.57 -3.69 9.31 C-3.23 5.6 -2.28 3.04 0 0 Z " fill="#DE9F73" transform="translate(43,32)"/>
<path d="M0 0 C1.46 0.01 2.91 0.02 4.37 0.03 C7.91 0.05 11.46 0.08 15 0.12 C15.39 8.72 15.39 8.72 12.31 12.62 C11.81 13.3 11.31 13.97 10.8 14.66 C8.45 16.58 6.96 16.41 4 16.12 C4 15.46 4 14.8 4 14.12 C-1.22 15.35 -1.22 15.35 -5.62 18.31 C-6.41 18.91 -7.19 19.51 -8 20.12 C-9.68 19.85 -11.34 19.5 -13 19.12 C-16.09 19.48 -19.09 20.01 -22 21.12 C-22.66 22.11 -23.32 23.11 -24 24.12 C-24.99 24.12 -25.98 24.12 -27 24.12 C-27 24.79 -27 25.45 -27 26.12 C-27.99 26.45 -28.98 26.79 -30 27.12 C-30.66 27.79 -31.32 28.45 -32 29.12 C-34.12 29.75 -34.12 29.75 -36 30.12 C-36 29.14 -36 28.14 -36 27.12 C-37.32 27.12 -38.64 27.12 -40 27.12 C-40 26.14 -40 25.14 -40 24.12 C-40.66 24.12 -41.32 24.12 -42 24.12 C-42 22.8 -42 21.48 -42 20.12 C-40.36 19.08 -38.7 18.08 -37 17.12 C-36.67 16.14 -36.34 15.14 -36 14.12 C-35.34 14.12 -34.68 14.12 -34 14.12 C-34 13.46 -34 12.8 -34 12.12 C-32.79 11.41 -32.79 11.41 -31.56 10.69 C-28.71 9.33 -28.71 9.33 -28 6.12 C-27.34 6.12 -26.68 6.12 -26 6.12 C-25.84 5.51 -25.67 4.89 -25.5 4.25 C-23.6 1.56 -21.87 1.22 -18.73 0.5 C-12.54 -0.36 -6.24 -0.08 0 0 Z " fill="#CC8B5F" transform="translate(108,-0.125)"/>
<path d="M0 0 C1.32 0 2.64 0 4 0 C4 26.07 4 52.14 4 79 C1.03 79 -1.94 79 -5 79 C-5.05 72.62 -5.09 66.24 -5.11 59.85 C-5.12 57.69 -5.13 55.53 -5.15 53.36 C-5.25 40.4 -4.92 27.84 -3 15 C-2.81 13.67 -2.62 12.34 -2.43 11.01 C-1.2 2.39 -1.2 2.39 0 0 Z " fill="#C5865A" transform="translate(119,44)"/>
<path d="M0 0 C3.63 0 7.26 0 11 0 C10.34 0.99 9.68 1.98 9 3 C8.34 3 7.68 3 7 3 C6.77 3.64 6.55 4.28 6.31 4.94 C5 7 5 7 2.38 7.75 C1.2 7.87 1.2 7.87 0 8 C0 8.66 0 9.32 0 10 C-0.99 10.33 -1.98 10.66 -3 11 C-3.68 11.68 -3.68 11.68 -4.38 12.38 C-6 14 -6 14 -8.44 15.38 C-11.17 16.91 -11.17 16.91 -13.12 19.69 C-13.74 20.45 -14.36 21.21 -15 22 C-15.99 22 -16.98 22 -18 22 C-19.13 25.61 -19.1 28.98 -19.06 32.75 C-19.05 34.51 -19.05 34.51 -19.04 36.3 C-19.02 37.19 -19.01 38.08 -19 39 C-18.01 39.33 -17.02 39.66 -16 40 C-16 40.66 -16 41.32 -16 42 C-12.04 42 -8.08 42 -4 42 C-4 42.33 -4 42.66 -4 43 C-6.64 43 -9.28 43 -12 43 C-12 44.65 -12 46.3 -12 48 C-4.08 48 3.84 48 12 48 C12 46.68 12 45.36 12 44 C14.64 44 17.28 44 20 44 C19.39 47.56 18.42 50.68 17 54 C15.35 54 13.7 54 12 54 C11.67 54.99 11.34 55.98 11 57 C10.01 56.67 9.02 56.34 8 56 C8 56.66 8 57.32 8 58 C6.56 58.82 5.13 59.63 3.69 60.44 C2.89 60.89 2.09 61.34 1.26 61.81 C-1 63 -1 63 -4 64 C-4 63.34 -4 62.68 -4 62 C-3.34 62 -2.68 62 -2 62 C-2 61.34 -2 60.68 -2 60 C-1.34 60 -0.68 60 0 60 C0 57.36 0 54.72 0 52 C-1.32 52 -2.64 52 -4 52 C-4 51.34 -4 50.68 -4 50 C-7.96 50 -11.92 50 -16 50 C-16 49.34 -16 48.68 -16 48 C-17.32 48 -18.64 48 -20 48 C-22.23 46.39 -22.23 46.39 -24 44 C-24.39 40.98 -24.39 40.98 -24.25 37.75 C-24.21 36.67 -24.18 35.59 -24.14 34.48 C-24.07 33.25 -24.07 33.25 -24 32 C-24.66 32 -25.32 32 -26 32 C-26 30.68 -26 29.36 -26 28 C-25.34 28 -24.68 28 -24 28 C-24.25 27.26 -24.49 26.52 -24.75 25.75 C-24.83 24.84 -24.91 23.93 -25 23 C-23.19 20.88 -23.19 20.88 -21 19 C-20.34 18.01 -19.68 17.02 -19 16 C-18.34 16 -17.68 16 -17 16 C-17 15.34 -17 14.68 -17 14 C-16.22 13.77 -15.43 13.55 -14.62 13.31 C-11.78 12.22 -11.78 12.22 -10.69 9.38 C-10.46 8.59 -10.23 7.81 -10 7 C-9.01 7 -8.02 7 -7 7 C-7 6.34 -7 5.68 -7 5 C-6.34 5 -5.68 5 -5 5 C-5 4.34 -5 3.68 -5 3 C-3.35 2.67 -1.7 2.34 0 2 C0 1.34 0 0.68 0 0 Z " fill="#DA9B6F" transform="translate(68,0)"/>
<path d="M0 0 C1.23 3.7 0.31 5.05 -1.35 8.44 C-1.71 9.14 -2.07 9.84 -2.44 10.56 C-2.81 11.28 -3.17 12 -3.55 12.74 C-9.41 23.87 -17.19 31.37 -27 39 C-27.92 39.88 -27.92 39.88 -28.86 40.78 C-32.14 42.65 -35.41 42.23 -39.06 42.06 C-45.95 41.89 -52.27 42.37 -59 44 C-56.02 35.73 -42.44 31.17 -35.02 27.51 C-34.41 27.21 -33.79 26.9 -33.16 26.59 C-30.05 25.06 -26.94 23.54 -23.81 22.05 C-17.4 18.93 -12.23 15.84 -7 11 C-6.34 11 -5.68 11 -5 11 C-3.13 7.41 -1.57 3.72 0 0 Z " fill="#965733" transform="translate(114,44)"/>
<path d="M0 0 C0.62 0.8 1.24 1.61 1.88 2.44 C3.74 5.04 3.74 5.04 6 6 C6 6.99 6 7.98 6 9 C4.35 8.67 2.7 8.34 1 8 C0.86 8.87 0.71 9.73 0.56 10.62 C0.04 13.75 -0.48 16.87 -1 20 C-1.66 20 -2.32 20 -3 20 C-3.23 21.05 -3.45 22.1 -3.69 23.19 C-4.86 27.23 -6.8 29.23 -10 32 C-11.33 33.32 -11.33 33.32 -12.7 34.66 C-18.52 39.65 -25.81 42.59 -32.69 45.88 C-49.69 53.11 -49.69 53.11 -63 65 C-68.83 66.56 -75.58 67.19 -81.06 64.5 C-81.7 64 -82.34 63.51 -83 63 C-80.52 61.76 -79.01 62 -76.25 62.12 C-71.72 62.19 -68.94 61.36 -65 59 C-64.34 59 -63.68 59 -63 59 C-63 58.34 -63 57.68 -63 57 C-61.42 56.35 -59.83 55.71 -58.25 55.06 C-57.37 54.7 -56.49 54.34 -55.58 53.97 C-53.39 53.15 -51.28 52.51 -49 52 C-49 51.34 -49 50.68 -49 50 C-47.68 50 -46.36 50 -45 50 C-45 49.34 -45 48.68 -45 48 C-44.34 48 -43.68 48 -43 48 C-43 47.34 -43 46.68 -43 46 C-40.71 44.83 -38.42 43.66 -36.12 42.5 C-35.47 42.17 -34.82 41.83 -34.15 41.49 C-29.23 39 -29.23 39 -27 39 C-27 38.34 -27 37.68 -27 37 C-25.02 36.34 -23.04 35.68 -21 35 C-21 34.34 -21 33.68 -21 33 C-18.53 32.51 -18.53 32.51 -16 32 C-16 31.34 -16 30.68 -16 30 C-14.33 28.33 -12.67 26.67 -11 25 C-10.44 24.07 -9.89 23.14 -9.31 22.19 C-8.88 21.47 -8.45 20.74 -8 20 C-7.34 20 -6.68 20 -6 20 C-5.81 19.32 -5.61 18.65 -5.41 17.95 C-5.02 16.62 -5.02 16.62 -4.62 15.25 C-4.24 13.93 -4.24 13.93 -3.85 12.58 C-3.08 10.23 -2.1 8.2 -1 6 C-0.62 4.01 -0.27 2.01 0 0 Z " fill="#B8794F" transform="translate(117,24)"/>
<path d="M0 0 C2.97 0 5.94 0 9 0 C5 2 5 2 2.31 3 C-0.15 3.77 -0.15 3.77 -1 6 C-1.66 6 -2.32 6 -3 6 C-3.09 6.93 -3.09 6.93 -3.19 7.88 C-4 10 -4 10 -6.56 11.25 C-7.37 11.5 -8.17 11.74 -9 12 C-9 12.66 -9 13.32 -9 14 C-9.66 14 -10.32 14 -11 14 C-11.06 14.62 -11.12 15.24 -11.19 15.88 C-12 18 -12 18 -14.56 19.25 C-15.37 19.5 -16.17 19.75 -17 20 C-17 21.32 -17 22.64 -17 24 C-16.34 24 -15.68 24 -15 24 C-15 24.99 -15 25.98 -15 27 C-13.68 27 -12.36 27 -11 27 C-10.67 27.66 -10.34 28.32 -10 29 C-9.24 28.5 -8.47 28.01 -7.69 27.5 C-5 26 -5 26 -2 26 C-2 25.34 -2 24.68 -2 24 C-1.01 24 -0.02 24 1 24 C1.22 23.37 1.45 22.73 1.68 22.08 C3 20 3 20 5.38 19.17 C6.29 19.03 7.19 18.89 8.12 18.75 C9.04 18.6 9.95 18.45 10.88 18.3 C11.58 18.2 12.28 18.1 13 18 C13.5 19.98 13.5 19.98 14 22 C13.01 22 12.02 22 11 22 C10.85 22.93 10.85 22.93 10.69 23.88 C10 26 10 26 7 28 C5.91 27.98 4.81 27.96 3.69 27.94 C-0.42 28.01 -2.57 28.79 -6 31 C-6.33 31.99 -6.66 32.98 -7 34 C-9.77 34.05 -12.54 34.09 -15.31 34.12 C-16.1 34.14 -16.88 34.16 -17.69 34.18 C-18.83 34.19 -18.83 34.19 -19.99 34.2 C-21.03 34.21 -21.03 34.21 -22.1 34.23 C-24 34 -24 34 -27 32 C-26.34 27.65 -24.93 23.94 -23 20 C-22.01 19.34 -21.02 18.68 -20 18 C-19.67 17.01 -19.34 16.02 -19 15 C-17.04 13.18 -17.04 13.18 -14.62 11.31 C-13.83 10.69 -13.04 10.07 -12.23 9.43 C-10 8 -10 8 -7 8 C-7 7.34 -7 6.68 -7 6 C-5.01 4.65 -3.01 3.31 -1 2 C-0.67 1.34 -0.34 0.68 0 0 Z " fill="#CB8B5F" transform="translate(83,0)"/>
<path d="M0 0 C9.57 0 19.14 0 29 0 C29 1.32 29 2.64 29 4 C28.32 4.04 27.65 4.07 26.95 4.11 C26.06 4.18 25.17 4.24 24.25 4.31 C23.37 4.37 22.49 4.43 21.58 4.49 C18.64 5.07 17.31 6.15 15 8 C12.69 8.73 10.35 9.41 8 10 C8 10.66 8 11.32 8 12 C5 14 5 14 2 14 C2 14.66 2 15.32 2 16 C-4.25 18.87 -9.1 20.51 -16 20 C-15.33 15.29 -13.93 11.65 -10.25 8.5 C-9.51 8.01 -8.77 7.51 -8 7 C-6.77 6.15 -5.54 5.3 -4.31 4.44 C-3.71 4.02 -3.11 3.61 -2.49 3.18 C-0.85 2.05 -0.85 2.05 0 0 Z " fill="#C48156" transform="translate(92,0)"/>
<path d="M0 0 C0.99 0 1.98 0 3 0 C3.4 6.46 2.59 11.06 0 17 C0.66 17 1.32 17 2 17 C1.67 18.65 1.34 20.3 1 22 C0.01 22.33 -0.98 22.66 -2 23 C-2 22.34 -2 21.68 -2 21 C-2.66 21 -3.32 21 -4 21 C-4 23.64 -4 26.28 -4 29 C-4.66 29 -5.32 29 -6 29 C-6 29.66 -6 30.32 -6 31 C-7.32 31 -8.64 31 -10 31 C-10.33 31.66 -10.66 32.32 -11 33 C-11.66 32.34 -12.32 31.68 -13 31 C-13.45 31.45 -13.91 31.91 -14.38 32.38 C-15.58 33.58 -16.79 34.79 -18 36 C-18.33 36.99 -18.66 37.98 -19 39 C-22.96 35.53 -22.96 35.53 -27 32 C-25.05 28.1 -24.16 27.08 -20.81 24.62 C-20.01 24.01 -19.2 23.4 -18.37 22.77 C-16.96 21.72 -15.55 20.67 -14.13 19.64 C-7.89 14.76 -2.51 7.52 0 0 Z " fill="#B9784E" transform="translate(110,55)"/>
<path d="M0 0 C0.66 0.33 1.32 0.66 2 1 C1.34 3.97 0.68 6.94 0 10 C0.99 10.33 1.98 10.66 3 11 C4.19 13.06 4.19 13.06 5 15 C5.66 14.34 6.32 13.68 7 13 C9.25 12.77 9.25 12.77 12.01 12.8 C12.99 12.81 13.98 12.82 15 12.82 C16.54 12.85 16.54 12.85 18.12 12.88 C19.17 12.88 20.21 12.89 21.28 12.9 C23.85 12.93 26.43 12.96 29 13 C29.33 12.01 29.66 11.02 30 10 C34.62 9.67 39.24 9.34 44 9 C44.33 7.35 44.66 5.7 45 4 C46.65 4 48.3 4 50 4 C50 3.34 50 2.68 50 2 C52.64 2 55.28 2 58 2 C58 2.99 58 3.98 58 5 C55.06 7.12 55.06 7.12 52 9 C51.67 9.33 51.34 9.66 51 10 C49.33 10.04 47.67 10.04 46 10 C45.67 11.32 45.34 12.64 45 14 C44.01 13.67 43.02 13.34 42 13 C41.67 13.66 41.34 14.32 41 15 C38.69 14.67 36.38 14.34 34 14 C34 15.32 34 16.64 34 18 C23.35 20.43 12.86 20.19 2 20 C2 19.34 2 18.68 2 18 C0.68 17.67 -0.64 17.34 -2 17 C-2.05 14.92 -2.09 12.83 -2.12 10.75 C-2.15 9.59 -2.17 8.43 -2.2 7.23 C-2.01 4.17 -1.61 2.56 0 0 Z " fill="#D59468" transform="translate(50,22)"/>
<path d="M0 0 C1.65 0.33 3.3 0.66 5 1 C5 4.63 5 8.26 5 12 C3.68 12 2.36 12 1 12 C0.71 14.15 0.42 16.29 0.12 18.44 C-0.04 19.63 -0.2 20.83 -0.37 22.06 C-0.46 22.79 -0.55 23.53 -0.65 24.29 C-0.92 26.35 -1.2 28.41 -1.49 30.47 C-3.22 43.14 -3.44 55.79 -3.62 68.56 C-3.66 70.75 -3.7 72.94 -3.74 75.12 C-3.84 80.42 -3.92 85.71 -4 91 C-4.99 91 -5.98 91 -7 91 C-6.97 88.95 -6.93 86.9 -6.9 84.85 C-6.79 82.98 -6.79 82.98 -8 82 C-8.1 79.91 -8.13 77.82 -8.13 75.73 C-8.13 74.45 -8.14 73.17 -8.14 71.85 C-8.13 71.17 -8.13 70.5 -8.13 69.81 C-8.13 67.77 -8.13 65.74 -8.14 63.7 C-8.14 62.41 -8.13 61.12 -8.13 59.8 C-8.13 58.61 -8.13 57.43 -8.13 56.21 C-8.01 53.34 -7.64 50.79 -7 48 C-6.8 46.56 -6.61 45.13 -6.44 43.69 C-6.29 42.47 -6.15 41.25 -6 40 C-6.66 40 -7.32 40 -8 40 C-7 36 -7 36 -6.44 34.19 C-5.59 29.96 -5.64 26.08 -7 22 C-6.33 19.94 -6.33 19.94 -5.25 17.56 C-2.82 11.85 -1.37 6.04 0 0 Z " fill="#C28257" transform="translate(118,32)"/>
<path d="M0 0 C0.66 0 1.32 0 2 0 C1.34 4.06 0.05 7.54 -1.56 11.31 C-2.02 12.38 -2.47 13.45 -2.94 14.55 C-3.47 15.76 -3.47 15.76 -4 17 C-4.66 17 -5.32 17 -6 17 C-6.37 18.08 -6.37 18.08 -6.75 19.19 C-8.12 22.28 -9.72 24.51 -12 27 C-12.66 27 -13.32 27 -14 27 C-14 27.66 -14 28.32 -14 29 C-15.65 29.33 -17.3 29.66 -19 30 C-19 30.66 -19 31.32 -19 32 C-22 34 -22 34 -25 34 C-25 34.66 -25 35.32 -25 36 C-27.1 37.17 -29.2 38.34 -31.31 39.5 C-31.91 39.83 -32.5 40.17 -33.12 40.51 C-35.96 42.07 -37.71 43 -41 43 C-41 43.66 -41 44.32 -41 45 C-41.66 45 -42.32 45 -43 45 C-43 45.66 -43 46.32 -43 47 C-44.32 47 -45.64 47 -47 47 C-47 47.66 -47 48.32 -47 49 C-48.77 49.84 -50.54 50.67 -52.31 51.5 C-53.3 51.96 -54.28 52.43 -55.3 52.91 C-58 54 -58 54 -61 54 C-61 54.66 -61 55.32 -61 56 C-67.09 59.61 -71.9 61.06 -79 60 C-82.12 58.5 -82.12 58.5 -84 57 C-83.67 56.34 -83.34 55.68 -83 55 C-82.34 55.33 -81.68 55.66 -81 56 C-71.4 57.13 -64.02 55.45 -56 50 C-55.34 49.01 -54.68 48.02 -54 47 C-52.35 46.28 -50.68 45.62 -49 45 C-47.29 44.06 -45.6 43.08 -43.94 42.06 C-43.1 41.56 -42.26 41.05 -41.4 40.54 C-39 39.04 -39 39.04 -36.83 37.35 C-34.88 35.91 -33.37 35.42 -31 35 C-31 34.34 -31 33.68 -31 33 C-30.2 32.73 -29.39 32.46 -28.56 32.19 C-27.29 31.6 -27.29 31.6 -26 31 C-25.5 29.52 -25.5 29.52 -25 28 C-22.93 27.27 -22.93 27.27 -20.44 26.81 C-19.61 26.65 -18.78 26.5 -17.93 26.33 C-17.3 26.22 -16.66 26.11 -16 26 C-16 25.34 -16 24.68 -16 24 C-15.26 23.42 -14.52 22.84 -13.75 22.25 C-7.96 17.51 -5.21 10.61 -2 4 C-1.34 2.67 -0.67 1.33 0 0 Z " fill="#C38457" transform="translate(115,27)"/>
<path d="M0 0 C0 0.66 0 1.32 0 2 C-1.65 2.33 -3.3 2.66 -5 3 C-5 3.66 -5 4.32 -5 5 C-5.66 5 -6.32 5 -7 5 C-7 5.66 -7 6.32 -7 7 C-7.99 7 -8.98 7 -10 7 C-10.23 7.78 -10.45 8.57 -10.69 9.38 C-12 12 -12 12 -14.62 13.31 C-15.41 13.54 -16.19 13.77 -17 14 C-17 14.66 -17 15.32 -17 16 C-17.98 17.02 -18.98 18.02 -20 19 C-23.54 22.84 -23.54 22.84 -24 28 C-24.66 28 -25.32 28 -26 28 C-25.79 28.74 -25.59 29.48 -25.38 30.25 C-24.93 33.5 -25.54 34.16 -27 37 C-27.15 38.37 -27.28 39.75 -27.38 41.12 C-28 45 -28 45 -29.69 46.56 C-32.73 47.14 -35.01 46.78 -38 46 C-38.66 45.34 -39.32 44.68 -40 44 C-39.34 44 -38.68 44 -38 44 C-38 42.68 -38 41.36 -38 40 C-37.34 40 -36.68 40 -36 40 C-35.73 38.99 -35.46 37.98 -35.19 36.94 C-34.11 33.13 -32.62 29.61 -31 26 C-30.34 26 -29.68 26 -29 26 C-28.34 24.02 -27.68 22.04 -27 20 C-26.34 20 -25.68 20 -25 20 C-24.84 19.15 -24.67 18.31 -24.5 17.44 C-22.69 13.3 -20.42 11.42 -16.97 8.61 C-15.01 7.07 -15.01 7.07 -13.46 5.43 C-9.69 1.73 -5.35 -0.65 0 0 Z " fill="#E1A476" transform="translate(68,0)"/>
<path d="M0 0 C-1.1 2.99 -1.68 3.85 -4.62 5.25 C-5.41 5.5 -6.19 5.75 -7 6 C-7 6.66 -7 7.32 -7 8 C-7.91 8.41 -8.81 8.82 -9.75 9.25 C-12.81 10.9 -14.62 12.53 -17 15 C-17.66 15 -18.32 15 -19 15 C-19.15 15.96 -19.15 15.96 -19.31 16.94 C-19.54 17.62 -19.77 18.3 -20 19 C-20.99 19.33 -21.98 19.66 -23 20 C-23.75 22.31 -24.41 24.65 -25 27 C-25.64 28.68 -26.3 30.35 -27 32 C-24.41 32.86 -22.66 33.18 -19.99 33.32 C-18.85 33.38 -18.85 33.38 -17.69 33.44 C-16.91 33.48 -16.12 33.52 -15.31 33.56 C-14.12 33.63 -14.12 33.63 -12.9 33.69 C-10.93 33.8 -8.97 33.9 -7 34 C-6.9 33.38 -6.79 32.76 -6.69 32.12 C-6 30 -6 30 -3 28 C-2.01 28 -1.02 28 0 28 C0.33 27.34 0.66 26.68 1 26 C1 26.66 1 27.32 1 28 C2.32 28 3.64 28 5 28 C5 28.66 5 29.32 5 30 C2.36 30.66 -0.28 31.32 -3 32 C-3.33 33.32 -3.66 34.64 -4 36 C-4.66 35.99 -5.31 35.98 -5.99 35.97 C-8.95 35.93 -11.91 35.9 -14.88 35.88 C-15.91 35.86 -16.94 35.84 -18 35.82 C-18.99 35.82 -19.98 35.81 -20.99 35.8 C-21.9 35.79 -22.81 35.78 -23.75 35.77 C-26.2 35.78 -26.2 35.78 -28 38 C-28.45 37.2 -28.91 36.39 -29.38 35.56 C-30.75 32.91 -30.75 32.91 -33 32 C-33.11 25.29 -31.57 21.44 -26.92 16.59 C-24.47 14.56 -22.05 13.8 -19 13 C-18.67 12.01 -18.34 11.02 -18 10 C-17.01 10 -16.02 10 -15 10 C-15 9.34 -15 8.68 -15 8 C-14.11 7.61 -13.23 7.22 -12.31 6.81 C-8.89 5.15 -8.89 5.15 -6.38 2.31 C-4 0 -4 0 0 0 Z " fill="#D09062" transform="translate(83,0)"/>
<path d="M0 0 C1.32 0 2.64 0 4 0 C4 1.32 4 2.64 4 4 C11.92 4 19.84 4 28 4 C28 2.68 28 1.36 28 0 C30.64 0 33.28 0 36 0 C35.39 3.56 34.42 6.68 33 10 C31.35 10 29.7 10 28 10 C27.67 10.99 27.34 11.98 27 13 C26.01 12.67 25.02 12.34 24 12 C24 12.66 24 13.32 24 14 C22.56 14.82 21.13 15.63 19.69 16.44 C18.89 16.89 18.09 17.34 17.26 17.81 C15 19 15 19 12 20 C12 19.34 12 18.68 12 18 C12.66 18 13.32 18 14 18 C14 17.34 14 16.68 14 16 C14.66 16 15.32 16 16 16 C16 13.36 16 10.72 16 8 C14.68 8 13.36 8 12 8 C12 7.34 12 6.68 12 6 C8.04 6 4.08 6 0 6 C0 4.02 0 2.04 0 0 Z " fill="#DB9C71" transform="translate(52,44)"/>
<path d="M0 0 C-3.16 3.26 -6.33 6.32 -10 9 C-10.66 9 -11.32 9 -12 9 C-12.12 9.62 -12.25 10.24 -12.38 10.88 C-13 13 -13 13 -15 15 C-15.64 17.07 -15.64 17.07 -16 19 C-10.5 18.53 -6.94 17.58 -2 15 C-0.68 15 0.64 15 2 15 C2 14.34 2 13.68 2 13 C2.66 13.33 3.32 13.66 4 14 C1.66 16.71 -0.4 18.31 -3.69 19.62 C-7.08 20.61 -7.08 20.61 -8 23 C-8.99 23 -9.98 23 -11 23 C-11 23.66 -11 24.32 -11 25 C-11.99 25.33 -12.98 25.66 -14 26 C-14.66 26.66 -15.32 27.32 -16 28 C-18.12 28.62 -18.12 28.62 -20 29 C-20 28.01 -20 27.02 -20 26 C-21.32 26 -22.64 26 -24 26 C-24 25.01 -24 24.02 -24 23 C-24.66 23 -25.32 23 -26 23 C-26 21.68 -26 20.36 -26 19 C-24.36 17.95 -22.7 16.95 -21 16 C-20.67 15.01 -20.34 14.02 -20 13 C-19.34 13 -18.68 13 -18 13 C-18 12.34 -18 11.68 -18 11 C-16.79 10.29 -16.79 10.29 -15.56 9.56 C-12.71 8.2 -12.71 8.2 -12 5 C-11.34 5 -10.68 5 -10 5 C-9.71 4.36 -9.42 3.72 -9.12 3.06 C-6.99 -0.85 -4.08 -0.09 0 0 Z " fill="#C88558" transform="translate(92,1)"/>
<path d="M0 0 C1.32 0.33 2.64 0.66 4 1 C3.67 1.99 3.34 2.98 3 4 C2.8 5.98 2.64 7.96 2.5 9.94 C2.26 13.41 1.97 16.65 1 20 C0.01 20 -0.98 20 -2 20 C-2 23.63 -2 27.26 -2 31 C-2.66 30.67 -3.32 30.34 -4 30 C-4.34 27.67 -4.67 25.33 -5 23 C-5.66 22.34 -6.32 21.68 -7 21 C-6.67 21.56 -6.34 22.11 -6 22.69 C-4.87 25.3 -4.84 27.18 -5 30 C-6 29 -7 28 -8 27 C-8.66 26.42 -9.32 25.84 -10 25.25 C-13.18 21.67 -15 17.81 -15 13 C-13.35 12.67 -11.7 12.34 -10 12 C-9.67 11.01 -9.34 10.02 -9 9 C-8.34 9.66 -7.68 10.32 -7 11 C-4.4 10.68 -4.4 10.68 -2 10 C-2 9.34 -2 8.68 -2 8 C-1.34 8 -0.68 8 0 8 C0 5.36 0 2.72 0 0 Z " fill="#BA7C51" transform="translate(106,76)"/>
<path d="M0 0 C0.33 0 0.66 0 1 0 C1 14.19 1 28.38 1 43 C-0.98 43 -2.96 43 -5 43 C-9.24 30.27 -4.94 16.21 -1 4 C-0.66 2.67 -0.32 1.34 0 0 Z " fill="#DC9B6E" transform="translate(122,80)"/>
<path d="M0 0 C-0.33 1.32 -0.66 2.64 -1 4 C-2.65 4.33 -4.3 4.66 -6 5 C-6 5.66 -6 6.32 -6 7 C-9 9 -9 9 -10.75 9.81 C-12.8 10.9 -14.56 12.08 -16.44 13.44 C-23.75 18.74 -23.75 18.74 -27.06 19.44 C-29.15 19.86 -29.15 19.86 -30.62 21.75 C-36.36 27.19 -42.25 29.32 -50.12 29.31 C-52.08 29.23 -54.04 29.14 -56 29 C-53.29 27.55 -51.25 26.83 -48.19 26.12 C-45.18 25.43 -42.83 24.47 -40.19 22.88 C-37 21 -37 21 -34 21 C-34 20.34 -34 19.68 -34 19 C-32.68 18.67 -31.36 18.34 -30 18 C-30 17.34 -30 16.68 -30 16 C-28.68 16 -27.36 16 -26 16 C-25.67 15.01 -25.34 14.02 -25 13 C-24.01 13 -23.02 13 -22 13 C-22 12.34 -22 11.68 -22 11 C-19.66 9.44 -17.29 8.14 -14.75 6.94 C-12.82 6.12 -12.82 6.12 -12 4 C-10.68 4.33 -9.36 4.66 -8 5 C-8 4.34 -8 3.68 -8 3 C-2.25 0 -2.25 0 0 0 Z " fill="#CD8D60" transform="translate(90,55)"/>
<path d="M0 0 C1.65 0 3.3 0 5 0 C2.97 8.09 0.96 15.19 -4 22 C-4.73 23.17 -5.46 24.33 -6.19 25.5 C-6.79 26.33 -7.38 27.15 -8 28 C-8.66 28 -9.32 28 -10 28 C-10.33 28.99 -10.66 29.98 -11 31 C-11.66 31 -12.32 31 -13 31 C-13 31.66 -13 32.32 -13 33 C-16.82 34.42 -19.91 35.24 -24 35 C-23.34 34.01 -22.68 33.02 -22 32 C-21.34 32 -20.68 32 -20 32 C-20 31.34 -20 30.68 -20 30 C-19.03 29.75 -18.06 29.5 -17.06 29.25 C-16.05 28.84 -15.04 28.42 -14 28 C-13.33 26.06 -13.33 26.06 -13 24 C-12.36 23.53 -11.72 23.05 -11.06 22.56 C-8.54 20.65 -7.96 18.96 -7 16 C-6.01 16 -5.02 16 -4 16 C-3.88 15.07 -3.75 14.14 -3.62 13.19 C-3 10 -3 10 -1 7 C-1.99 5.68 -2.98 4.36 -4 3 C-2.68 3 -1.36 3 0 3 C0 2.01 0 1.02 0 0 Z " fill="#D49469" transform="translate(112,20)"/>
<path d="M0 0 C-1.26 3.79 -2.52 4.22 -6 6 C-8.31 6.69 -8.31 6.69 -10 7 C-10 7.66 -10 8.32 -10 9 C-10.99 9.33 -11.98 9.66 -13 10 C-13.33 10.66 -13.66 11.32 -14 12 C-15.32 12 -16.64 12 -18 12 C-18 12.66 -18 13.32 -18 14 C-19.32 14.33 -20.64 14.66 -22 15 C-22 15.66 -22 16.32 -22 17 C-29.89 21.58 -36.76 24.35 -46 24 C-46.66 23.67 -47.32 23.34 -48 23 C-47.67 21.68 -47.34 20.36 -47 19 C-46.67 19.33 -46.34 19.66 -46 20 C-39.54 20.7 -35.74 19.23 -30.1 16.09 C-28 15 -28 15 -26 15 C-26 14.34 -26 13.68 -26 13 C-24.25 10.88 -24.25 10.88 -22 9 C-20.68 9 -19.36 9 -18 9 C-17.67 8.01 -17.34 7.02 -17 6 C-12.85 3.53 -8.64 2.25 -4 1 C-2 0 -2 0 0 0 Z " fill="#D59569" transform="translate(78,59)"/>
<path d="M0 0 C0.99 0.33 1.98 0.66 3 1 C-0.33 7.14 -4.04 13.04 -9 18 C-6.36 18.66 -3.72 19.32 -1 20 C-1 20.99 -1 21.98 -1 23 C1.64 23.33 4.28 23.66 7 24 C7.66 22.02 8.32 20.04 9 18 C9.66 18.33 10.32 18.66 11 19 C11.25 24.62 11.25 24.62 9 28 C6.56 28.19 6.56 28.19 4 28 C3.01 28 2.02 28 1 28 C-4.04 26.78 -9.03 25.52 -12 21 C-12.48 18 -12.51 15.9 -10.98 13.22 C-9.57 11.31 -8.1 9.49 -6.56 7.69 C-6.05 7.06 -5.53 6.42 -5 5.77 C-1.48 1.48 -1.48 1.48 0 0 Z " fill="#E4AE84" transform="translate(20,1)"/>
<path d="M0 0 C3.86 0.67 6.74 2.49 10.06 4.5 C14.37 7.1 14.37 7.1 19 9 C19 9.66 19 10.32 19 11 C16.73 12.91 16.73 12.91 13.75 15.06 C12.29 16.13 12.29 16.13 10.8 17.22 C8.39 18.75 6.78 19.57 4 20 C2.65 13.6 2.65 13.6 4.44 10.56 C4.95 10.05 5.47 9.53 6 9 C5.22 8.73 4.43 8.46 3.62 8.19 C1 7 1 7 -1 4 C-0.62 1.81 -0.62 1.81 0 0 Z " fill="#A45E3B" transform="translate(18,39)"/>
<path d="M0 0 C0.66 0.99 1.32 1.98 2 3 C1.01 3.5 1.01 3.5 0 4 C-0.9 5.88 -0.9 5.88 -1.62 8.06 C-1.89 8.8 -2.15 9.53 -2.41 10.29 C-2.61 10.85 -2.8 11.42 -3 12 C-3.66 12 -4.32 12 -5 12 C-5 12.99 -5 13.98 -5 15 C-5.66 15 -6.32 15 -7 15 C-7 16.65 -7 18.3 -7 20 C-7.66 20 -8.32 20 -9 20 C-9 21.32 -9 22.64 -9 24 C-10.3 25.05 -11.63 26.05 -13 27 C-13.33 27.99 -13.66 28.98 -14 30 C-16.64 27.69 -19.28 25.38 -22 23 C-20.05 19.1 -19.16 18.08 -15.81 15.62 C-15.01 15.02 -14.21 14.42 -13.38 13.79 C-12.6 13.2 -11.81 12.61 -11 12 C-6.4 8.4 -3 5.04 0 0 Z " fill="#B37349" transform="translate(105,64)"/>
<path d="M0 0 C0.62 0.8 1.24 1.61 1.88 2.44 C3.74 5.04 3.74 5.04 6 6 C6 6.99 6 7.98 6 9 C3.53 8.5 3.53 8.5 1 8 C0.86 8.87 0.71 9.73 0.56 10.62 C0.04 13.75 -0.48 16.88 -1 20 C-1.66 20 -2.32 20 -3 20 C-3.34 21.58 -3.34 21.58 -3.69 23.19 C-4.86 27.23 -6.8 29.23 -10 32 C-10.62 32.54 -11.24 33.08 -11.88 33.64 C-13.58 35.11 -15.28 36.56 -17 38 C-17.99 37.34 -18.98 36.68 -20 36 C-20 35.34 -20 34.68 -20 34 C-18.79 32.89 -17.53 31.84 -16.25 30.81 C-12.37 27.53 -10.22 24.54 -8 20 C-7.34 20 -6.68 20 -6 20 C-5.81 19.32 -5.61 18.65 -5.41 17.95 C-5.15 17.06 -4.89 16.17 -4.62 15.25 C-4.37 14.37 -4.11 13.49 -3.85 12.58 C-3.08 10.23 -2.1 8.2 -1 6 C-0.62 4.01 -0.27 2.01 0 0 Z " fill="#B4764A" transform="translate(117,24)"/>
<path d="M0 0 C1.65 0.33 3.3 0.66 5 1 C5 4.63 5 8.26 5 12 C3.68 12 2.36 12 1 12 C0.88 12.65 0.76 13.3 0.63 13.98 C0.47 14.85 0.3 15.72 0.12 16.62 C-0.04 17.48 -0.2 18.34 -0.37 19.23 C-1 22 -1 22 -2 24.81 C-3.21 28.66 -3.68 32.38 -4.12 36.38 C-4.21 37.11 -4.3 37.85 -4.39 38.61 C-4.6 40.4 -4.8 42.2 -5 44 C-5.33 42.68 -5.66 41.36 -6 40 C-6.66 40 -7.32 40 -8 40 C-7 36 -7 36 -6.44 34.19 C-5.59 29.96 -5.64 26.08 -7 22 C-6.33 19.94 -6.33 19.94 -5.25 17.56 C-2.82 11.85 -1.37 6.04 0 0 Z " fill="#BF7F55" transform="translate(118,32)"/>
<path d="M0 0 C0.91 0.01 1.82 0.02 2.76 0.03 C3.46 0.04 4.16 0.05 4.88 0.06 C4.88 0.72 4.88 1.38 4.88 2.06 C5.87 2.39 6.86 2.72 7.88 3.06 C6.47 6.46 5.04 8.18 1.88 10.06 C-0.44 10.81 -2.77 11.47 -5.12 12.06 C-5.91 12.27 -6.69 12.47 -7.5 12.69 C-9.12 13.06 -9.12 13.06 -10.12 13.06 C-10.47 8.2 -9.65 5.24 -7.12 1.06 C-4.6 -0.2 -2.81 -0.04 0 0 Z " fill="#E2A579" transform="translate(39.125,66.9375)"/>
<path d="M0 0 C0.66 0 1.32 0 2 0 C2.78 24.46 2.78 24.46 -1.03 35.2 C-2.04 38.12 -2.57 40.94 -3 44 C-5.32 40.73 -4.85 38.4 -4.31 34.59 C-3.94 31.47 -3.73 28.36 -3.54 25.23 C-3.46 24.01 -3.38 22.8 -3.3 21.54 C-3.14 19 -2.99 16.46 -2.84 13.91 C-2.76 12.7 -2.68 11.49 -2.6 10.23 C-2.53 9.13 -2.46 8.03 -2.39 6.9 C-2.02 4.14 -1.42 2.37 0 0 Z " fill="#D19165" transform="translate(121,56)"/>
<path d="M0 0 C0.33 0 0.66 0 1 0 C1 6.93 1 13.86 1 21 C-3.36 23.18 -4.47 23.18 -9 22 C-9.66 21.34 -10.32 20.68 -11 20 C-10.34 20 -9.68 20 -9 20 C-9 18.68 -9 17.36 -9 16 C-8.34 16 -7.68 16 -7 16 C-6.73 14.99 -6.46 13.98 -6.19 12.94 C-5.11 9.13 -3.62 5.61 -2 2 C-1.34 2 -0.68 2 0 2 C0 1.34 0 0.68 0 0 Z " fill="#E1A478" transform="translate(39,24)"/>
<path d="M0 0 C1.98 0 3.96 0 6 0 C6 0.66 6 1.32 6 2 C5.34 2 4.68 2 4 2 C4 2.66 4 3.32 4 4 C3.34 4 2.68 4 2 4 C2 4.66 2 5.32 2 6 C0.02 6.66 -1.96 7.32 -4 8 C-4 8.66 -4 9.32 -4 10 C-4.66 10 -5.32 10 -6 10 C-6 10.66 -6 11.32 -6 12 C-6.8 12.29 -7.61 12.58 -8.44 12.88 C-11.13 13.73 -11.13 13.73 -12 16 C-12.97 16.43 -13.94 16.87 -14.94 17.31 C-18.18 18.72 -18.18 18.72 -19.38 21.69 C-19.58 22.45 -19.79 23.21 -20 24 C-20.66 24 -21.32 24 -22 24 C-22 25.32 -22 26.64 -22 28 C-22.66 28 -23.32 28 -24 28 C-24.75 25.75 -24.75 25.75 -25 23 C-23.19 20.88 -23.19 20.88 -21 19 C-20.34 18.01 -19.68 17.02 -19 16 C-18.34 16 -17.68 16 -17 16 C-17 15.34 -17 14.68 -17 14 C-16.22 13.77 -15.43 13.55 -14.62 13.31 C-11.78 12.22 -11.78 12.22 -10.69 9.38 C-10.46 8.59 -10.23 7.81 -10 7 C-9.01 7 -8.02 7 -7 7 C-7 6.34 -7 5.68 -7 5 C-6.34 5 -5.68 5 -5 5 C-5 4.34 -5 3.68 -5 3 C-3.35 2.67 -1.7 2.34 0 2 C0 1.34 0 0.68 0 0 Z " fill="#DD9D6E" transform="translate(68,0)"/>
<path d="M0 0 C0 0.66 0 1.32 0 2 C1.32 2.33 2.64 2.66 4 3 C4 4.32 4 5.64 4 7 C0.75 7.2 -2.5 7.38 -5.75 7.56 C-6.67 7.62 -7.59 7.67 -8.54 7.73 C-9.43 7.78 -10.32 7.83 -11.23 7.88 C-12.05 7.93 -12.87 7.97 -13.71 8.02 C-15.98 8 -17.83 7.65 -20 7 C-20 5.35 -20 3.7 -20 2 C-17.42 1.66 -14.83 1.33 -12.25 1 C-11.16 0.86 -11.16 0.86 -10.04 0.71 C-6.65 0.28 -3.42 0 0 0 Z " fill="#DA9B6F" transform="translate(76,41)"/>
<path d="M0 0 C2.97 0 5.94 0 9 0 C5 2 5 2 2.31 3 C-0.15 3.77 -0.15 3.77 -1 6 C-1.66 6 -2.32 6 -3 6 C-3.09 6.93 -3.09 6.93 -3.19 7.88 C-4 10 -4 10 -6.56 11.25 C-7.37 11.5 -8.17 11.74 -9 12 C-9 12.66 -9 13.32 -9 14 C-9.66 14 -10.32 14 -11 14 C-11.15 14.93 -11.15 14.93 -11.31 15.88 C-12 18 -12 18 -15 20 C-16.66 20.38 -18.32 20.73 -20 21 C-20.33 21.99 -20.66 22.98 -21 24 C-23.06 24.69 -23.06 24.69 -25 25 C-23.75 21.35 -23.33 20.22 -20 18 C-19.67 17.01 -19.34 16.02 -19 15 C-17.04 13.18 -17.04 13.18 -14.62 11.31 C-13.83 10.69 -13.04 10.07 -12.23 9.43 C-10 8 -10 8 -7 8 C-7 7.34 -7 6.68 -7 6 C-5.01 4.65 -3.01 3.31 -1 2 C-0.67 1.34 -0.34 0.68 0 0 Z " fill="#CE8B5F" transform="translate(83,0)"/>
<path d="M0 0 C1.25 3.75 0.24 5.13 -1.45 8.55 C-1.82 9.25 -2.19 9.96 -2.56 10.69 C-2.93 11.4 -3.3 12.12 -3.67 12.86 C-9.34 23.72 -9.34 23.72 -13 27 C-16 27 -16 27 -17.75 25.81 C-19 24 -19 24 -18.85 21.59 C-17.78 18.32 -16.59 17.58 -13.69 15.81 C-12.91 15.32 -12.13 14.84 -11.32 14.33 C-9 13 -9 13 -6.77 11.93 C-4.36 10.67 -4.02 9.51 -3 7 C-2.46 5.75 -1.92 4.5 -1.38 3.25 C-0.92 2.18 -0.47 1.1 0 0 Z " fill="#955733" transform="translate(114,44)"/>
<path d="M0 0 C1.02 2.73 0.95 4.39 0.54 7.32 C-0.27 13.34 -0.15 19.37 -0.12 25.44 C-0.13 26.63 -0.13 27.83 -0.14 29.06 C-0.13 30.76 -0.13 30.76 -0.13 32.5 C-0.13 33.53 -0.13 34.56 -0.13 35.63 C-0.27 37.96 -0.27 37.96 1 39 C0.82 41.69 0.38 44.33 0 47 C-1.32 47 -2.64 47 -4 47 C-4.13 42.46 -4.13 42.46 -3.53 40.28 C-2.79 37.12 -2.65 33.99 -2.44 30.75 C-2.31 28.86 -2.31 28.86 -2.18 26.92 C-2.12 25.96 -2.06 24.99 -2 24 C-2.99 24 -3.98 24 -5 24 C-5.04 21.67 -5.04 19.33 -5 17 C-4.67 16.67 -4.34 16.34 -4 16 C-3.75 13 -3.62 9.99 -3.48 6.98 C-2.97 3.79 -2.14 2.37 0 0 Z " fill="#BD7E54" transform="translate(111,76)"/>
<path d="M0 0 C0.99 0 1.98 0 3 0 C1.69 3.92 0.07 4.42 -3.44 6.5 C-7.82 9.09 -7.82 9.09 -11 13 C-16.83 14.56 -23.58 15.19 -29.06 12.5 C-29.7 12 -30.34 11.51 -31 11 C-28.52 9.76 -27.01 10 -24.25 10.12 C-19.72 10.19 -16.94 9.36 -13 7 C-12.34 7 -11.68 7 -11 7 C-11 6.34 -11 5.68 -11 5 C-10.29 4.72 -9.58 4.45 -8.85 4.16 C-7.47 3.62 -7.47 3.62 -6.06 3.06 C-5.15 2.7 -4.23 2.34 -3.29 1.97 C-1.08 1.2 -1.08 1.2 0 0 Z " fill="#B6774C" transform="translate(65,76)"/>
<path d="M0 0 C-0.66 0 -1.32 0 -2 0 C-2 0.66 -2 1.32 -2 2 C-3.32 2 -4.64 2 -6 2 C-6 2.66 -6 3.32 -6 4 C-7.77 4.84 -9.54 5.67 -11.31 6.5 C-12.3 6.96 -13.28 7.43 -14.3 7.91 C-17 9 -17 9 -20 9 C-20 9.66 -20 10.32 -20 11 C-26.09 14.61 -30.9 16.06 -38 15 C-41.12 13.5 -41.12 13.5 -43 12 C-42.67 11.34 -42.34 10.68 -42 10 C-41.34 10.33 -40.68 10.66 -40 11 C-30.4 12.13 -23.02 10.45 -15 5 C-14.34 4.01 -13.68 3.02 -13 2 C-10.72 1.02 -10.72 1.02 -8.06 0.25 C-7.19 -0.01 -6.31 -0.28 -5.41 -0.55 C-3 -1 -3 -1 0 0 Z " fill="#C18255" transform="translate(74,72)"/>
<path d="M0 0 C0 2.31 0 4.62 0 7 C2.97 7.33 5.94 7.66 9 8 C9 8.33 9 8.66 9 9 C8.04 9.05 7.09 9.1 6.11 9.15 C-1.74 9.6 -9.3 10.35 -17 12 C-15.51 7.65 -12.27 5.96 -8.5 3.75 C-7.61 3.2 -7.61 3.2 -6.7 2.65 C-2.29 0 -2.29 0 0 0 Z " fill="#945632" transform="translate(72,76)"/>
<path d="M0 0 C2 1 2 1 4 3 C4.18 5.81 4.19 8.23 4 11 C4 12.32 4 13.64 4 15 C4.33 15.33 4.66 15.66 5 16 C5.04 17.67 5.04 19.33 5 21 C4 20 3 19 2 18 C1.34 17.42 0.68 16.84 0 16.25 C-3.18 12.67 -5 8.81 -5 4 C-3.35 3.67 -1.7 3.34 0 3 C0 2.01 0 1.02 0 0 Z " fill="#B67952" transform="translate(96,85)"/>
<path d="M0 0 C0.66 0.33 1.32 0.66 2 1 C1.34 4.96 0.68 8.92 0 13 C5.27 17.38 9.66 17.64 16.38 17.75 C17.3 17.78 18.23 17.81 19.18 17.84 C21.46 17.91 23.73 17.96 26 18 C22.94 19.78 20.76 20.24 17.23 20.2 C16.34 20.19 15.46 20.18 14.54 20.18 C13.62 20.16 12.7 20.14 11.75 20.12 C10.81 20.12 9.88 20.11 8.91 20.1 C6.61 20.07 4.3 20.04 2 20 C2 19.34 2 18.68 2 18 C0.68 17.67 -0.64 17.34 -2 17 C-2.05 14.92 -2.09 12.83 -2.12 10.75 C-2.15 9.59 -2.17 8.43 -2.2 7.23 C-2.01 4.17 -1.61 2.56 0 0 Z " fill="#D7976B" transform="translate(50,22)"/>
<path d="M0 0 C0 1.32 0 2.64 0 4 C-0.66 4 -1.32 4 -2 4 C-2 5.32 -2 6.64 -2 8 C0.93 7.22 0.93 7.22 3.86 6.44 C6 6 6 6 10 6 C10 6.66 10 7.32 10 8 C9.01 8 8.02 8 7 8 C7 8.66 7 9.32 7 10 C6.01 10.33 5.02 10.66 4 11 C3.34 11.66 2.68 12.32 2 13 C-0.12 13.62 -0.12 13.62 -2 14 C-2 13.01 -2 12.02 -2 11 C-3.32 11 -4.64 11 -6 11 C-6 10.01 -6 9.02 -6 8 C-6.66 8 -7.32 8 -8 8 C-8 6.68 -8 5.36 -8 4 C-2.89 0 -2.89 0 0 0 Z " fill="#CA875B" transform="translate(74,16)"/>
<path d="M0 0 C2.64 0 5.28 0 8 0 C8 0.99 8 1.98 8 3 C5.06 5.12 5.06 5.12 2 7 C1.67 7.33 1.34 7.66 1 8 C-0.67 8.04 -2.33 8.04 -4 8 C-4.33 9.32 -4.66 10.64 -5 12 C-5.99 11.67 -6.98 11.34 -8 11 C-8.33 11.66 -8.66 12.32 -9 13 C-9.99 12.34 -10.98 11.68 -12 11 C-10.68 10.67 -9.36 10.34 -8 10 C-8 9.34 -8 8.68 -8 8 C-7.34 7.67 -6.68 7.34 -6 7 C-5.34 4.47 -5.34 4.47 -5 2 C-3.35 2 -1.7 2 0 2 C0 1.34 0 0.68 0 0 Z " fill="#D69569" transform="translate(100,24)"/>
<path d="M0 0 C1.06 3.19 0.97 3.82 0.13 6.91 C-1.27 12.72 -1.65 18.54 -2.06 24.5 C-2.22 26.66 -2.37 28.81 -2.54 30.97 C-2.6 31.91 -2.67 32.85 -2.73 33.83 C-3 36 -3 36 -4 37 C-4.23 38.85 -4.41 40.7 -4.56 42.56 C-4.65 43.57 -4.73 44.59 -4.82 45.63 C-4.91 46.8 -4.91 46.8 -5 48 C-5.66 48 -6.32 48 -7 48 C-7.03 45.6 -7.05 43.21 -7.06 40.81 C-7.07 40.14 -7.08 39.47 -7.09 38.77 C-7.11 33.74 -6.43 29.5 -5.06 24.69 C-3.78 19.75 -3.3 14.7 -2.79 9.64 C-2.39 6.04 -1.92 3.1 0 0 Z " fill="#C18155" transform="translate(117,52)"/>
<path d="M0 0 C5.78 3.45 5.78 3.45 6.88 6.25 C6.94 7.12 6.94 7.12 7 8 C7.66 8 8.32 8 9 8 C9 9.32 9 10.64 9 12 C8.03 12.12 7.06 12.25 6.06 12.38 C5.05 12.58 4.04 12.79 3 13 C2.67 13.66 2.34 14.32 2 15 C1.79 13.91 1.59 12.81 1.38 11.69 C0.34 7.77 0.34 7.77 -3.12 6.06 C-4.07 5.71 -5.02 5.36 -6 5 C-4.07 2.98 -2.37 1.58 0 0 Z " fill="#D99B70" transform="translate(29,55)"/>
<path d="M0 0 C1.98 0.49 1.98 0.49 4 1 C4 1.99 4 2.98 4 4 C6.64 4 9.28 4 12 4 C12.33 5.65 12.66 7.3 13 9 C11.35 9 9.7 9 8 9 C8 9.66 8 10.32 8 11 C6.02 11 4.04 11 2 11 C2 9.68 2 8.36 2 7 C1.34 7 0.68 7 0 7 C-0.93 3.99 -1.04 3.13 0 0 Z " fill="#DB9E72" transform="translate(36,56)"/>
<path d="M0 0 C0.33 0.66 0.66 1.32 1 2 C0.01 1.67 -0.98 1.34 -2 1 C-1.34 0.67 -0.68 0.34 0 0 Z M-3.81 2.38 C-2.92 2.68 -2.92 2.68 -2 3 C-2.43 3.84 -2.43 3.84 -2.88 4.69 C-4.06 7.01 -4.06 7.01 -4.94 9.62 C-6 12 -6 12 -9 14 C-11.74 13.97 -14.28 13.45 -17 13 C-16.67 12.34 -16.34 11.68 -16 11 C-15.34 11 -14.68 11 -14 11 C-13.73 10.36 -13.46 9.72 -13.19 9.06 C-12 7 -12 7 -9 6 C-9 5.34 -9 4.68 -9 4 C-6 2 -6 2 -3.81 2.38 Z " fill="#CB885D" transform="translate(109,6)"/>
<path d="M0 0 C0.66 0.33 1.32 0.66 2 1 C2.25 6.62 2.25 6.62 0 10 C-2.44 10.19 -2.44 10.19 -5 10 C-5.99 10 -6.98 10 -8 10 C-9.51 9.64 -11.01 9.22 -12.5 8.75 C-13.27 8.52 -14.05 8.29 -14.84 8.05 C-17.42 6.8 -18.47 5.38 -20 3 C-18.42 3.11 -16.83 3.24 -15.25 3.38 C-13.93 3.48 -13.93 3.48 -12.58 3.59 C-10 4 -8.31 4.83 -6 6 C-3.31 5.7 -3.31 5.7 -1 5 C-0.67 3.35 -0.34 1.7 0 0 Z " fill="#B07348" transform="translate(29,19)"/>
<path d="M0 0 C1 3 1 3 0.18 5.23 C-2.54 10.47 -5.29 15.39 -9 20 C-9.66 20 -10.32 20 -11 20 C-11.33 20.99 -11.66 21.98 -12 23 C-12.66 23 -13.32 23 -14 23 C-14 23.66 -14 24.32 -14 25 C-16.97 25.66 -19.94 26.32 -23 27 C-22.67 26.34 -22.34 25.68 -22 25 C-19.44 24.38 -19.44 24.38 -17 24 C-16.67 23.01 -16.34 22.02 -16 21 C-13.56 18.31 -13.56 18.31 -11 16 C-10.34 16 -9.68 16 -9 16 C-8.34 14.02 -7.68 12.04 -7 10 C-6.01 10 -5.02 10 -4 10 C-3.67 8.02 -3.34 6.04 -3 4 C-2.34 4 -1.68 4 -1 4 C-0.67 2.68 -0.34 1.36 0 0 Z " fill="#CD8E62" transform="translate(113,28)"/>
<path d="M0 0 C0.66 0 1.32 0 2 0 C2 1.65 2 3.3 2 5 C0.68 5 -0.64 5 -2 5 C-2 5.66 -2 6.32 -2 7 C-3.65 7.33 -5.3 7.66 -7 8 C-7 9.65 -7 11.3 -7 13 C-12.61 13 -18.22 13 -24 13 C-24 12.67 -24 12.34 -24 12 C-20.7 11.67 -17.4 11.34 -14 11 C-14 10.34 -14 9.68 -14 9 C-12.34 7.98 -10.68 6.98 -9 6 C-8.67 5.34 -8.34 4.68 -8 4 C-6.82 3.78 -6.82 3.78 -5.62 3.56 C-2.7 2.94 -1.96 2.14 0 0 Z " fill="#D49163" transform="translate(102,19)"/>
<path d="M0 0 C0.66 0 1.32 0 2 0 C2 2.64 2 5.28 2 8 C1.01 8.5 1.01 8.5 0 9 C-1.08 12.24 -1.27 14.91 -1.46 18.31 C-1.54 19.55 -1.62 20.79 -1.7 22.07 C-1.86 24.69 -2.01 27.31 -2.16 29.93 C-2.24 31.17 -2.32 32.41 -2.4 33.69 C-2.47 34.83 -2.54 35.96 -2.61 37.14 C-3 40 -3 40 -5 43 C-4.93 38.69 -4.84 34.39 -4.74 30.08 C-4.7 28.62 -4.68 27.16 -4.65 25.7 C-4.62 23.59 -4.57 21.48 -4.51 19.37 C-4.49 18.1 -4.46 16.83 -4.43 15.53 C-3.97 11.75 -2.8 9.32 -1 6 C-0.83 3.29 -0.83 3.29 -1 1 C-0.67 0.67 -0.34 0.34 0 0 Z " fill="#CB8B5F" transform="translate(121,48)"/>
<path d="M0 0 C3.63 0 7.26 0 11 0 C11 1.32 11 2.64 11 4 C10.32 4.04 9.65 4.07 8.95 4.11 C8.06 4.18 7.17 4.24 6.25 4.31 C4.93 4.4 4.93 4.4 3.58 4.49 C0.64 5.07 -0.69 6.15 -3 8 C-5.31 8.73 -7.65 9.41 -10 10 C-8.63 6.84 -8.01 6.01 -5 4 C-4.01 4 -3.02 4 -2 4 C-1.34 2.68 -0.68 1.36 0 0 Z " fill="#C7875B" transform="translate(110,0)"/>
<path d="M0 0 C3 1 3 1 4.19 3.06 C4.46 3.7 4.72 4.34 5 5 C5.66 4.34 6.32 3.68 7 3 C8.97 2.86 8.97 2.86 11.35 3.02 C12.63 3.1 12.63 3.1 13.93 3.18 C14.82 3.24 15.71 3.31 16.62 3.38 C17.97 3.46 17.97 3.46 19.34 3.55 C21.56 3.69 23.78 3.84 26 4 C26 4.66 26 5.32 26 6 C23.36 6 20.72 6 18 6 C18 6.66 18 7.32 18 8 C5.1 8.69 5.1 8.69 1.19 6 C0.47 5.34 -0.26 4.68 -1 4 C-0.67 2.68 -0.34 1.36 0 0 Z " fill="#D49365" transform="translate(50,32)"/>
<path d="M0 0 C0.66 0.99 1.32 1.98 2 3 C1.01 3.5 1.01 3.5 0 4 C-0.9 5.88 -0.9 5.88 -1.62 8.06 C-1.89 8.8 -2.15 9.53 -2.41 10.29 C-2.61 10.85 -2.8 11.42 -3 12 C-3.66 12 -4.32 12 -5 12 C-5 12.99 -5 13.98 -5 15 C-5.66 15 -6.32 15 -7 15 C-7 16.65 -7 18.3 -7 20 C-7.66 20 -8.32 20 -9 20 C-9 21.32 -9 22.64 -9 24 C-10.32 24.33 -11.64 24.66 -13 25 C-13 23.35 -13 21.7 -13 20 C-12.34 20 -11.68 20 -11 20 C-11 18.35 -11 16.7 -11 15 C-10.01 15.33 -9.02 15.66 -8 16 C-7.98 15.03 -7.96 14.06 -7.94 13.06 C-7.23 7.67 -3.45 3.97 0 0 Z " fill="#B6754B" transform="translate(105,64)"/>
<path d="M0 0 C1.65 0 3.3 0 5 0 C3.52 6.65 0.38 12.12 -3 18 C-1.68 18.66 -0.36 19.32 1 20 C-3.29 21.26 -5.88 20.63 -10 19 C-9.24 18.28 -8.47 17.56 -7.69 16.81 C-5.23 14.25 -3.69 12.09 -2 9 C-1.27 7.73 -0.54 6.46 0.19 5.19 C0.79 4.14 1.38 3.08 2 2 C1.34 1.34 0.68 0.68 0 0 Z " fill="#EAB58C" transform="translate(20,0)"/>
<path d="M0 0 C1.65 0 3.3 0 5 0 C4.01 1.48 4.01 1.48 3 3 C2.34 3 1.68 3 1 3 C0.77 3.64 0.55 4.28 0.31 4.94 C-1 7 -1 7 -3.62 7.75 C-4.8 7.87 -4.8 7.87 -6 8 C-6 8.66 -6 9.32 -6 10 C-6.99 10.33 -7.98 10.66 -9 11 C-9.45 11.45 -9.91 11.91 -10.38 12.38 C-12 14 -12 14 -14.38 15.38 C-17.38 17.23 -19.58 19.44 -22 22 C-22 21.01 -22 20.02 -22 19 C-21.34 19 -20.68 19 -20 19 C-20 18.01 -20 17.02 -20 16 C-19.34 16 -18.68 16 -18 16 C-17.67 15.01 -17.34 14.02 -17 13 C-15.35 12.67 -13.7 12.34 -12 12 C-12 11.34 -12 10.68 -12 10 C-11.34 10 -10.68 10 -10 10 C-10 9.34 -10 8.68 -10 8 C-8.02 7.34 -6.04 6.68 -4 6 C-4 5.34 -4 4.68 -4 4 C-3.34 4 -2.68 4 -2 4 C-2 3.34 -2 2.68 -2 2 C-1.34 2 -0.68 2 0 2 C0 1.34 0 0.68 0 0 Z " fill="#D79669" transform="translate(74,0)"/>
<path d="M0 0 C0.62 0.8 1.24 1.61 1.88 2.44 C3.74 5.04 3.74 5.04 6 6 C6 6.99 6 7.98 6 9 C4.35 8.67 2.7 8.34 1 8 C0.86 8.87 0.71 9.73 0.56 10.62 C0.04 13.75 -0.48 16.88 -1 20 C-2.32 20 -3.64 20 -5 20 C-5.33 19.34 -5.66 18.68 -6 18 C-5.28 16.05 -4.48 14.14 -3.62 12.25 C-1.77 8.13 -0.58 4.49 0 0 Z " fill="#B7794E" transform="translate(117,24)"/>
<path d="M0 0 C0.33 0 0.66 0 1 0 C1.08 1.6 1.14 3.21 1.19 4.81 C1.22 5.71 1.26 6.6 1.29 7.52 C0.94 10.47 0.13 11.05 -2 13 C-1.77 15.65 -1.77 15.65 -1 18 C-4 20 -4 20 -6.69 19.62 C-7.83 19.32 -7.83 19.32 -9 19 C-8.34 18.67 -7.68 18.34 -7 18 C-7 16.68 -7 15.36 -7 14 C-6.34 14 -5.68 14 -5 14 C-4.73 12.99 -4.46 11.98 -4.19 10.94 C-3.11 7.13 -1.62 3.61 0 0 Z " fill="#E4A77C" transform="translate(37,26)"/>
<path d="M0 0 C0.33 0 0.66 0 1 0 C1.06 3.54 1.09 7.08 1.12 10.62 C1.15 12.12 1.15 12.12 1.18 13.65 C1.21 18.84 1.1 23.15 -1 28 C-1.66 27.34 -2.32 26.68 -3 26 C-2.98 24.15 -2.98 24.15 -2.62 21.94 C-2.18 18.72 -1.97 15.69 -2.06 12.44 C-2.13 8 -1.24 4.25 0 0 Z " fill="#D8986B" transform="translate(122,58)"/>
<path d="M0 0 C0.66 0.33 1.32 0.66 2 1 C-3.18 7.01 -10.41 8.81 -18 10 C-19.32 10 -20.64 10 -22 10 C-22 8.68 -22 7.36 -22 6 C-21.34 6 -20.68 6 -20 6 C-19.67 4.68 -19.34 3.36 -19 2 C-18.67 3.32 -18.34 4.64 -18 6 C-12.5 5.53 -8.94 4.58 -4 2 C-2.68 2 -1.36 2 0 2 C0 1.34 0 0.68 0 0 Z " fill="#C78559" transform="translate(94,14)"/>
<path d="M0 0 C2.15 3.49 2.23 6.24 2.2 10.3 C2.19 11.5 2.18 12.71 2.18 13.95 C2.16 15.2 2.14 16.46 2.12 17.75 C2.12 19.02 2.11 20.29 2.1 21.6 C2.07 24.73 2.04 27.87 2 31 C1.01 31 0.02 31 -1 31 C-1.03 26.58 -1.05 22.17 -1.06 17.75 C-1.07 16.5 -1.08 15.24 -1.09 13.95 C-1.09 12.74 -1.09 11.54 -1.1 10.3 C-1.1 9.19 -1.11 8.08 -1.11 6.93 C-1.02 4.43 -0.73 2.38 0 0 Z " fill="#C98A5E" transform="translate(115,92)"/>
<path d="M0 0 C3.91 0.67 6.87 2.54 10.25 4.56 C11.33 5.2 12.41 5.84 13.52 6.5 C14.34 7 15.16 7.49 16 8 C12.85 8.96 10.22 9.07 6.94 8.81 C6.08 8.76 5.22 8.7 4.34 8.64 C2 8 2 8 0.17 6.09 C-1 4 -1 4 -0.69 1.75 C-0.46 1.17 -0.23 0.59 0 0 Z " fill="#BE6F4C" transform="translate(18,39)"/>
<path d="M0 0 C-1.1 2.99 -1.68 3.85 -4.62 5.25 C-5.8 5.62 -5.8 5.62 -7 6 C-7 6.66 -7 7.32 -7 8 C-7.93 8.43 -8.86 8.87 -9.81 9.31 C-12.93 10.74 -12.93 10.74 -14.56 12.69 C-16 14 -16 14 -18.69 14.19 C-19.45 14.13 -20.21 14.06 -21 14 C-20.34 13.67 -19.68 13.34 -19 13 C-18.67 12.01 -18.34 11.02 -18 10 C-17.01 10 -16.02 10 -15 10 C-15 9.34 -15 8.68 -15 8 C-14.11 7.61 -13.23 7.22 -12.31 6.81 C-8.89 5.15 -8.89 5.15 -6.38 2.31 C-4 0 -4 0 0 0 Z " fill="#D39063" transform="translate(83,0)"/>
<path d="M0 0 C0.9 0.31 0.9 0.31 1.81 0.62 C-6.08 5.2 -12.94 7.97 -22.19 7.62 C-22.85 7.3 -23.51 6.97 -24.19 6.62 C-23.86 5.31 -23.53 3.98 -23.19 2.62 C-22.86 2.95 -22.53 3.28 -22.19 3.62 C-15.14 4 -5.59 -0.96 0 0 Z " fill="#D89A6D" transform="translate(54.1875,75.375)"/>
<path d="M0 0 C0.66 1.32 1.32 2.64 2 4 C1.01 4 0.02 4 -1 4 C-1.15 4.93 -1.15 4.93 -1.31 5.88 C-2 8 -2 8 -5 10 C-8.19 10.12 -8.19 10.12 -11 10 C-11.33 9.01 -11.66 8.02 -12 7 C-10 5 -10 5 -7.5 4.56 C-4.65 4.22 -4.65 4.22 -3 1 C-2.01 0.67 -1.02 0.34 0 0 Z M-13 8 C-12.67 8.66 -12.34 9.32 -12 10 C-12.66 9.67 -13.32 9.34 -14 9 C-13.67 8.67 -13.34 8.34 -13 8 Z " fill="#CE8B5F" transform="translate(95,18)"/>
<path d="M0 0 C0.33 0 0.66 0 1 0 C1.11 2.56 1.19 5.12 1.25 7.69 C1.28 8.41 1.32 9.13 1.35 9.87 C1.42 13.88 1.29 15.57 -1.02 19.02 C-1.67 19.67 -2.33 20.33 -3 21 C-3.33 20.67 -3.66 20.34 -4 20 C-3.94 13.02 -2.22 6.57 0 0 Z " fill="#E0A175" transform="translate(122,80)"/>
<path d="M0 0 C0 1.32 0 2.64 0 4 C-0.66 4 -1.32 4 -2 4 C-2 5.32 -2 6.64 -2 8 C-6.31 7.52 -8.17 6.25 -11 3 C-10.34 3 -9.68 3 -9 3 C-9 2.34 -9 1.68 -9 1 C-6.04 -0.48 -3.26 -0.06 0 0 Z " fill="#E6AC83" transform="translate(32,36)"/>
<path d="M0 0 C0.66 0.33 1.32 0.66 2 1 C1.53 1.78 1.05 2.57 0.56 3.38 C-0.34 4.89 -1.21 6.42 -2 8 C-2.97 8.43 -3.94 8.87 -4.94 9.31 C-8.18 10.72 -8.18 10.72 -9.38 13.69 C-9.58 14.45 -9.79 15.21 -10 16 C-10.66 16 -11.32 16 -12 16 C-12 17.32 -12 18.64 -12 20 C-12.66 20 -13.32 20 -14 20 C-14.75 17.75 -14.75 17.75 -15 15 C-13.19 12.88 -13.19 12.88 -11 11 C-10.34 10.01 -9.68 9.02 -9 8 C-8.34 8 -7.68 8 -7 8 C-7 7.34 -7 6.68 -7 6 C-6.22 5.75 -5.43 5.5 -4.62 5.25 C-1.68 3.85 -1.1 2.99 0 0 Z " fill="#DF9F72" transform="translate(58,8)"/>
<path d="M0 0 C-0.33 1.32 -0.66 2.64 -1 4 C-2.65 4.33 -4.3 4.66 -6 5 C-6 5.66 -6 6.32 -6 7 C-6.97 7.23 -7.94 7.45 -8.94 7.69 C-13.69 9.02 -17.78 11.49 -22 14 C-22 13.01 -22 12.02 -22 11 C-19.67 9.38 -17.31 8.15 -14.75 6.94 C-12.82 6.12 -12.82 6.12 -12 4 C-10.68 4.33 -9.36 4.66 -8 5 C-8 4.34 -8 3.68 -8 3 C-2.25 0 -2.25 0 0 0 Z " fill="#CE8F63" transform="translate(90,55)"/>
<path d="M0 0 C-0.6 0.29 -1.2 0.58 -1.81 0.88 C-4.19 2.05 -4.19 2.05 -7 4 C-8.32 4 -9.64 4 -11 4 C-8.36 -1.84 -6.05 -1.01 0 0 Z M-14 4 C-13.01 4.33 -12.02 4.66 -11 5 C-14.82 9.4 -17.47 10.81 -23 12 C-22 9.51 -21.35 8.23 -19.06 6.75 C-17 6 -17 6 -14 6 C-14 5.34 -14 4.68 -14 4 Z " fill="#CD8A5E" transform="translate(95,20)"/>
<path d="M0 0 C3.12 -0.19 3.12 -0.19 6 0 C6 0.66 6 1.32 6 2 C5.34 2 4.68 2 4 2 C3.71 3.05 3.42 4.1 3.12 5.19 C2.23 8.23 1.24 11.09 0 14 C-2.33 10.36 -2.31 7.25 -2 3 C-1.34 2.01 -0.68 1.02 0 0 Z " fill="#E8AC80" transform="translate(33,24)"/>
<path d="M0 0 C3.74 0.93 6.61 2.23 10 4 C9.1 4.31 9.1 4.31 8.19 4.62 C5.19 6.51 4.39 8.81 3 12 C2.01 12 1.02 12 0 12 C0 8.04 0 4.08 0 0 Z " fill="#E2AB84" transform="translate(20,27)"/>
<path d="M0 0 C1.32 0 2.64 0 4 0 C5.38 2.76 5.19 4.95 5 8 C4.34 8.66 3.68 9.32 3 10 C-2.45 9.55 -2.45 9.55 -5 7 C-3.35 7 -1.7 7 0 7 C0.33 6.01 0.66 5.02 1 4 C0.01 3.67 -0.98 3.34 -2 3 C-1.34 2.67 -0.68 2.34 0 2 C0 1.34 0 0.68 0 0 Z " fill="#E2A67B" transform="translate(24,16)"/>
<path d="M0 0 C0.99 0.33 1.98 0.66 3 1 C3 7.27 3 13.54 3 20 C2.01 20 1.02 20 0 20 C0 13.4 0 6.8 0 0 Z " fill="#DF9F73" transform="translate(117,103)"/>
<path d="M0 0 C0.66 0 1.32 0 2 0 C2.26 8.24 1.61 15.91 0 24 C-0.33 24 -0.66 24 -1 24 C-1.03 20.75 -1.05 17.5 -1.06 14.25 C-1.07 13.33 -1.08 12.41 -1.09 11.46 C-1.09 10.57 -1.09 9.68 -1.1 8.77 C-1.1 7.95 -1.11 7.13 -1.11 6.29 C-1 4.06 -0.62 2.14 0 0 Z " fill="#C6875A" transform="translate(115,72)"/>
<path d="M0 0 C-0.99 0.5 -0.99 0.5 -2 1 C-2.33 1.99 -2.66 2.98 -3 4 C-5.65 5.61 -5.65 5.61 -8.94 7.19 C-10.02 7.72 -11.1 8.25 -12.21 8.79 C-15 10 -15 10 -17 10 C-17 9.01 -17 8.02 -17 7 C-15.68 7 -14.36 7 -13 7 C-13 6.34 -13 5.68 -13 5 C-12.34 5 -11.68 5 -11 5 C-11 4.34 -11 3.68 -11 3 C-7.14 0.85 -4.45 -0.39 0 0 Z " fill="#B8794E" transform="translate(85,67)"/>
<path d="M0 0 C0.33 0 0.66 0 1 0 C0.25 7.75 0.25 7.75 -2 10 C-0.35 10.99 1.3 11.98 3 13 C2.67 14.32 2.34 15.64 2 17 C0.35 16.67 -1.3 16.34 -3 16 C-3 14.68 -3 13.36 -3 12 C-3.66 11.67 -4.32 11.34 -5 11 C-3.78 6.96 -2.37 3.51 0 0 Z " fill="#E7AD82" transform="translate(22,7)"/>
<path d="M0 0 C0.99 0 1.98 0 3 0 C2.93 2.29 2.93 2.29 2 5 C-0.35 6.42 -2.35 7.4 -4.88 8.38 C-5.51 8.65 -6.15 8.92 -6.81 9.2 C-11.58 11.14 -11.58 11.14 -15 10 C-14.32 9.6 -13.65 9.2 -12.95 8.79 C-12.06 8.26 -11.17 7.73 -10.25 7.19 C-9.37 6.67 -8.49 6.14 -7.58 5.61 C-4.9 3.93 -2.24 2.24 0 0 Z " fill="#C48558" transform="translate(81,62)"/>
<path d="M0 0 C6.88 2.88 6.88 2.88 8 4 C8.19 7.44 8.19 7.44 8 11 C7.34 11.66 6.68 12.32 6 13 C5.67 12.01 5.34 11.02 5 10 C5.33 9.34 5.66 8.68 6 8 C5.34 8 4.68 8 4 8 C3.67 7.34 3.34 6.68 3 6 C0.98 5.35 0.98 5.35 -1 5 C-0.67 3.35 -0.34 1.7 0 0 Z " fill="#FCFCF9" transform="translate(13,26)"/>
<path d="M0 0 C0 2.31 0 4.62 0 7 C2.97 7.33 5.94 7.66 9 8 C9 8.33 9 8.66 9 9 C4.05 9 -0.9 9 -6 9 C-6 8.34 -6 7.68 -6 7 C-4.68 7 -3.36 7 -2 7 C-2 6.34 -2 5.68 -2 5 C-2.99 4.67 -3.98 4.34 -5 4 C-4.67 3.01 -4.34 2.02 -4 1 C-2 0 -2 0 0 0 Z " fill="#925734" transform="translate(72,76)"/>
<path d="M0 0 C2.15 3.22 2.23 3.86 2.05 7.53 C2 8.4 1.96 9.28 1.92 10.18 C1.86 11.09 1.81 12 1.75 12.94 C1.71 13.84 1.67 14.75 1.63 15.69 C1.39 20.01 1.17 23.18 -1 27 C-1 25.68 -1 24.36 -1 23 C-1.66 23 -2.32 23 -3 23 C-2 19 -2 19 -1.44 17.19 C-0.59 12.96 -0.64 9.08 -2 5 C-1.06 2.31 -1.06 2.31 0 0 Z " fill="#BC7C51" transform="translate(113,49)"/>
<path d="M0 0 C2.97 0 5.94 0 9 0 C5 2 5 2 2.31 3 C-0.15 3.77 -0.15 3.77 -1 6 C-2.75 7.01 -4.51 8.01 -6.29 8.98 C-8.16 10.09 -9.51 11.43 -11 13 C-12.67 13 -14.33 13 -16 13 C-10.38 8 -10.38 8 -7 8 C-7 7.34 -7 6.68 -7 6 C-5.01 4.65 -3.01 3.31 -1 2 C-0.67 1.34 -0.34 0.68 0 0 Z " fill="#CF8C60" transform="translate(83,0)"/>
<path d="M0 0 C0 1.32 0 2.64 0 4 C-0.66 4 -1.32 4 -2 4 C-2 4.66 -2 5.32 -2 6 C-3.32 6.33 -4.64 6.66 -6 7 C-6 7.99 -6 8.98 -6 10 C-9.4 12.09 -12.05 12.18 -16 12 C-16.33 11.34 -16.66 10.68 -17 10 C-16.4 9.83 -15.79 9.66 -15.17 9.48 C-8.77 7.56 -8.77 7.56 -4 3 C-4 2.34 -4 1.68 -4 1 C-2 0 -2 0 0 0 Z " fill="#E0A376" transform="translate(50,68)"/>
<path d="M0 0 C0.33 0.99 0.66 1.98 1 3 C0.34 3 -0.32 3 -1 3 C-1 3.99 -1 4.98 -1 6 C-1.66 6 -2.32 6 -3 6 C-3.66 10.62 -4.32 15.24 -5 20 C-5.66 20 -6.32 20 -7 20 C-7 16.04 -7 12.08 -7 8 C-6.34 8 -5.68 8 -5 8 C-4.92 7.24 -4.84 6.47 -4.75 5.69 C-3.85 2.48 -2.78 1.71 0 0 Z " fill="#D89A6C" transform="translate(53,16)"/>
<path d="M0 0 C0.66 0.33 1.32 0.66 2 1 C1.8 1.81 1.6 2.62 1.39 3.45 C-0.17 9.28 -0.17 9.28 0.98 14.91 C2.49 16.44 2.49 16.44 5 18 C2 19 2 19 -0.19 18.06 C-1.08 17.54 -1.08 17.54 -2 17 C-2.05 14.92 -2.09 12.83 -2.12 10.75 C-2.15 9.59 -2.17 8.43 -2.2 7.23 C-2.01 4.17 -1.61 2.56 0 0 Z " fill="#D69568" transform="translate(50,22)"/>
<path d="M0 0 C0 0.66 0 1.32 0 2 C-0.99 2 -1.98 2 -3 2 C-3 2.66 -3 3.32 -3 4 C-3.99 4.33 -4.98 4.66 -6 5 C-6.66 5.66 -7.32 6.32 -8 7 C-10.12 7.62 -10.12 7.62 -12 8 C-12 6.02 -12 4.04 -12 2 C-10.76 1.67 -9.53 1.34 -8.25 1 C-7.55 0.81 -6.86 0.63 -6.14 0.44 C-4 0 -4 0 0 0 Z " fill="#CA875A" transform="translate(84,22)"/>
<path d="M0 0 C0.66 0 1.32 0 2 0 C3.96 5.54 4.02 9.21 3 15 C1.68 15 0.36 15 -1 15 C-1.07 12.58 -1.11 10.42 -0.5 8.06 C0.16 5.35 0.06 2.78 0 0 Z " fill="#C27E53" transform="translate(108,108)"/>
<path d="M0 0 C0.5 0.39 0.99 0.78 1.5 1.19 C-1.5 3.19 -1.5 3.19 -4.5 3.19 C-4.5 3.85 -4.5 4.51 -4.5 5.19 C-7.97 6.67 -7.97 6.67 -11.5 8.19 C-11.83 7.53 -12.16 6.87 -12.5 6.19 C-11.84 6.19 -11.18 6.19 -10.5 6.19 C-10.5 4.87 -10.5 3.55 -10.5 2.19 C-3.29 -1.07 -3.29 -1.07 0 0 Z " fill="#C48559" transform="translate(94.5,57.8125)"/>
<path d="M0 0 C0 0.66 0 1.32 0 2 C-0.72 2.27 -1.44 2.53 -2.18 2.81 C-5.03 4.01 -7.55 5.44 -10.19 7.06 C-14.88 9.94 -14.88 9.94 -17 11 C-14.87 6.44 -12.31 4.44 -8.06 1.81 C-6.75 0.99 -6.75 0.99 -5.41 0.14 C-3 -1 -3 -1 0 0 Z " fill="#CA8A5E" transform="translate(81,63)"/>
<path d="M0 0 C1.13 0.02 2.27 0.04 3.44 0.06 C3.44 1.38 3.44 2.7 3.44 4.06 C0.14 4.39 -3.16 4.72 -6.56 5.06 C-4.07 0.07 -4.07 0.07 0 0 Z " fill="#DE8A69" transform="translate(27.5625,48.9375)"/>
<path d="M0 0 C1.65 0.33 3.3 0.66 5 1 C5 3.31 5 5.62 5 8 C3.02 8 1.04 8 -1 8 C-2 6 -2 6 -1.06 2.88 C-0.54 1.45 -0.54 1.45 0 0 Z " fill="#BD7F55" transform="translate(118,32)"/>
<path d="M0 0 C0.99 0.33 1.98 0.66 3 1 C1.33 2.67 -0.33 4.33 -2 6 C-2.93 7.11 -2.93 7.11 -3.88 8.25 C-6.77 10.64 -9.32 10.72 -13 11 C-12.67 9.68 -12.34 8.36 -12 7 C-9.03 6.34 -6.06 5.68 -3 5 C-3 4.34 -3 3.68 -3 3 C-1.5 1.38 -1.5 1.38 0 0 Z " fill="#C5865A" transform="translate(102,48)"/>
<path d="M0 0 C2.12 1.73 2.93 2.71 3.58 5.41 C3.66 6.29 3.73 7.16 3.81 8.06 C3.9 8.94 3.99 9.82 4.08 10.72 C4 13 4 13 2 15 C0.68 12.36 -0.64 9.72 -2 7 C-1.01 7 -0.02 7 1 7 C0.34 5.02 -0.32 3.04 -1 1 C-0.67 0.67 -0.34 0.34 0 0 Z " fill="#B27952" transform="translate(99,96)"/>
<path d="M0 0 C1.65 0 3.3 0 5 0 C3.68 3.3 2.36 6.6 1 10 C-2.88 5.25 -2.88 5.25 -4 3 C-2.68 3 -1.36 3 0 3 C0 2.01 0 1.02 0 0 Z " fill="#D59468" transform="translate(112,20)"/>
<path d="M0 0 C0.33 0 0.66 0 1 0 C1 8.91 1 17.82 1 27 C0.01 27 -0.98 27 -2 27 C-2 26.01 -2 25.02 -2 24 C-1.34 24 -0.68 24 0 24 C-0.08 23.27 -0.17 22.55 -0.25 21.8 C-1.01 14.38 -0.85 7.4 0 0 Z " fill="#C48659" transform="translate(113,96)"/>
<path d="M0 0 C2.08 0.11 4.17 0.24 6.25 0.38 C7.41 0.44 8.57 0.51 9.77 0.59 C12.71 0.96 14.5 1.48 17 3 C11.87 4.71 6.87 4.88 1.94 2.56 C1.3 2.05 0.66 1.53 0 1 C0 0.67 0 0.34 0 0 Z " fill="#AF764F" transform="translate(34,86)"/>
<path d="M0 0 C-1.26 3.79 -2.52 4.22 -6 6 C-8.31 6.69 -8.31 6.69 -10 7 C-10 7.66 -10 8.32 -10 9 C-10.99 9.33 -11.98 9.66 -13 10 C-13.33 10.66 -13.66 11.32 -14 12 C-14.66 11.67 -15.32 11.34 -16 11 C-15.31 9.12 -15.31 9.12 -14 7 C-12.36 6.28 -10.69 5.61 -9 5 C-8.67 4.34 -8.34 3.68 -8 3 C-2.58 0 -2.58 0 0 0 Z " fill="#D39368" transform="translate(78,59)"/>
<path d="M0 0 C0.33 1.32 0.66 2.64 1 4 C0.34 4 -0.32 4 -1 4 C-1.33 5.98 -1.66 7.96 -2 10 C-2.99 10 -3.98 10 -5 10 C-5.66 11.98 -6.32 13.96 -7 16 C-7.66 16 -8.32 16 -9 16 C-8.34 13.69 -7.68 11.38 -7 9 C-5.68 8.67 -4.36 8.34 -3 8 C-2.81 6.58 -2.81 6.58 -2.62 5.12 C-2 2 -2 2 0 0 Z " fill="#D39367" transform="translate(111,28)"/>
<path d="M0 0 C3.96 0 7.92 0 12 0 C11.67 1.65 11.34 3.3 11 5 C10.01 4.67 9.02 4.34 8 4 C6.61 3.64 5.21 3.28 3.81 2.94 C2.55 2.63 1.3 2.32 0 2 C0 1.34 0 0.68 0 0 Z " fill="#955734" transform="translate(72,81)"/>
<path d="M0 0 C1.32 0.33 2.64 0.66 4 1 C4 2.32 4 3.64 4 5 C3.34 5 2.68 5 2 5 C2.31 6.11 2.31 6.11 2.62 7.25 C3.04 10.32 2.62 11.43 1 14 C0.67 14 0.34 14 0 14 C0 9.38 0 4.76 0 0 Z " fill="#E1A274" transform="translate(40,23)"/>
<path d="M0 0 C-0.32 3.03 -0.93 3.93 -3.25 6 C-4.16 6.66 -5.06 7.32 -6 8 C-6.93 8.74 -7.86 9.48 -8.81 10.25 C-9.53 10.83 -10.26 11.41 -11 12 C-10.41 8.67 -9.3 6.83 -7.06 4.31 C-6.54 3.71 -6.01 3.11 -5.47 2.49 C-3.64 0.64 -2.62 0 0 0 Z " fill="#D49164" transform="translate(62,14)"/>
<path d="M0 0 C1.32 0 2.64 0 4 0 C4 0.66 4 1.32 4 2 C2.26 3.04 0.51 4.05 -1.25 5.06 C-2.71 5.92 -2.71 5.92 -4.2 6.79 C-7 8 -7 8 -9.36 7.68 C-9.9 7.46 -10.44 7.23 -11 7 C-7.38 4 -7.38 4 -4 4 C-4 3.34 -4 2.68 -4 2 C-3.01 2 -2.02 2 -1 2 C-0.67 1.34 -0.34 0.68 0 0 Z " fill="#DA9B6F" transform="translate(80,54)"/>
<path d="M0 0 C0.33 0.99 0.66 1.98 1 3 C-2.75 6 -2.75 6 -5 6 C-5 6.66 -5 7.32 -5 8 C-5.66 8 -6.32 8 -7 8 C-7.1 8.64 -7.21 9.28 -7.31 9.94 C-7.54 10.62 -7.77 11.3 -8 12 C-8.99 12.33 -9.98 12.66 -11 13 C-10.19 10.56 -10.19 10.56 -9 8 C-8.01 7.67 -7.02 7.34 -6 7 C-5.69 6.38 -5.38 5.76 -5.06 5.12 C-3.8 2.59 -2.33 1.55 0 0 Z " fill="#CC895E" transform="translate(79,6)"/>
<path d="M0 0 C1.65 0 3.3 0 5 0 C3.7 5.3 1.85 9.35 -1 14 C-1.33 13.34 -1.66 12.68 -2 12 C-2.66 11.67 -3.32 11.34 -4 11 C-2.02 8.36 -0.04 5.72 2 3 C1.34 2.01 0.68 1.02 0 0 Z " fill="#EBB589" transform="translate(20,0)"/>
<path d="M0 0 C1.39 4.18 -0.05 5.79 -1.94 9.69 C-2.5 10.87 -3.07 12.05 -3.65 13.26 C-4.1 14.17 -4.54 15.07 -5 16 C-5.99 15.34 -6.98 14.68 -8 14 C-7.67 13.01 -7.34 12.02 -7 11 C-6.34 11 -5.68 11 -5 11 C-3.13 7.41 -1.57 3.72 0 0 Z " fill="#995931" transform="translate(114,44)"/>
<path d="M0 0 C1.32 0 2.64 0 4 0 C4 3.96 4 7.92 4 12 C3.34 12 2.68 12 2 12 C2 9.36 2 6.72 2 4 C1.34 4 0.68 4 0 4 C0 2.68 0 1.36 0 0 Z " fill="#DC9D70" transform="translate(42,28)"/>
<path d="M0 0 C1.95 1.87 2.98 3.22 3.05 5.98 C2.44 11.56 2.44 11.56 0 14 C-1.13 8.98 -0.78 5.02 0 0 Z " fill="#D79769" transform="translate(120,72)"/>
<path d="M0 0 C0.66 0 1.32 0 2 0 C-1.25 6.5 -1.25 6.5 -5 8 C-6.32 8 -7.64 8 -9 8 C-9 7.34 -9 6.68 -9 6 C-7.68 5.67 -6.36 5.34 -5 5 C-5 4.34 -5 3.68 -5 3 C-3.68 3 -2.36 3 -1 3 C-0.67 2.01 -0.34 1.02 0 0 Z " fill="#CD8D61" transform="translate(65,68)"/>
<path d="M0 0 C0.33 1.32 0.66 2.64 1 4 C-1.31 6.06 -1.31 6.06 -4 8 C-4.99 7.67 -5.98 7.34 -7 7 C-7 6.34 -7 5.68 -7 5 C-6.34 5 -5.68 5 -5 5 C-5 4.34 -5 3.68 -5 3 C-2.5 1.38 -2.5 1.38 0 0 Z " fill="#C8865A" transform="translate(79,9)"/>
<path d="M0 0 C1.65 0 3.3 0 5 0 C5.33 0.99 5.66 1.98 6 3 C7.65 3.33 9.3 3.66 11 4 C11.33 4.99 11.66 5.98 12 7 C3.65 4.69 3.65 4.69 0.94 1.81 C0.63 1.21 0.32 0.62 0 0 Z " fill="#BB825A" transform="translate(9,22)"/>
<path d="M0 0 C2 1 2 1 5 4 C1.7 4.66 -1.6 5.32 -5 6 C-3 2 -3 2 0 0 Z " fill="#8E532F" transform="translate(60,82)"/>
<path d="M0 0 C-0.66 1.32 -1.32 2.64 -2 4 C-4.34 3.74 -6.68 3.41 -9 3 C-9.33 2.34 -9.66 1.68 -10 1 C-3.38 -1.12 -3.38 -1.12 0 0 Z " fill="#B2754F" transform="translate(56,85)"/>
<path d="M0 0 C0.66 0.33 1.32 0.66 2 1 C2.33 1.99 2.66 2.98 3 4 C1.06 6.69 1.06 6.69 -1 9 C-1.66 7.02 -2.32 5.04 -3 3 C-2.01 2.01 -1.02 1.02 0 0 Z " fill="#955631" transform="translate(105,57)"/>
<path d="M0 0 C0.33 0.66 0.66 1.32 1 2 C2.32 2 3.64 2 5 2 C5 2.66 5 3.32 5 4 C4.3 4.13 3.6 4.27 2.88 4.4 C1.97 4.58 1.06 4.76 0.12 4.94 C-0.78 5.11 -1.68 5.29 -2.62 5.46 C-5 5.9 -5 5.9 -7 7 C-6 4 -6 4 -3 2 C-2.01 2 -1.02 2 0 2 C0 1.34 0 0.68 0 0 Z " fill="#D18F61" transform="translate(83,26)"/>
<path d="M0 0 C1.89 0.03 1.89 0.03 3.81 0.06 C2.31 2.12 2.31 2.12 -0.19 4.06 C-3.01 4.12 -5.39 3.62 -8.19 3.06 C-6.46 -0.4 -3.47 -0.06 0 0 Z " fill="#CD8A5D" transform="translate(100.1875,15.9375)"/>
<path d="M0 0 C1.32 0.33 2.64 0.66 4 1 C3.34 1 2.68 1 2 1 C1.9 1.64 1.79 2.28 1.69 2.94 C1.46 3.62 1.23 4.3 1 5 C0.01 5.33 -0.98 5.66 -2 6 C-3.21 8 -3.21 8 -4 10 C-4.66 10 -5.32 10 -6 10 C-4.75 6.35 -4.33 5.22 -1 3 C-0.67 2.01 -0.34 1.02 0 0 Z " fill="#D08F61" transform="translate(62,14)"/>
<path d="M0 0 C0 0.66 0 1.32 0 2 C-1.65 2.33 -3.3 2.66 -5 3 C-5 3.66 -5 4.32 -5 5 C-5.66 5 -6.32 5 -7 5 C-7 5.66 -7 6.32 -7 7 C-7.66 7 -8.32 7 -9 7 C-8.69 4.62 -8.69 4.62 -8 2 C-4.77 -0.15 -3.72 -0.2 0 0 Z " fill="#E1A476" transform="translate(68,0)"/>
<path d="M0 0 C-1.89 1.01 -3.79 2.01 -5.69 3 C-7.27 3.84 -7.27 3.84 -8.89 4.69 C-11.92 5.97 -13.76 6.29 -17 6 C-16.36 5.9 -15.72 5.79 -15.06 5.69 C-14.38 5.46 -13.7 5.23 -13 5 C-12.67 4.01 -12.34 3.02 -12 2 C-9.06 0.88 -9.06 0.88 -6 0 C-3.51 -1.25 -2.59 -0.78 0 0 Z " fill="#D59569" transform="translate(56,76)"/>
<path d="M0 0 C-0.33 1.32 -0.66 2.64 -1 4 C-2.65 4.33 -4.3 4.66 -6 5 C-6 5.66 -6 6.32 -6 7 C-7.32 6.67 -8.64 6.34 -10 6 C-9.34 6 -8.68 6 -8 6 C-8 5.01 -8 4.02 -8 3 C-2.25 0 -2.25 0 0 0 Z " fill="#CC8D61" transform="translate(90,55)"/>
<path d="M0 0 C0.93 2.61 1.15 3.64 0.06 6.25 C-0.46 7.12 -0.46 7.12 -1 8 C-1.66 7.67 -2.32 7.34 -3 7 C-2.67 6.34 -2.34 5.68 -2 5 C-2.66 5 -3.32 5 -4 5 C-4.33 5.99 -4.66 6.98 -5 8 C-5.66 7.67 -6.32 7.34 -7 7 C-5.12 3.43 -3.83 1.45 0 0 Z " fill="#B8794D" transform="translate(113,42)"/>
<path d="M0 0 C0.66 0 1.32 0 2 0 C1.39 4.13 0.12 7.4 -2 11 C-2.99 11.33 -3.98 11.66 -5 12 C-3.41 7.96 -1.72 3.98 0 0 Z " fill="#C5865A" transform="translate(115,27)"/>
<path d="M0 0 C0.66 0.33 1.32 0.66 2 1 C1.67 1.99 1.34 2.98 1 4 C-4.28 4 -9.56 4 -15 4 C-15 3.67 -15 3.34 -15 3 C-14 2.87 -13 2.73 -11.97 2.6 C-10.68 2.42 -9.39 2.24 -8.06 2.06 C-6.77 1.89 -5.49 1.71 -4.16 1.54 C-1.15 1.34 -1.15 1.34 0 0 Z " fill="#CD8E5F" transform="translate(75,30)"/>
<path d="M0 0 C5.45 1.48 5.45 1.48 11 3 C11 3.66 11 4.32 11 5 C7.37 4.67 3.74 4.34 0 4 C0 2.68 0 1.36 0 0 Z " fill="#D79B6F" transform="translate(8,18)"/>
<path d="M0 0 C0 1.65 0 3.3 0 5 C-1.32 5 -2.64 5 -4 5 C-4 5.66 -4 6.32 -4 7 C-5.32 7 -6.64 7 -8 7 C-8 6.34 -8 5.68 -8 5 C-2.52 0 -2.52 0 0 0 Z " fill="#D39164" transform="translate(104,19)"/>
<path d="M0 0 C0.99 0.33 1.98 0.66 3 1 C1.68 3.31 0.36 5.62 -1 8 C-2.32 7.34 -3.64 6.68 -5 6 C-3.35 4.02 -1.7 2.04 0 0 Z " fill="#E1AB86" transform="translate(20,1)"/>
<path d="M0 0 C4.29 0.66 8.58 1.32 13 2 C13 2.66 13 3.32 13 4 C9.37 4 5.74 4 2 4 C1.34 2.68 0.68 1.36 0 0 Z " fill="#C48559" transform="translate(31,82)"/>
<path d="M0 0 C0.99 0 1.98 0 3 0 C2.67 1.32 2.34 2.64 2 4 C-1.63 4 -5.26 4 -9 4 C-8.67 3.34 -8.34 2.68 -8 2 C-5.67 1.63 -3.34 1.29 -1 1 C-0.67 0.67 -0.34 0.34 0 0 Z " fill="#D19163" transform="translate(77,32)"/>
<path d="M0 0 C2.69 -0.31 2.69 -0.31 5 0 C5 0.99 5 1.98 5 3 C4.01 3.33 3.02 3.66 2 4 C1.67 4.66 1.34 5.32 1 6 C-0.32 5.67 -1.64 5.34 -3 5 C-1.81 2.5 -1.81 2.5 0 0 Z " fill="#FDFFFF" transform="translate(12,2)"/>
<path d="M0 0 C1.98 0 3.96 0 6 0 C6 0.66 6 1.32 6 2 C4.02 2.33 2.04 2.66 0 3 C0 3.66 0 4.32 0 5 C-1.32 5.33 -2.64 5.66 -4 6 C-4.33 5.01 -4.66 4.02 -5 3 C-3.35 2.67 -1.7 2.34 0 2 C0 1.34 0 0.68 0 0 Z " fill="#DF9E70" transform="translate(68,0)"/>
<path d="M0 0 C0.66 0.33 1.32 0.66 2 1 C0.68 1.99 -0.64 2.98 -2 4 C-1.34 2.68 -0.68 1.36 0 0 Z M-5 4 C-4.01 4.33 -3.02 4.66 -2 5 C-7.75 10 -7.75 10 -10 10 C-8.63 6.84 -8.01 6.01 -5 4 Z " fill="#C58659" transform="translate(110,0)"/>
<path d="M0 0 C-0.33 0.99 -0.66 1.98 -1 3 C-2.65 3.33 -4.3 3.66 -6 4 C-6 4.66 -6 5.32 -6 6 C-7.32 6 -8.64 6 -10 6 C-9 3 -9 3 -6.12 1.31 C-3 0 -3 0 0 0 Z " fill="#D8996D" transform="translate(70,62)"/>
<path d="M0 0 C2.31 0.33 4.62 0.66 7 1 C7.33 2.65 7.66 4.3 8 6 C7.01 6.5 7.01 6.5 6 7 C1.12 2.25 1.12 2.25 0 0 Z " fill="#A76A44" transform="translate(25,59)"/>
<path d="M0 0 C1 3 1 3 0.11 5.41 C-0.34 6.29 -0.79 7.16 -1.25 8.06 C-1.69 8.94 -2.13 9.82 -2.58 10.72 C-4 13 -4 13 -7 15 C-6.71 14.3 -6.42 13.6 -6.12 12.88 C-4.98 9.95 -3.97 6.99 -3 4 C-2.34 4 -1.68 4 -1 4 C-0.67 2.68 -0.34 1.36 0 0 Z " fill="#CC8B5F" transform="translate(113,28)"/>
<path d="M0 0 C0.99 0.33 1.98 0.66 3 1 C0.69 3.64 -1.62 6.28 -4 9 C-4.33 7.68 -4.66 6.36 -5 5 C-4.36 4.73 -3.72 4.46 -3.06 4.19 C-0.67 3.11 -0.67 3.11 0 0 Z " fill="#FEFCF8" transform="translate(14,5)"/>
<path d="M0 0 C1.32 0.33 2.64 0.66 4 1 C-0.31 5.92 -0.31 5.92 -3.81 6.31 C-4.9 6.16 -4.9 6.16 -6 6 C-5.34 5.67 -4.68 5.34 -4 5 C-3.67 4.01 -3.34 3.02 -3 2 C-2.01 2 -1.02 2 0 2 C0 1.34 0 0.68 0 0 Z " fill="#D49164" transform="translate(68,8)"/>
<path d="M0 0 C4.72 2.42 4.72 2.42 5.94 4.94 C6.01 7.47 5.18 8.8 4 11 C3.33 9.73 2.66 8.46 2 7.19 C1.63 6.48 1.26 5.77 0.88 5.04 C0 3 0 3 0 0 Z " fill="#B87D59" transform="translate(102,111)"/>
<path d="M0 0 C0.66 0 1.32 0 2 0 C2.33 3.63 2.66 7.26 3 11 C2.01 11 1.02 11 0 11 C0 7.37 0 3.74 0 0 Z " fill="#C7895E" transform="translate(114,112)"/>
<path d="M0 0 C0.66 0.33 1.32 0.66 2 1 C2.33 1.99 2.66 2.98 3 4 C0.53 5.48 0.53 5.48 -2 7 C-2.66 6.34 -3.32 5.68 -4 5 C-4 4.34 -4 3.68 -4 3 C-2 1.38 -2 1.38 0 0 Z " fill="#B5754C" transform="translate(101,55)"/>
<path d="M0 0 C1.32 0 2.64 0 4 0 C4 3.96 4 7.92 4 12 C3.67 12 3.34 12 3 12 C3 9.36 3 6.72 3 4 C2.01 4 1.02 4 0 4 C0 2.68 0 1.36 0 0 Z " fill="#BF7D54" transform="translate(106,96)"/>
<path d="M0 0 C0.62 0.8 1.24 1.61 1.88 2.44 C3.74 5.04 3.74 5.04 6 6 C6 6.99 6 7.98 6 9 C3.56 8.62 3.56 8.62 1 8 C-0.35 5.29 -0.07 2.99 0 0 Z " fill="#915731" transform="translate(117,24)"/>
<path d="M0 0 C0.66 0 1.32 0 2 0 C1.67 3.96 1.34 7.92 1 12 C-1.49 7.01 -0.89 5.33 0 0 Z " fill="#CE8F63" transform="translate(117,88)"/>
<path d="M0 0 C0 0.66 0 1.32 0 2 C-3.47 3.48 -3.47 3.48 -7 5 C-6.62 2.56 -6.62 2.56 -6 0 C-3.51 -1.25 -2.59 -0.78 0 0 Z " fill="#B5764E" transform="translate(90,65)"/>
<path d="M0 0 C0.66 0 1.32 0 2 0 C1.01 3.96 0.02 7.92 -1 12 C-1.33 12 -1.66 12 -2 12 C-2.29 3.43 -2.29 3.43 0 0 Z " fill="#CF9063" transform="translate(121,56)"/>
<path d="M0 0 C0.66 0 1.32 0 2 0 C2 2.31 2 4.62 2 7 C0.68 7 -0.64 7 -2 7 C-2.33 6.34 -2.66 5.68 -3 5 C-1.69 2.38 -1.69 2.38 0 0 Z " fill="#B4754A" transform="translate(114,37)"/>
<path d="M0 0 C0.66 0.33 1.32 0.66 2 1 C2.12 4.38 2.12 4.38 2 8 C1.34 8.66 0.68 9.32 0 10 C-0.33 9.01 -0.66 8.02 -1 7 C-0.67 6.34 -0.34 5.68 0 5 C-0.66 5 -1.32 5 -2 5 C-2.33 4.01 -2.66 3.02 -3 2 C-2.34 2 -1.68 2 -1 2 C-0.67 2.33 -0.34 2.66 0 3 C0 2.01 0 1.02 0 0 Z " fill="#FEFEFA" transform="translate(19,29)"/>
<path d="M0 0 C-1.41 2.82 -3.08 2.98 -6 4 C-7.33 4.36 -8.66 4.7 -10 5 C-7.62 -0.26 -5.61 -0.12 0 0 Z " fill="#CA875A" transform="translate(92,1)"/>
<path d="M0 0 C1.65 0 3.3 0 5 0 C4.01 1.48 4.01 1.48 3 3 C2.34 3 1.68 3 1 3 C0.34 4.32 -0.32 5.64 -1 7 C-1.33 7 -1.66 7 -2 7 C-2 5.35 -2 3.7 -2 2 C-1.34 2 -0.68 2 0 2 C0 1.34 0 0.68 0 0 Z " fill="#D79366" transform="translate(74,0)"/>
<path d="M0 0 C0.33 0 0.66 0 1 0 C1 3.3 1 6.6 1 10 C0.01 10 -0.98 10 -2 10 C-1.34 6.7 -0.68 3.4 0 0 Z " fill="#E3A67B" transform="translate(37,26)"/>
<path d="M0 0 C-0.6 0.29 -1.2 0.58 -1.81 0.88 C-4.19 2.05 -4.19 2.05 -7 4 C-7 3.34 -7 2.68 -7 2 C-7.99 1.67 -8.98 1.34 -10 1 C-6.15 -1.57 -4.41 -0.83 0 0 Z " fill="#CB885D" transform="translate(95,20)"/>
<path d="M0 0 C0.66 0 1.32 0 2 0 C3.33 3.98 3.07 7.85 3 12 C2.67 12 2.34 12 2 12 C0.41 7.82 -0.21 4.47 0 0 Z " fill="#C18155" transform="translate(110,108)"/>
<path d="M0 0 C0.99 0.33 1.98 0.66 3 1 C3 3.64 3 6.28 3 9 C2.01 9 1.02 9 0 9 C0 6.03 0 3.06 0 0 Z " fill="#E1A276" transform="translate(117,103)"/>
<path d="M0 0 C0.74 0.25 1.48 0.5 2.25 0.75 C-0.58 4 -2.44 5.27 -6.75 5.75 C-6.75 3.75 -6.75 3.75 -5.06 1.56 C-2.75 -0.25 -2.75 -0.25 0 0 Z " fill="#D99A6E" transform="translate(58.75,68.25)"/>
<path d="M0 0 C1.32 0 2.64 0 4 0 C4 0.99 4 1.98 4 3 C1.36 3.66 -1.28 4.32 -4 5 C-4 4.01 -4 3.02 -4 2 C-2.68 2 -1.36 2 0 2 C0 1.34 0 0.68 0 0 Z " fill="#D49365" transform="translate(108,20)"/>
<path d="M0 0 C1.32 0.33 2.64 0.66 4 1 C3.34 3.31 2.68 5.62 2 8 C1.34 8 0.68 8 0 8 C0 5.36 0 2.72 0 0 Z " fill="#BA7A50" transform="translate(106,76)"/>
<path d="M0 0 C0.99 0.33 1.98 0.66 3 1 C2.34 1 1.68 1 1 1 C0.67 2.65 0.34 4.3 0 6 C-1.32 5.34 -2.64 4.68 -4 4 C-2.68 2.68 -1.36 1.36 0 0 Z " fill="#B27348" transform="translate(97,74)"/>
<path d="M0 0 C1.5 1.38 1.5 1.38 3 3 C3 3.66 3 4.32 3 5 C0.03 5 -2.94 5 -6 5 C-3 2 -3 2 0 0 Z " fill="#D09067" transform="translate(29,55)"/>
<path d="M0 0 C1.32 0 2.64 0 4 0 C4 1.32 4 2.64 4 4 C2.02 4 0.04 4 -2 4 C-2.33 3.34 -2.66 2.68 -3 2 C-2.01 2 -1.02 2 0 2 C0 1.34 0 0.68 0 0 Z " fill="#BD7D53" transform="translate(119,36)"/>
<path d="M0 0 C1.32 0.33 2.64 0.66 4 1 C3.67 1.99 3.34 2.98 3 4 C2.01 3.67 1.02 3.34 0 3 C-0.33 3.66 -0.66 4.32 -1 5 C-1.99 4.34 -2.98 3.68 -4 3 C-2.68 2.67 -1.36 2.34 0 2 C0 1.34 0 0.68 0 0 Z " fill="#D7966A" transform="translate(92,32)"/>
<path d="M0 0 C0.33 0 0.66 0 1 0 C1.12 5.75 1.12 5.75 0 8 C0.66 8.33 1.32 8.66 2 9 C1.34 9 0.68 9 0 9 C-0.33 9.66 -0.66 10.32 -1 11 C-1.99 10.01 -2.98 9.02 -4 8 C-3.53 7.61 -3.05 7.22 -2.56 6.81 C-0.65 4.59 -0.39 2.87 0 0 Z " fill="#EDB285" transform="translate(31,21)"/>
<path d="M0 0 C5.54 0.62 5.54 0.62 7.88 2.56 C8.43 3.27 8.43 3.27 9 4 C2.25 3.12 2.25 3.12 0 2 C0 1.34 0 0.68 0 0 Z " fill="#854B26" transform="translate(15,23)"/>
<path d="M0 0 C1.98 0 3.96 0 6 0 C5.25 1.94 5.25 1.94 4 4 C1.88 4.75 1.88 4.75 0 5 C0 3.35 0 1.7 0 0 Z " fill="#C38256" transform="translate(104,0)"/>
<path d="M0 0 C0.66 0 1.32 0 2 0 C2 1.32 2 2.64 2 4 C2.66 4 3.32 4 4 4 C4 4.99 4 5.98 4 7 C2.68 6.67 1.36 6.34 0 6 C0 4.02 0 2.04 0 0 Z " fill="#DD9D72" transform="translate(119,116)"/>
<path d="M0 0 C2.8 2.07 3.03 3.14 3.69 6.69 C3.79 7.78 3.89 8.87 4 10 C3.34 10 2.68 10 2 10 C0.68 6.38 0 3.9 0 0 Z " fill="#B87C56" transform="translate(99,96)"/>
<path d="M0 0 C-2 2 -2 2 -5.12 2.12 C-6.55 2.06 -6.55 2.06 -8 2 C-8.33 1.34 -8.66 0.68 -9 0 C-5.67 -1.11 -3.38 -0.84 0 0 Z " fill="#DEA074" transform="translate(42,78)"/>
<path d="M0 0 C0.99 0 1.98 0 3 0 C3 2.97 3 5.94 3 9 C0.94 7.31 0.94 7.31 -1 5 C-0.75 2.25 -0.75 2.25 0 0 Z " fill="#B8784D" transform="translate(110,55)"/>
<path d="M0 0 C0.66 0 1.32 0 2 0 C1.34 1.32 0.68 2.64 0 4 C-0.66 4 -1.32 4 -2 4 C-2 4.66 -2 5.32 -2 6 C-3.32 6.33 -4.64 6.66 -6 7 C-5.67 6.01 -5.34 5.02 -5 4 C-4.34 4 -3.68 4 -3 4 C-2.67 3.34 -2.34 2.68 -2 2 C-1.34 1.34 -0.68 0.68 0 0 Z " fill="#C08155" transform="translate(103,50)"/>
<path d="M0 0 C1.32 0 2.64 0 4 0 C4 1.32 4 2.64 4 4 C2.35 4.33 0.7 4.66 -1 5 C-0.67 3.35 -0.34 1.7 0 0 Z " fill="#C38559" transform="translate(119,44)"/>
<path d="M0 0 C1.65 0 3.3 0 5 0 C5.33 1.98 5.66 3.96 6 6 C3.98 4.36 1.98 2.69 0 1 C0 0.67 0 0.34 0 0 Z " fill="#AD734E" transform="translate(86,88)"/>
<path d="M0 0 C2.47 0.99 2.47 0.99 5 2 C5 2.99 5 3.98 5 5 C3.35 4.67 1.7 4.34 0 4 C0 2.68 0 1.36 0 0 Z " fill="#FCF8F3" transform="translate(81,86)"/>
<path d="M0 0 C1.32 0.33 2.64 0.66 4 1 C3.67 1.99 3.34 2.98 3 4 C1.68 3.67 0.36 3.34 -1 3 C-1.33 3.66 -1.66 4.32 -2 5 C-2.66 4.34 -3.32 3.68 -4 3 C-2.68 2.67 -1.36 2.34 0 2 C0 1.34 0 0.68 0 0 Z " fill="#B9794E" transform="translate(54,81)"/>
<path d="M0 0 C0.66 0 1.32 0 2 0 C5 3.46 5 3.46 5 6 C3.33 6 1.67 6 0 6 C0 4.02 0 2.04 0 0 Z " fill="#DFAA86" transform="translate(29,74)"/>
<path d="M0 0 C1.32 0.66 2.64 1.32 4 2 C-1.75 5 -1.75 5 -4 5 C-4 4.01 -4 3.02 -4 2 C-2.68 2 -1.36 2 0 2 C0 1.34 0 0.68 0 0 Z " fill="#B7794F" transform="translate(72,72)"/>
<path d="M0 0 C0.54 0.23 1.07 0.45 1.62 0.69 C-1.38 2.69 -1.38 2.69 -4.38 2.69 C-4.38 3.35 -4.38 4.01 -4.38 4.69 C-5.69 4.03 -7.02 3.37 -8.38 2.69 C-2.96 -0.39 -2.96 -0.39 0 0 Z " fill="#D49468" transform="translate(86.375,55.3125)"/>
<path d="M0 0 C1.32 0.66 2.64 1.32 4 2 C2.68 2 1.36 2 0 2 C0 2.66 0 3.32 0 4 C0.99 4.33 1.98 4.66 3 5 C1.02 5 -0.96 5 -3 5 C-1.12 1.12 -1.12 1.12 0 0 Z " fill="#D78664" transform="translate(24,49)"/>
<path d="M0 0 C0.66 0 1.32 0 2 0 C2 1.98 2 3.96 2 6 C0.68 5.34 -0.64 4.68 -2 4 C-1.34 2.68 -0.68 1.36 0 0 Z " fill="#E5AC85" transform="translate(121,20)"/>
<path d="M0 0 C0.99 0 1.98 0 3 0 C2.67 1.65 2.34 3.3 2 5 C1.01 5 0.02 5 -1 5 C-0.67 3.35 -0.34 1.7 0 0 Z " fill="#CC895E" transform="translate(63,20)"/>
<path d="M0 0 C-0.66 0.66 -1.32 1.32 -2 2 C-4.73 1.97 -7.3 1.44 -10 1 C-10 0.67 -10 0.34 -10 0 C-6.34 -0.75 -3.58 -1.24 0 0 Z " fill="#F6F2EB" transform="translate(58,89)"/>
<path d="M0 0 C1.98 0.99 1.98 0.99 4 2 C4 2.66 4 3.32 4 4 C5.32 4.33 6.64 4.66 8 5 C2.25 5.12 2.25 5.12 0 4 C0 2.68 0 1.36 0 0 Z " fill="#D49467" transform="translate(30,78)"/>
<path d="M0 0 C0.33 0.99 0.66 1.98 1 3 C0.34 3 -0.32 3 -1 3 C-1 3.99 -1 4.98 -1 6 C-2.32 5.67 -3.64 5.34 -5 5 C-3.35 3.35 -1.7 1.7 0 0 Z " fill="#DC9B6D" transform="translate(53,16)"/>
<path d="M0 0 C1.45 0.03 1.45 0.03 2.94 0.06 C2.28 1.71 1.62 3.36 0.94 5.06 C0.61 4.07 0.28 3.08 -0.06 2.06 C-2.08 1.33 -2.08 1.33 -4.06 1.06 C-3.06 0.06 -3.06 0.06 0 0 Z " fill="#FDFAF7" transform="translate(17.0625,-0.0625)"/>
<path d="M0 0 C1.5 1.38 1.5 1.38 3 3 C3 3.66 3 4.32 3 5 C1.35 4.67 -0.3 4.34 -2 4 C-1.34 2.68 -0.68 1.36 0 0 Z " fill="#AF7148" transform="translate(85,83)"/>
<path d="M0 0 C0.66 0 1.32 0 2 0 C2 1.32 2 2.64 2 4 C0.02 4 -1.96 4 -4 4 C-4 3.34 -4 2.68 -4 2 C-2.68 2 -1.36 2 0 2 C0 1.34 0 0.68 0 0 Z " fill="#B97B50" transform="translate(104,84)"/>
<path d="M0 0 C-4.62 3 -4.62 3 -8 3 C-8 2.34 -8 1.68 -8 1 C-4.93 -0.86 -3.4 -1.22 0 0 Z " fill="#C8885C" transform="translate(60,77)"/>
<path d="M0 0 C0 0.99 0 1.98 0 3 C-4.62 5.12 -4.62 5.12 -8 4 C-2.25 0 -2.25 0 0 0 Z " fill="#C5875A" transform="translate(74,68)"/>
<path d="M0 0 C1.65 0 3.3 0 5 0 C5 0.99 5 1.98 5 3 C3.02 3 1.04 3 -1 3 C-0.67 2.01 -0.34 1.02 0 0 Z " fill="#DC9F73" transform="translate(39,64)"/>
<path d="M0 0 C0.66 1.32 1.32 2.64 2 4 C-1 5 -1 5 -3.19 4.06 C-3.79 3.71 -4.38 3.36 -5 3 C-3.35 2.01 -1.7 1.02 0 0 Z " fill="#975832" transform="translate(101,60)"/>
<path d="M0 0 C-2.25 2.06 -2.25 2.06 -5 4 C-7.31 3.75 -7.31 3.75 -9 3 C-5.93 0.27 -4.1 -0.34 0 0 Z " fill="#D99A6E" transform="translate(78,58)"/>
<path d="M0 0 C1.32 0 2.64 0 4 0 C4 1.32 4 2.64 4 4 C2.68 4 1.36 4 0 4 C0 2.68 0 1.36 0 0 Z " fill="#DC9D72" transform="translate(52,44)"/>
<path d="M0 0 C2.96 0.61 4.38 1.25 7 3 C5.02 3.33 3.04 3.66 1 4 C0.67 2.68 0.34 1.36 0 0 Z " fill="#D4966C" transform="translate(20,27)"/>
<path d="M0 0 C1.98 0.99 1.98 0.99 4 2 C4 3.32 4 4.64 4 6 C2.68 5.34 1.36 4.68 0 4 C0 2.68 0 1.36 0 0 Z " fill="#D39569" transform="translate(119,24)"/>
<path d="M0 0 C1.32 0 2.64 0 4 0 C3.67 1.32 3.34 2.64 3 4 C2.34 4 1.68 4 1 4 C0.67 4.66 0.34 5.32 0 6 C0 4.02 0 2.04 0 0 Z " fill="#E9AC7E" transform="translate(40,16)"/>
<path d="M0 0 C0.33 0.99 0.66 1.98 1 3 C-0.81 4.56 -0.81 4.56 -3 6 C-3.99 5.67 -4.98 5.34 -6 5 C-4.02 3.35 -2.04 1.7 0 0 Z " fill="#CD8A5F" transform="translate(79,6)"/>
<path d="M0 0 C0.66 0.33 1.32 0.66 2 1 C1.67 2.98 1.34 4.96 1 7 C0.34 6.34 -0.32 5.68 -1 5 C-0.62 2.38 -0.62 2.38 0 0 Z " fill="#D5956A" transform="translate(120,79)"/>
<path d="M0 0 C0 0.66 0 1.32 0 2 C-3.23 4.15 -4.28 4.2 -8 4 C-2.78 0 -2.78 0 0 0 Z " fill="#D89A6D" transform="translate(52,74)"/>
<path d="M0 0 C0.33 0.99 0.66 1.98 1 3 C1.66 3.33 2.32 3.66 3 4 C1.68 4.99 0.36 5.98 -1 7 C-1.04 5 -1.04 3 -1 1 C-0.67 0.67 -0.34 0.34 0 0 Z " fill="#995A34" transform="translate(97,68)"/>
<path d="M0 0 C1.98 0 3.96 0 6 0 C3.61 1.89 1.93 3.02 -1 4 C-1.33 3.34 -1.66 2.68 -2 2 C-1.34 2 -0.68 2 0 2 C0 1.34 0 0.68 0 0 Z " fill="#C18156" transform="translate(84,62)"/>
<path d="M0 0 C-0.33 0.99 -0.66 1.98 -1 3 C-3.56 4.19 -3.56 4.19 -6 5 C-3.74 0 -3.74 0 0 0 Z " fill="#D18E61" transform="translate(94,23)"/>
<path d="M0 0 C0.99 0.33 1.98 0.66 3 1 C1.68 1.33 0.36 1.66 -1 2 C-1 2.99 -1 3.98 -1 5 C-1.99 5 -2.98 5 -4 5 C-2.25 1.12 -2.25 1.12 0 0 Z " fill="#E0A275" transform="translate(45,73)"/>
<path d="M0 0 C0.66 0 1.32 0 2 0 C1.31 1.94 1.31 1.94 0 4 C-2.62 4.75 -2.62 4.75 -5 5 C-5 4.34 -5 3.68 -5 3 C-3.68 3 -2.36 3 -1 3 C-0.67 2.01 -0.34 1.02 0 0 Z " fill="#CE9063" transform="translate(65,68)"/>
<path d="M0 0 C-0.33 0.99 -0.66 1.98 -1 3 C-3.31 3.33 -5.62 3.66 -8 4 C-2.78 0 -2.78 0 0 0 Z " fill="#D59569" transform="translate(78,59)"/>
<path d="M0 0 C0.12 0.58 0.25 1.16 0.38 1.75 C1.01 4.02 1.89 5.93 3 8 C1.68 7.34 0.36 6.68 -1 6 C-1.04 4.33 -1.04 2.67 -1 1 C-0.67 0.67 -0.34 0.34 0 0 Z " fill="#FCFFFF" transform="translate(19,54)"/>
<path d="M0 0 C0.66 0.33 1.32 0.66 2 1 C0.68 2.32 -0.64 3.64 -2 5 C-2.66 4.67 -3.32 4.34 -4 4 C-3.67 3.01 -3.34 2.02 -3 1 C-2.01 0.67 -1.02 0.34 0 0 Z " fill="#C8895E" transform="translate(93,54)"/>
<path d="M0 0 C0.66 0 1.32 0 2 0 C1.67 1.32 1.34 2.64 1 4 C1.66 4 2.32 4 3 4 C3 4.66 3 5.32 3 6 C1.35 5.67 -0.3 5.34 -2 5 C-1.34 4.67 -0.68 4.34 0 4 C0 2.68 0 1.36 0 0 Z " fill="#E4A97C" transform="translate(30,40)"/>
<path d="M0 0 C0.66 0 1.32 0 2 0 C1.25 4.75 1.25 4.75 -1 7 C-1.04 5 -1.04 3 -1 1 C-0.67 0.67 -0.34 0.34 0 0 Z " fill="#C28357" transform="translate(115,27)"/>
<path d="M0 0 C2.34 0.26 4.68 0.59 7 1 C7.33 1.66 7.66 2.32 8 3 C2.25 2.25 2.25 2.25 0 0 Z " fill="#D3966B" transform="translate(19,23)"/>
<path d="M0 0 C1.32 0.33 2.64 0.66 4 1 C2.52 2.48 2.52 2.48 1 4 C-0.32 3.34 -1.64 2.68 -3 2 C-2.01 2 -1.02 2 0 2 C0 1.34 0 0.68 0 0 Z " fill="#D28F62" transform="translate(97,20)"/>
<path d="M0 0 C0.66 1.32 1.32 2.64 2 4 C0.35 4.66 -1.3 5.32 -3 6 C-2.01 4.02 -1.02 2.04 0 0 Z " fill="#E1A67A" transform="translate(46,13)"/>
<path d="M0 0 C0.99 0 1.98 0 3 0 C2.67 1.32 2.34 2.64 2 4 C0.68 3.67 -0.64 3.34 -2 3 C-1.34 2.01 -0.68 1.02 0 0 Z " fill="#E1A579" transform="translate(56,4)"/>
<path d="M0 0 C0.33 0.99 0.66 1.98 1 3 C0.01 3.66 -0.98 4.32 -2 5 C-2 4.34 -2 3.68 -2 3 C-2.66 2.67 -3.32 2.34 -4 2 C-2.68 1.34 -1.36 0.68 0 0 Z " fill="#B7764B" transform="translate(60,79)"/>
<path d="M0 0 C-4.75 3 -4.75 3 -7 3 C-6.67 2.01 -6.34 1.02 -6 0 C-3.43 -1 -2.51 -1.26 0 0 Z " fill="#B76640" transform="translate(29,56)"/>
<path d="M0 0 C2 2 2 2 2 5 C1.01 5.33 0.02 5.66 -1 6 C-1.04 4.33 -1.04 2.67 -1 1 C-0.67 0.67 -0.34 0.34 0 0 Z " fill="#FFFFFD" transform="translate(1,19)"/>
<path d="M0 0 C1.68 0.97 3.35 1.97 5 3 C5 3.33 5 3.66 5 4 C3.35 4 1.7 4 0 4 C0 2.68 0 1.36 0 0 Z " fill="#D69364" transform="translate(8,18)"/>
<path d="M0 0 C0.99 0.33 1.98 0.66 3 1 C1.68 2.32 0.36 3.64 -1 5 C-1.66 4.34 -2.32 3.68 -3 3 C-2.34 3 -1.68 3 -1 3 C-0.67 2.01 -0.34 1.02 0 0 Z " fill="#FDF8EF" transform="translate(14,5)"/>
<path d="M0 0 C0 0.99 0 1.98 0 3 C-1.32 3.33 -2.64 3.66 -4 4 C-4.33 3.01 -4.66 2.02 -5 1 C-2 0 -2 0 0 0 Z " fill="#DFA072" transform="translate(68,2)"/>
<path d="M0 0 C2 1.31 2 1.31 4 3 C4 3.99 4 4.98 4 6 C3.01 5.67 2.02 5.34 1 5 C0.67 3.35 0.34 1.7 0 0 Z " fill="#B57B56" transform="translate(102,111)"/>
<path d="M0 0 C0.99 0.33 1.98 0.66 3 1 C2.67 1.99 2.34 2.98 2 4 C0.68 3.67 -0.64 3.34 -2 3 C-1.34 2.67 -0.68 2.34 0 2 C0 1.34 0 0.68 0 0 Z " fill="#B27148" transform="translate(53,84)"/>
<path d="M0 0 C-0.33 0.99 -0.66 1.98 -1 3 C-2.65 3 -4.3 3 -6 3 C-3.38 0 -3.38 0 0 0 Z " fill="#D8986C" transform="translate(70,62)"/>
<path d="M0 0 C1.65 0 3.3 0 5 0 C5.33 0.99 5.66 1.98 6 3 C3.56 2.62 3.56 2.62 1 2 C0.67 1.34 0.34 0.68 0 0 Z " fill="#EBB58E" transform="translate(24,41)"/>
<path d="M0 0 C0.99 0 1.98 0 3 0 C3 1.32 3 2.64 3 4 C2.01 4 1.02 4 0 4 C0 2.68 0 1.36 0 0 Z " fill="#C08155" transform="translate(120,40)"/>
<path d="M0 0 C0.99 0 1.98 0 3 0 C2.34 1.98 1.68 3.96 1 6 C0.67 6 0.34 6 0 6 C0 4.02 0 2.04 0 0 Z " fill="#D59464" transform="translate(112,24)"/>
<path d="M0 0 C1.32 0 2.64 0 4 0 C4 0.99 4 1.98 4 3 C2.68 3 1.36 3 0 3 C0 2.01 0 1.02 0 0 Z " fill="#C7875C" transform="translate(68,24)"/>
<path d="M0 0 C0.99 0 1.98 0 3 0 C2.67 1.32 2.34 2.64 2 4 C1.01 3.67 0.02 3.34 -1 3 C-0.67 2.01 -0.34 1.02 0 0 Z " fill="#E3A579" transform="translate(41,20)"/>
<path d="M0 0 C0.66 0.33 1.32 0.66 2 1 C0.68 2.32 -0.64 3.64 -2 5 C-2 3.68 -2 2.36 -2 1 C-1.34 0.67 -0.68 0.34 0 0 Z " fill="#E4AB7D" transform="translate(11,14)"/>
<path d="M0 0 C1.32 0.66 2.64 1.32 4 2 C4 2.66 4 3.32 4 4 C2.35 3.67 0.7 3.34 -1 3 C-0.67 2.01 -0.34 1.02 0 0 Z " fill="#E9AE84" transform="translate(20,14)"/>
<path d="M0 0 C1.65 0 3.3 0 5 0 C5 0.66 5 1.32 5 2 C3.35 2.33 1.7 2.66 0 3 C0 2.01 0 1.02 0 0 Z " fill="#E4A577" transform="translate(63,0)"/>
<path d="M0 0 C1.32 0.33 2.64 0.66 4 1 C4 2.65 4 4.3 4 6 C0 1.12 0 1.12 0 0 Z " fill="#BF784F" transform="translate(97,100)"/>
<path d="M0 0 C0.99 0.33 1.98 0.66 3 1 C2.01 2.32 1.02 3.64 0 5 C-0.56 3.06 -0.56 3.06 -1 1 C-0.67 0.67 -0.34 0.34 0 0 Z " fill="#E1A275" transform="translate(119,96)"/>
<path d="M0 0 C1.32 0.33 2.64 0.66 4 1 C4 1.99 4 2.98 4 4 C3.01 3.67 2.02 3.34 1 3 C0.67 2.01 0.34 1.02 0 0 Z " fill="#FBFAF7" transform="translate(87,92)"/>
<path d="M0 0 C0.66 0.33 1.32 0.66 2 1 C1.67 2.65 1.34 4.3 1 6 C-0.06 4.12 -0.06 4.12 -1 2 C-0.67 1.34 -0.34 0.68 0 0 Z " fill="#BC7A4F" transform="translate(31,60)"/>
<path d="M0 0 C0.99 0.99 1.98 1.98 3 3 C2.34 3.66 1.68 4.32 1 5 C0.34 4.34 -0.32 3.68 -1 3 C-0.67 2.01 -0.34 1.02 0 0 Z " fill="#995935" transform="translate(107,55)"/>
<path d="M0 0 C0.66 0 1.32 0 2 0 C1.67 1.65 1.34 3.3 1 5 C0.34 4.67 -0.32 4.34 -1 4 C-0.67 2.68 -0.34 1.36 0 0 Z " fill="#C9885E" transform="translate(121,48)"/>
<path d="M0 0 C0.33 0 0.66 0 1 0 C1 1.65 1 3.3 1 5 C0.01 5 -0.98 5 -2 5 C-1.34 3.35 -0.68 1.7 0 0 Z " fill="#E2A67F" transform="translate(22,34)"/>
<path d="M0 0 C1.32 1.32 2.64 2.64 4 4 C3.01 4.66 2.02 5.32 1 6 C0.67 4.02 0.34 2.04 0 0 Z " fill="#D8996A" transform="translate(108,24)"/>
<path d="M0 0 C-0.66 1.32 -1.32 2.64 -2 4 C-2.66 4 -3.32 4 -4 4 C-4 3.01 -4 2.02 -4 1 C-2 0 -2 0 0 0 Z " fill="#D29062" transform="translate(83,0)"/>
<path d="M0 0 C0.99 0.33 1.98 0.66 3 1 C3 1.99 3 2.98 3 4 C2.01 3.67 1.02 3.34 0 3 C0 2.01 0 1.02 0 0 Z " fill="#E0A074" transform="translate(117,100)"/>
<path d="M0 0 C0.66 0.33 1.32 0.66 2 1 C2 2.32 2 3.64 2 5 C1.34 5 0.68 5 0 5 C-0.33 4.01 -0.66 3.02 -1 2 C-0.67 1.34 -0.34 0.68 0 0 Z " fill="#B27248" transform="translate(88,83)"/>
<path d="M0 0 C0.99 0 1.98 0 3 0 C3 0.99 3 1.98 3 3 C1.68 2.67 0.36 2.34 -1 2 C-0.67 1.34 -0.34 0.68 0 0 Z " fill="#965736" transform="translate(77,77)"/>
<path d="M0 0 C0.99 0 1.98 0 3 0 C2.67 1.32 2.34 2.64 2 4 C1.34 4 0.68 4 0 4 C-0.33 3.01 -0.66 2.02 -1 1 C-0.67 0.67 -0.34 0.34 0 0 Z " fill="#C58759" transform="translate(81,62)"/>
<path d="M0 0 C1.32 0.66 2.64 1.32 4 2 C2.02 2.99 2.02 2.99 0 4 C0 2.68 0 1.36 0 0 Z " fill="#C08156" transform="translate(92,57)"/>
<path d="M0 0 C1.32 0.33 2.64 0.66 4 1 C3.67 1.99 3.34 2.98 3 4 C2.01 3.34 1.02 2.68 0 2 C0 1.34 0 0.68 0 0 Z " fill="#F0E7E0" transform="translate(20,47)"/>
<path d="M0 0 C0.33 0.99 0.66 1.98 1 3 C-0.98 3.99 -0.98 3.99 -3 5 C-1.12 1.12 -1.12 1.12 0 0 Z " fill="#D6956A" transform="translate(101,42)"/>
<path d="M0 0 C0.99 1.32 1.98 2.64 3 4 C2.67 4.66 2.34 5.32 2 6 C1.34 6 0.68 6 0 6 C0 4.02 0 2.04 0 0 Z " fill="#9B5D32" transform="translate(117,24)"/>
<path d="M0 0 C0.33 1.32 0.66 2.64 1 4 C0.01 4.33 -0.98 4.66 -2 5 C-1.34 3.35 -0.68 1.7 0 0 Z " fill="#E5AC80" transform="translate(22,7)"/>
<path d="M0 0 C0.33 0.66 0.66 1.32 1 2 C0.01 3.48 0.01 3.48 -1 5 C-1.66 5 -2.32 5 -3 5 C-1.12 1.12 -1.12 1.12 0 0 Z " fill="#C68458" transform="translate(103,5)"/>
<path d="M0 0 C0.66 0.33 1.32 0.66 2 1 C0.68 2.32 -0.64 3.64 -2 5 C-1.12 1.12 -1.12 1.12 0 0 Z " fill="#EAAC80" transform="translate(21,2)"/>
<path d="M0 0 C0.99 0 1.98 0 3 0 C3 0.99 3 1.98 3 3 C2.01 3 1.02 3 0 3 C0 2.01 0 1.02 0 0 Z " fill="#DE9D6F" transform="translate(120,120)"/>
<path d="M0 0 C0.99 1.32 1.98 2.64 3 4 C1.68 3.67 0.36 3.34 -1 3 C-0.67 2.01 -0.34 1.02 0 0 Z " fill="#B87C54" transform="translate(99,96)"/>
<path d="M0 0 C1.32 0.33 2.64 0.66 4 1 C3.67 1.66 3.34 2.32 3 3 C2.01 2.67 1.02 2.34 0 2 C0 1.34 0 0.68 0 0 Z " fill="#985A37" transform="translate(80,83)"/>
<path d="M0 0 C0.99 0.33 1.98 0.66 3 1 C1.68 1.99 0.36 2.98 -1 4 C-0.67 2.68 -0.34 1.36 0 0 Z " fill="#B5774B" transform="translate(62,78)"/>
<path d="M0 0 C0.66 0.99 1.32 1.98 2 3 C0.68 3 -0.64 3 -2 3 C-1.34 2.01 -0.68 1.02 0 0 Z " fill="#B7774E" transform="translate(104,54)"/>
<path d="M0 0 C-0.33 0.99 -0.66 1.98 -1 3 C-2.32 2.34 -3.64 1.68 -5 1 C-3 0 -3 0 0 0 Z " fill="#B97A4F" transform="translate(110,51)"/>
<path d="M0 0 C0.66 0.33 1.32 0.66 2 1 C1.01 2.48 1.01 2.48 0 4 C-0.66 4 -1.32 4 -2 4 C-1.34 2.68 -0.68 1.36 0 0 Z " fill="#CB8B5F" transform="translate(104,44)"/>
<path d="M0 0 C0.99 0 1.98 0 3 0 C3 0.66 3 1.32 3 2 C1.68 2.33 0.36 2.66 -1 3 C-0.67 2.01 -0.34 1.02 0 0 Z " fill="#D69569" transform="translate(105,36)"/>
<path d="M0 0 C1.48 0.99 1.48 0.99 3 2 C3 2.66 3 3.32 3 4 C2.01 4 1.02 4 0 4 C0 2.68 0 1.36 0 0 Z " fill="#CE8F60" transform="translate(57,32)"/>
<path d="M0 0 C1.32 0.66 2.64 1.32 4 2 C2.35 2.33 0.7 2.66 -1 3 C-0.67 2.01 -0.34 1.02 0 0 Z " fill="#EBB287" transform="translate(17,18)"/>
<path d="M0 0 C0.66 0.99 1.32 1.98 2 3 C1.34 3.66 0.68 4.32 0 5 C0 4.34 0 3.68 0 3 C-0.66 2.67 -1.32 2.34 -2 2 C-1.34 1.34 -0.68 0.68 0 0 Z " fill="#EBB287" transform="translate(18,9)"/>
<path d="M0 0 C0.99 0 1.98 0 3 0 C3 0.66 3 1.32 3 2 C1.68 2.33 0.36 2.66 -1 3 C-0.67 2.01 -0.34 1.02 0 0 Z " fill="#DC9B6D" transform="translate(59,10)"/>
<path d="M0 0 C0.66 1.32 1.32 2.64 2 4 C1.01 4 0.02 4 -1 4 C-0.67 2.68 -0.34 1.36 0 0 Z " fill="#F9F4ED" transform="translate(29,80)"/>
<path d="M0 0 C1.98 0.99 1.98 0.99 4 2 C2.68 2 1.36 2 0 2 C0 1.34 0 0.68 0 0 Z " fill="#985937" transform="translate(88,77)"/>
<path d="M0 0 C0.66 0 1.32 0 2 0 C1.67 0.99 1.34 1.98 1 3 C0.01 2.67 -0.98 2.34 -2 2 C-1.34 1.34 -0.68 0.68 0 0 Z " fill="#975732" transform="translate(84,69)"/>
<path d="M0 0 C1.32 0.33 2.64 0.66 4 1 C3.01 1.66 2.02 2.32 1 3 C0.67 2.01 0.34 1.02 0 0 Z " fill="#E7AC80" transform="translate(28,16)"/>
<path d="M0 0 C0.66 0 1.32 0 2 0 C1.67 0.99 1.34 1.98 1 3 C0.34 2.34 -0.32 1.68 -1 1 C-0.67 0.67 -0.34 0.34 0 0 Z M-3 2 C-1 3 -1 3 -1 3 Z " fill="#DDA073" transform="translate(54,12)"/>
<path d="M0 0 C0.66 0.33 1.32 0.66 2 1 C1.67 1.99 1.34 2.98 1 4 C0.34 3.01 -0.32 2.02 -1 1 C-0.67 0.67 -0.34 0.34 0 0 Z " fill="#BA835F" transform="translate(98,102)"/>
<path d="M0 0 C0.66 0 1.32 0 2 0 C1.67 0.99 1.34 1.98 1 3 C0.34 3 -0.32 3 -1 3 C-0.67 2.01 -0.34 1.02 0 0 Z " fill="#B6774C" transform="translate(92,61)"/>
<path d="M0 0 C0.99 0.33 1.98 0.66 3 1 C2.67 1.66 2.34 2.32 2 3 C1.34 3 0.68 3 0 3 C0 2.01 0 1.02 0 0 Z " fill="#D99C71" transform="translate(32,58)"/>
<path d="M0 0 C0.66 0.66 1.32 1.32 2 2 C1.34 2.66 0.68 3.32 0 4 C0 2.68 0 1.36 0 0 Z " fill="#F8F6EB" transform="translate(19,35)"/>
<path d="M0 0 C0.66 0.66 1.32 1.32 2 2 C1.01 2.33 0.02 2.66 -1 3 C-0.67 2.01 -0.34 1.02 0 0 Z " fill="#AD5C38" transform="translate(23,56)"/>
<path d="M0 0 C0.99 0.33 1.98 0.66 3 1 C2.34 1.66 1.68 2.32 1 3 C0.67 2.01 0.34 1.02 0 0 Z " fill="#C36C4A" transform="translate(23,42)"/>
</svg>
