<?xml version="1.0" encoding="UTF-8"?>
<!DOCTYPE svg PUBLIC "-//W3C//DTD SVG 1.1//EN" "http://www.w3.org/Graphics/SVG/1.1/DTD/svg11.dtd">
<svg xmlns="http://www.w3.org/2000/svg" version="1.1" width="500px" height="500px" style="shape-rendering:geometricPrecision; text-rendering:geometricPrecision; image-rendering:optimizeQuality; fill-rule:evenodd; clip-rule:evenodd" xmlns:xlink="http://www.w3.org/1999/xlink">
<g><path style="opacity:1" fill="#5d9a6f" d="M 297.5,36.5 C 315.071,34.9011 325.737,42.7345 329.5,60C 328.996,65.6894 327.663,71.1894 325.5,76.5C 324.883,76.3893 324.383,76.056 324,75.5C 323.215,77.286 322.049,78.786 320.5,80C 317.392,82.37 314.059,84.37 310.5,86C 311.167,87.3333 312.167,88.3333 313.5,89C 312.748,89.6708 312.414,90.5041 312.5,91.5C 311.416,89.6814 310.082,88.0147 308.5,86.5C 298.106,88.1985 289.606,84.8652 283,76.5C 278.505,66.91 278.339,57.2433 282.5,47.5C 286.644,43.9225 291.311,41.0892 296.5,39C 297.252,38.3292 297.586,37.4959 297.5,36.5 Z"/></g>
<g><path style="opacity:1" fill="#c1ac4f" d="M 299.5,39.5 C 321.93,41.4228 329.763,53.0895 323,74.5C 315.258,81.9012 306.092,84.7346 295.5,83C 282.625,74.5767 279.458,63.4101 286,49.5C 289.404,44.5615 293.904,41.2281 299.5,39.5 Z"/></g>
<g><path style="opacity:1" fill="#21543f" d="M 297.5,43.5 C 319.709,42.9473 326.875,52.9473 319,73.5C 311.62,80.9397 303.12,82.4397 293.5,78C 285.89,71.9017 283.39,64.0683 286,54.5C 288.741,49.5899 292.575,45.9232 297.5,43.5 Z"/></g>
<g><path style="opacity:1" fill="#225546" d="M 325.5,76.5 C 328.105,80.7795 330.438,85.2795 332.5,90C 336.416,89.4559 340.416,88.9559 344.5,88.5C 346.833,88.5 349.167,88.5 351.5,88.5C 351.228,92.6637 348.894,94.497 344.5,94C 347.003,95.5494 347.003,97.2161 344.5,99C 347.322,99.5645 349.822,100.064 352,100.5C 354.734,99.6383 354.901,98.805 352.5,98C 354.506,95.9524 355.506,96.4524 355.5,99.5C 357.143,99.5198 358.476,98.8532 359.5,97.5C 359.238,99.1322 360.238,100.299 362.5,101C 357.999,102.221 353.499,103.388 349,104.5C 348.586,104.043 348.086,103.709 347.5,103.5C 346.452,104.548 345.452,105.548 344.5,106.5C 342.482,107.175 340.816,108.341 339.5,110C 346.855,131.671 351.855,153.838 354.5,176.5C 354.676,179.727 355.343,182.727 356.5,185.5C 366.387,192.048 375.387,199.715 383.5,208.5C 384.303,209.423 384.47,210.423 384,211.5C 382.951,210.483 381.784,210.316 380.5,211C 381.833,212 383.167,213 384.5,214C 383.62,215.356 383.286,216.856 383.5,218.5C 382.5,218.5 381.5,218.5 380.5,218.5C 380.34,220.199 380.506,221.866 381,223.5C 381.74,225.377 382.573,226.877 383.5,228C 383.167,228.833 382.833,229.667 382.5,230.5C 381.194,229.088 380.36,227.421 380,225.5C 378.961,226.244 378.461,227.244 378.5,228.5C 371.544,223.046 365.044,217.046 359,210.5C 359.205,228.303 359.705,246.136 360.5,264C 360.118,268.502 359.785,273.002 359.5,277.5C 358.671,270.011 358.171,262.344 358,254.5C 356.177,257.845 356.01,261.345 357.5,265C 356.667,268.498 355.834,271.998 355,275.5C 354.667,273.167 354.333,270.833 354,268.5C 353.667,271.167 353.333,273.833 353,276.5C 348.547,280.991 348.381,285.658 352.5,290.5C 351.524,292.123 352.024,293.457 354,294.5C 355.418,291.999 356.418,292.332 357,295.5C 359.621,295.296 362.455,295.296 365.5,295.5C 365.649,296.552 365.483,297.552 365,298.5C 360.444,300.648 359.944,303.148 363.5,306C 361.162,307.162 359.828,308.996 359.5,311.5C 357.521,309.832 355.188,309.166 352.5,309.5C 352.671,306.203 352.005,305.869 350.5,308.5C 349.667,307.5 348.833,306.5 348,305.5C 347.351,299.552 345.517,294.052 342.5,289C 343.117,285.499 342.784,281.999 341.5,278.5C 341.667,259.497 341.5,240.497 341,221.5C 340.708,212.401 339.708,203.401 338,194.5C 310.221,173.534 280.721,155.534 249.5,140.5C 240.176,145.162 230.842,149.829 221.5,154.5C 218.322,152.483 214.989,150.65 211.5,149C 210.216,148.316 209.049,148.483 208,149.5C 207.51,148.207 207.343,146.873 207.5,145.5C 208.5,145.5 209.5,145.5 210.5,145.5C 210.833,143.5 211.167,141.5 211.5,139.5C 216.271,136.274 221.271,133.274 226.5,130.5C 225.053,129.065 223.386,128.065 221.5,127.5C 223.471,125.407 225.804,123.74 228.5,122.5C 229.386,121.675 229.719,120.675 229.5,119.5C 231.674,119.08 233.674,119.08 235.5,119.5C 238.944,117.214 242.611,116.88 246.5,118.5C 248.527,118.662 250.527,118.495 252.5,118C 272.613,108.806 293.28,101.14 314.5,95C 313.027,94.2904 312.36,93.1238 312.5,91.5C 312.414,90.5041 312.748,89.6708 313.5,89C 312.167,88.3333 311.167,87.3333 310.5,86C 314.059,84.37 317.392,82.37 320.5,80C 322.049,78.786 323.215,77.286 324,75.5C 324.383,76.056 324.883,76.3893 325.5,76.5 Z M 319.5,112.5 C 327.413,130.182 332.247,148.849 334,168.5C 314.355,154.451 293.855,141.785 272.5,130.5C 287.774,123.3 303.441,117.3 319.5,112.5 Z"/></g>
<g><path style="opacity:1" fill="#245747" d="M 297.5,36.5 C 297.586,37.4959 297.252,38.3292 296.5,39C 291.311,41.0892 286.644,43.9225 282.5,47.5C 263.397,29.326 243.064,27.826 221.5,43C 205.57,57.5991 193.57,74.9325 185.5,95C 206.605,101.177 226.938,109.011 246.5,118.5C 242.611,116.88 238.944,117.214 235.5,119.5C 233.674,119.08 231.674,119.08 229.5,119.5C 229.719,120.675 229.386,121.675 228.5,122.5C 225.804,123.74 223.471,125.407 221.5,127.5C 207.37,121.099 192.704,116.433 177.5,113.5C 173.489,128.214 169.489,142.881 165.5,157.5C 165.64,155.876 164.973,154.71 163.5,154C 164.624,153.751 165.624,153.251 166.5,152.5C 166.167,150.5 165.833,148.5 165.5,146.5C 167.801,143.32 168.801,139.654 168.5,135.5C 167.5,135.5 166.5,135.5 165.5,135.5C 165.477,133.073 164.977,130.74 164,128.5C 162.333,126.167 160.667,123.833 159,121.5C 157.632,122.993 157.465,124.493 158.5,126C 157.672,126.915 156.672,127.581 155.5,128C 155.212,130.022 155.546,132.189 156.5,134.5C 152.223,140.315 150.223,146.648 150.5,153.5C 151.251,152.624 151.751,151.624 152,150.5C 152.333,150.833 152.667,151.167 153,151.5C 153.954,156.076 155.954,160.076 159,163.5C 160.452,161.175 162.119,161.175 164,163.5C 164.198,161.618 164.698,159.952 165.5,158.5C 165.212,161.866 165.046,165.2 165,168.5C 179.632,157.434 195.132,147.768 211.5,139.5C 211.167,141.5 210.833,143.5 210.5,145.5C 209.5,145.5 208.5,145.5 207.5,145.5C 207.343,146.873 207.51,148.207 208,149.5C 209.049,148.483 210.216,148.316 211.5,149C 214.989,150.65 218.322,152.483 221.5,154.5C 200.455,166.444 180.289,179.777 161,194.5C 159.874,198.749 159.208,203.082 159,207.5C 156.991,238.847 157.157,270.18 159.5,301.5C 159.334,306.511 159.501,311.511 160,316.5C 160.912,322.705 162.412,328.705 164.5,334.5C 165.658,339.351 166.658,344.351 167.5,349.5C 167.5,352.833 167.5,356.167 167.5,359.5C 164.453,360.145 162.287,359.145 161,356.5C 160.577,357.956 159.744,358.456 158.5,358C 159.738,355.019 159.571,351.853 158,348.5C 157.692,349.308 157.192,349.975 156.5,350.5C 155.604,347.856 154.771,345.19 154,342.5C 152.244,340.384 150.744,338.051 149.5,335.5C 150.242,334.713 151.075,334.047 152,333.5C 153.344,335.695 154.678,338.362 156,341.5C 157.44,340.07 157.774,338.403 157,336.5C 154.036,333.395 153.87,330.228 156.5,327C 154.773,325.257 154.106,323.424 154.5,321.5C 153.169,322.592 152.336,323.926 152,325.5C 150.681,323.75 150.181,321.75 150.5,319.5C 153.83,319.837 155.496,318.337 155.5,315C 154.959,311.084 153.459,307.584 151,304.5C 149.442,306.359 147.609,307.859 145.5,309C 149.987,309.486 150.654,311.486 147.5,315C 148.517,316.049 148.684,317.216 148,318.5C 146.271,318.974 145.105,319.974 144.5,321.5C 142.96,319.162 142.294,316.495 142.5,313.5C 143.647,309.354 143.814,305.02 143,300.5C 142.924,296.204 142.091,292.204 140.5,288.5C 138.155,262.487 137.988,236.487 140,210.5C 126.714,222.951 113.547,235.618 100.5,248.5C 100.167,248.5 99.8333,248.5 99.5,248.5C 97.6064,249.048 95.9397,250.048 94.5,251.5C 94.1667,251 93.8333,250.5 93.5,250C 94.6198,248.263 95.6198,246.429 96.5,244.5C 93.8332,243.366 91.1666,242.366 88.5,241.5C 88.3433,240.127 88.51,238.793 89,237.5C 91.4827,234.861 93.316,231.861 94.5,228.5C 109.196,213.139 124.862,198.806 141.5,185.5C 142.123,183.034 142.957,180.701 144,178.5C 147.134,155.264 152.3,132.43 159.5,110C 158.556,108.523 157.223,107.523 155.5,107C 137.726,103.8 119.726,102.467 101.5,103C 89.5847,104.317 78.2514,107.651 67.5,113C 56.4863,120.194 50.153,130.361 48.5,143.5C 47.5386,145.265 47.2053,147.265 47.5,149.5C 44.8333,149.5 42.1667,149.5 39.5,149.5C 36.5,149.5 33.5,149.5 30.5,149.5C 30.1667,149.5 29.8333,149.5 29.5,149.5C 29.5651,123.546 41.2318,104.713 64.5,93C 80.5012,86.4039 97.1679,83.5706 114.5,84.5C 132.428,84.3068 150.095,86.3068 167.5,90.5C 175.941,67.1245 189.274,46.9579 207.5,30C 235.5,8 263.5,8 291.5,30C 293.706,32.0367 295.706,34.2034 297.5,36.5 Z"/></g>
<g><path style="opacity:1" fill="#265748" d="M 426.5,245.5 C 426.278,242.61 426.945,239.943 428.5,237.5C 427.137,236.107 426.304,234.441 426,232.5C 425.085,233.328 424.419,234.328 424,235.5C 423.316,234.216 423.483,233.049 424.5,232C 422.776,231.552 422.109,230.718 422.5,229.5C 421.522,229.977 420.689,230.643 420,231.5C 419.667,230.833 419.333,230.167 419,229.5C 417.736,231.607 415.903,232.607 413.5,232.5C 428.662,213.509 440.162,192.509 448,169.5C 457.209,135.059 444.709,113.559 410.5,105C 401.231,103.446 391.898,102.613 382.5,102.5C 369.747,103.552 357.08,104.885 344.5,106.5C 345.452,105.548 346.452,104.548 347.5,103.5C 348.086,103.709 348.586,104.043 349,104.5C 353.499,103.388 357.999,102.221 362.5,101C 360.238,100.299 359.238,99.1322 359.5,97.5C 358.476,98.8532 357.143,99.5198 355.5,99.5C 355.506,96.4524 354.506,95.9524 352.5,98C 354.901,98.805 354.734,99.6383 352,100.5C 349.822,100.064 347.322,99.5645 344.5,99C 347.003,97.2161 347.003,95.5494 344.5,94C 348.894,94.497 351.228,92.6637 351.5,88.5C 349.167,88.5 346.833,88.5 344.5,88.5C 357.509,85.3524 370.842,84.0191 384.5,84.5C 405.59,83.2153 425.256,87.7153 443.5,98C 464.787,113.431 473.287,134.264 469,160.5C 462.291,192.585 448.124,220.918 426.5,245.5 Z"/></g>
<g><path style="opacity:1" fill="#1b513f" d="M 165.5,157.5 C 165.5,157.833 165.5,158.167 165.5,158.5C 164.698,159.952 164.198,161.618 164,163.5C 162.119,161.175 160.452,161.175 159,163.5C 155.954,160.076 153.954,156.076 153,151.5C 152.667,151.167 152.333,150.833 152,150.5C 151.751,151.624 151.251,152.624 150.5,153.5C 150.223,146.648 152.223,140.315 156.5,134.5C 155.546,132.189 155.212,130.022 155.5,128C 156.672,127.581 157.672,126.915 158.5,126C 157.465,124.493 157.632,122.993 159,121.5C 160.667,123.833 162.333,126.167 164,128.5C 164.977,130.74 165.477,133.073 165.5,135.5C 166.5,135.5 167.5,135.5 168.5,135.5C 168.801,139.654 167.801,143.32 165.5,146.5C 165.833,148.5 166.167,150.5 166.5,152.5C 165.624,153.251 164.624,153.751 163.5,154C 164.973,154.71 165.64,155.876 165.5,157.5 Z"/></g>
<g><path style="opacity:1" fill="#185e98" d="M 30.5,149.5 C 33.5,149.5 36.5,149.5 39.5,149.5C 41.6074,150.468 43.9407,150.802 46.5,150.5C 46.591,160.079 48.2577,169.079 51.5,177.5C 50.132,178.594 48.9653,178.26 48,176.5C 48.9791,178.279 48.6458,179.945 47,181.5C 45.2141,178.638 42.8808,177.972 40,179.5C 37.3984,178.704 35.2318,177.371 33.5,175.5C 32.7321,173.285 32.0654,170.952 31.5,168.5C 32.2389,168.631 32.9056,168.464 33.5,168C 31.6671,161.997 30.6671,155.83 30.5,149.5 Z"/></g>
<g><path style="opacity:1" fill="#6992b4" d="M 29.5,149.5 C 29.8333,149.5 30.1667,149.5 30.5,149.5C 30.6671,155.83 31.6671,161.997 33.5,168C 32.9056,168.464 32.2389,168.631 31.5,168.5C 29.8999,162.311 29.2333,155.978 29.5,149.5 Z"/></g>
<g><path style="opacity:1" fill="#bad7ca" d="M 354.5,176.5 C 356.118,179.171 356.785,182.171 356.5,185.5C 355.343,182.727 354.676,179.727 354.5,176.5 Z"/></g>
<g><path style="opacity:1" fill="#34699a" d="M 48.5,143.5 C 47.9776,157.721 50.4776,171.388 56,184.5C 59.8124,192.275 63.8124,199.942 68,207.5C 73.02,214.217 77.52,221.217 81.5,228.5C 77.202,228.176 74.8687,225.843 74.5,221.5C 73.5745,222.641 72.7412,222.641 72,221.5C 70.6323,219.506 70.1323,217.506 70.5,215.5C 69.302,215.06 68.1353,214.727 67,214.5C 66.6667,212.167 66.3333,209.833 66,207.5C 64.4931,208.535 62.9931,208.368 61.5,207C 62.2991,204.519 62.4657,201.686 62,198.5C 61.3333,197.833 60.6667,197.167 60,196.5C 59.6667,198.167 59.3333,199.833 59,201.5C 53.8239,199.15 53.3239,196.15 57.5,192.5C 56.4826,189.972 55.3159,189.972 54,192.5C 53.2174,190.567 53.7174,189.067 55.5,188C 54.3093,182.303 51.8093,181.469 48,185.5C 46.6781,182.112 44.8447,181.779 42.5,184.5C 41.8333,183.5 41.1667,182.5 40.5,181.5C 40.1667,182.167 39.8333,182.833 39.5,183.5C 40.493,187.791 41.1597,192.124 41.5,196.5C 38.0825,189.933 35.4158,182.933 33.5,175.5C 35.2318,177.371 37.3984,178.704 40,179.5C 42.8808,177.972 45.2141,178.638 47,181.5C 48.6458,179.945 48.9791,178.279 48,176.5C 48.9653,178.26 50.132,178.594 51.5,177.5C 48.2577,169.079 46.591,160.079 46.5,150.5C 43.9407,150.802 41.6074,150.468 39.5,149.5C 42.1667,149.5 44.8333,149.5 47.5,149.5C 47.2053,147.265 47.5386,145.265 48.5,143.5 Z"/></g>
<g><path style="opacity:1" fill="#3c976c" d="M 238.5,193.5 C 273.007,190.538 295.174,205.538 305,238.5C 308.729,273.233 293.896,295.399 260.5,305C 235.433,308.376 215.6,299.876 201,279.5C 186.572,249.914 191.738,224.581 216.5,203.5C 223.248,198.72 230.581,195.386 238.5,193.5 Z"/></g>
<g><path style="opacity:1" fill="#195143" d="M 279.5,289.5 C 279.179,291.048 278.179,291.715 276.5,291.5C 274.958,290.699 273.292,290.366 271.5,290.5C 271.5,291.5 271.5,292.5 271.5,293.5C 266.331,292.142 260.997,291.142 255.5,290.5C 256.325,289.614 257.325,289.281 258.5,289.5C 258.716,287.319 257.883,285.653 256,284.5C 253.884,285.743 251.718,286.909 249.5,288C 250.061,289.676 251.061,291.009 252.5,292C 250.535,293.565 248.369,294.732 246,295.5C 243.342,293.5 240.675,291.5 238,289.5C 237.5,289.833 237,290.167 236.5,290.5C 237.751,291.631 238.751,292.964 239.5,294.5C 239.333,295.167 239.167,295.833 239,296.5C 236.649,295.286 234.149,294.452 231.5,294C 231.034,292.701 231.034,291.201 231.5,289.5C 232.978,289.762 234.311,289.429 235.5,288.5C 234.667,288.167 233.833,287.833 233,287.5C 230.018,287.536 227.018,287.536 224,287.5C 223.824,284.118 223.324,280.785 222.5,277.5C 221.682,280.107 221.182,282.774 221,285.5C 219.167,284.333 217.333,283.167 215.5,282C 215.619,280.719 215.119,279.552 214,278.5C 211.701,279.58 209.534,279.246 207.5,277.5C 206.752,275.416 206.752,273.416 207.5,271.5C 204.286,268.169 204.119,264.835 207,261.5C 207.486,252.472 207.82,243.472 208,234.5C 206.844,235.993 206.01,235.826 205.5,234C 207.141,232.354 206.807,231.354 204.5,231C 207.742,230.717 208.076,229.883 205.5,228.5C 206.641,227.575 206.641,226.741 205.5,226C 207.081,225.293 208.581,224.46 210,223.5C 210.17,225.715 210.837,227.715 212,229.5C 214.675,227.842 217.175,226.009 219.5,224C 218.833,223.667 218.167,223.333 217.5,223C 219.754,222.376 221.421,221.043 222.5,219C 225.482,218.502 228.482,218.335 231.5,218.5C 231.5,217.5 231.5,216.5 231.5,215.5C 233.167,215.5 234.833,215.5 236.5,215.5C 239.301,205.111 245.968,201.944 256.5,206C 258.923,207.571 260.256,209.737 260.5,212.5C 261.5,212.5 262.5,212.5 263.5,212.5C 263.231,210.571 263.731,208.905 265,207.5C 265.497,210.146 265.664,212.813 265.5,215.5C 267.167,215.5 268.833,215.5 270.5,215.5C 270.575,218.206 270.908,220.873 271.5,223.5C 272.675,223.281 273.675,223.614 274.5,224.5C 275.409,227.695 277.242,230.029 280,231.5C 280.833,231.333 281.667,231.167 282.5,231C 283.333,228.833 284.833,227.333 287,226.5C 288.049,228.107 289.549,228.773 291.5,228.5C 294.669,234.663 297.003,241.163 298.5,248C 296.984,250.362 295.65,252.862 294.5,255.5C 293.682,252.893 293.182,250.226 293,247.5C 292.428,250.707 290.595,252.374 287.5,252.5C 287.5,253.5 287.5,254.5 287.5,255.5C 284.833,255.5 282.167,255.5 279.5,255.5C 279.5,257.5 279.5,259.5 279.5,261.5C 281.857,261.663 284.19,261.497 286.5,261C 287.26,259.559 287.926,258.059 288.5,256.5C 289.002,255.479 289.668,255.312 290.5,256C 289.828,258.831 289.828,261.497 290.5,264C 291.764,265.861 292.764,267.861 293.5,270C 293.18,271.653 292.18,272.653 290.5,273C 291.747,274.494 291.747,275.994 290.5,277.5C 287.325,278.696 284.325,280.196 281.5,282C 282.552,283.716 281.886,284.716 279.5,285C 280.728,286.49 280.728,287.99 279.5,289.5 Z"/></g>
<g><path style="opacity:1" fill="#195743" d="M 279.5,289.5 C 280.728,287.99 280.728,286.49 279.5,285C 281.886,284.716 282.552,283.716 281.5,282C 284.325,280.196 287.325,278.696 290.5,277.5C 291.747,275.994 291.747,274.494 290.5,273C 292.18,272.653 293.18,271.653 293.5,270C 292.764,267.861 291.764,265.861 290.5,264C 289.828,261.497 289.828,258.831 290.5,256C 289.668,255.312 289.002,255.479 288.5,256.5C 287.926,258.059 287.26,259.559 286.5,261C 284.19,261.497 281.857,261.663 279.5,261.5C 279.5,259.5 279.5,257.5 279.5,255.5C 282.167,255.5 284.833,255.5 287.5,255.5C 287.5,254.5 287.5,253.5 287.5,252.5C 290.595,252.374 292.428,250.707 293,247.5C 293.182,250.226 293.682,252.893 294.5,255.5C 295.65,252.862 296.984,250.362 298.5,248C 297.003,241.163 294.669,234.663 291.5,228.5C 289.549,228.773 288.049,228.107 287,226.5C 284.833,227.333 283.333,228.833 282.5,231C 281.667,231.167 280.833,231.333 280,231.5C 277.242,230.029 275.409,227.695 274.5,224.5C 273.675,223.614 272.675,223.281 271.5,223.5C 270.908,220.873 270.575,218.206 270.5,215.5C 268.833,215.5 267.167,215.5 265.5,215.5C 265.664,212.813 265.497,210.146 265,207.5C 263.731,208.905 263.231,210.571 263.5,212.5C 262.5,212.5 261.5,212.5 260.5,212.5C 260.256,209.737 258.923,207.571 256.5,206C 245.968,201.944 239.301,205.111 236.5,215.5C 234.833,215.5 233.167,215.5 231.5,215.5C 231.5,216.5 231.5,217.5 231.5,218.5C 228.482,218.335 225.482,218.502 222.5,219C 221.421,221.043 219.754,222.376 217.5,223C 218.167,223.333 218.833,223.667 219.5,224C 217.175,226.009 214.675,227.842 212,229.5C 210.837,227.715 210.17,225.715 210,223.5C 208.581,224.46 207.081,225.293 205.5,226C 206.641,226.741 206.641,227.575 205.5,228.5C 208.076,229.883 207.742,230.717 204.5,231C 206.807,231.354 207.141,232.354 205.5,234C 206.01,235.826 206.844,235.993 208,234.5C 207.82,243.472 207.486,252.472 207,261.5C 204.119,264.835 204.286,268.169 207.5,271.5C 206.752,273.416 206.752,275.416 207.5,277.5C 197.71,262.625 195.877,246.625 202,229.5C 202.93,226.638 204.597,224.305 207,222.5C 207.346,220.782 207.846,219.115 208.5,217.5C 213.344,212.496 218.677,207.996 224.5,204C 229.509,203.417 234.176,201.917 238.5,199.5C 262.718,195.889 281.385,204.222 294.5,224.5C 304.29,245.582 302.124,265.248 288,283.5C 285.371,285.888 282.538,287.888 279.5,289.5 Z"/></g>
<g><path style="opacity:1" fill="#185e9a" d="M 81.5,228.5 C 83.8598,229.865 85.5265,231.865 86.5,234.5C 86.6816,236.591 86.3482,238.591 85.5,240.5C 82.9763,242.19 80.9763,244.357 79.5,247C 77.0643,247.124 74.731,246.624 72.5,245.5C 59.919,230.69 49.5856,214.357 41.5,196.5C 41.1597,192.124 40.493,187.791 39.5,183.5C 39.8333,182.833 40.1667,182.167 40.5,181.5C 41.1667,182.5 41.8333,183.5 42.5,184.5C 44.8447,181.779 46.6781,182.112 48,185.5C 51.8093,181.469 54.3093,182.303 55.5,188C 53.7174,189.067 53.2174,190.567 54,192.5C 55.3159,189.972 56.4826,189.972 57.5,192.5C 53.3239,196.15 53.8239,199.15 59,201.5C 59.3333,199.833 59.6667,198.167 60,196.5C 60.6667,197.167 61.3333,197.833 62,198.5C 62.4657,201.686 62.2991,204.519 61.5,207C 62.9931,208.368 64.4931,208.535 66,207.5C 66.3333,209.833 66.6667,212.167 67,214.5C 68.1353,214.727 69.302,215.06 70.5,215.5C 70.1323,217.506 70.6323,219.506 72,221.5C 72.7412,222.641 73.5745,222.641 74.5,221.5C 74.8687,225.843 77.202,228.176 81.5,228.5 Z"/></g>
<g><path style="opacity:1" fill="#20544e" d="M 94.5,228.5 C 93.316,231.861 91.4827,234.861 89,237.5C 88.51,238.793 88.3433,240.127 88.5,241.5C 91.1666,242.366 93.8332,243.366 96.5,244.5C 95.6198,246.429 94.6198,248.263 93.5,250C 93.8333,250.5 94.1667,251 94.5,251.5C 95.9397,250.048 97.6064,249.048 99.5,248.5C 95.8553,252.48 92.1886,256.48 88.5,260.5C 88.3893,259.883 88.056,259.383 87.5,259C 89.1217,257.705 90.455,256.205 91.5,254.5C 91.1322,253.09 90.2989,252.09 89,251.5C 88.2797,249.888 88.4464,248.388 89.5,247C 88.245,244.54 86.245,243.373 83.5,243.5C 83.9746,248.103 85.1412,252.437 87,256.5C 84.4839,254.689 82.4839,252.356 81,249.5C 80.0853,250.328 79.4186,251.328 79,252.5C 77.6439,251.62 76.1439,251.286 74.5,251.5C 74.8039,250.85 75.1373,250.183 75.5,249.5C 74.4756,248.148 73.4756,246.815 72.5,245.5C 74.731,246.624 77.0643,247.124 79.5,247C 80.9763,244.357 82.9763,242.19 85.5,240.5C 86.3482,238.591 86.6816,236.591 86.5,234.5C 87.1174,234.611 87.6174,234.944 88,235.5C 90.1831,233.093 92.3497,230.76 94.5,228.5 Z"/></g>
<g><path style="opacity:1" fill="#205746" d="M 88.5,260.5 C 87.596,261.209 87.2627,262.209 87.5,263.5C 85.8777,266.455 83.8777,269.122 81.5,271.5C 80.5768,272.303 79.5768,272.47 78.5,272C 75.7384,267.627 71.7384,265.294 66.5,265C 65.7476,264.329 65.4142,263.496 65.5,262.5C 68.1518,258.518 71.1518,254.851 74.5,251.5C 76.1439,251.286 77.6439,251.62 79,252.5C 79.4186,251.328 80.0853,250.328 81,249.5C 82.4839,252.356 84.4839,254.689 87,256.5C 85.1412,252.437 83.9746,248.103 83.5,243.5C 86.245,243.373 88.245,244.54 89.5,247C 88.4464,248.388 88.2797,249.888 89,251.5C 90.2989,252.09 91.1322,253.09 91.5,254.5C 90.455,256.205 89.1217,257.705 87.5,259C 88.056,259.383 88.3893,259.883 88.5,260.5 Z"/></g>
<g><path style="opacity:1" fill="#235746" d="M 383.5,208.5 C 393.074,216.569 402.241,225.236 411,234.5C 412.301,234.361 413.134,233.695 413.5,232.5C 415.903,232.607 417.736,231.607 419,229.5C 419.333,230.167 419.667,230.833 420,231.5C 420.689,230.643 421.522,229.977 422.5,229.5C 422.109,230.718 422.776,231.552 424.5,232C 423.483,233.049 423.316,234.216 424,235.5C 424.419,234.328 425.085,233.328 426,232.5C 426.304,234.441 427.137,236.107 428.5,237.5C 426.945,239.943 426.278,242.61 426.5,245.5C 425.091,247.305 424.591,249.305 425,251.5C 427.518,254.571 430.018,257.571 432.5,260.5C 430.362,260.297 428.695,259.297 427.5,257.5C 427.991,259.321 427.991,261.321 427.5,263.5C 426.575,262.359 425.741,262.359 425,263.5C 423.748,261.999 422.748,260.332 422,258.5C 420.745,259.211 419.579,260.044 418.5,261C 422.173,264.151 423.673,267.984 423,272.5C 424.255,273.211 425.421,274.044 426.5,275C 424.359,279.249 426.025,281.249 431.5,281C 428.833,281.667 428.833,282.333 431.5,283C 430.643,283.689 429.977,284.522 429.5,285.5C 430.747,287.323 431.414,289.323 431.5,291.5C 424.932,282.057 418.099,272.723 411,263.5C 394.919,280.75 377.753,296.75 359.5,311.5C 359.828,308.996 361.162,307.162 363.5,306C 359.944,303.148 360.444,300.648 365,298.5C 365.483,297.552 365.649,296.552 365.5,295.5C 362.455,295.296 359.621,295.296 357,295.5C 356.418,292.332 355.418,291.999 354,294.5C 352.024,293.457 351.524,292.123 352.5,290.5C 348.381,285.658 348.547,280.991 353,276.5C 353.333,273.833 353.667,271.167 354,268.5C 354.333,270.833 354.667,273.167 355,275.5C 355.834,271.998 356.667,268.498 357.5,265C 356.01,261.345 356.177,257.845 358,254.5C 358.171,262.344 358.671,270.011 359.5,277.5C 359.105,281.185 358.938,284.852 359,288.5C 372.625,276.042 385.791,263.042 398.5,249.5C 391.812,242.48 385.145,235.48 378.5,228.5C 378.461,227.244 378.961,226.244 380,225.5C 380.36,227.421 381.194,229.088 382.5,230.5C 382.833,229.667 383.167,228.833 383.5,228C 382.573,226.877 381.74,225.377 381,223.5C 380.506,221.866 380.34,220.199 380.5,218.5C 381.5,218.5 382.5,218.5 383.5,218.5C 383.286,216.856 383.62,215.356 384.5,214C 383.167,213 381.833,212 380.5,211C 381.784,210.316 382.951,210.483 384,211.5C 384.47,210.423 384.303,209.423 383.5,208.5 Z"/></g>
<g><path style="opacity:1" fill="#1c609a" d="M 99.5,248.5 C 99.8333,248.5 100.167,248.5 100.5,248.5C 112.894,262.894 126.227,276.227 140.5,288.5C 142.091,292.204 142.924,296.204 143,300.5C 143.814,305.02 143.647,309.354 142.5,313.5C 122.918,298.254 104.585,281.587 87.5,263.5C 87.2627,262.209 87.596,261.209 88.5,260.5C 92.1886,256.48 95.8553,252.48 99.5,248.5 Z"/></g>
<g><path style="opacity:1" fill="#5e996a" d="M 65.5,262.5 C 65.4142,263.496 65.7476,264.329 66.5,265C 71.7384,265.294 75.7384,267.627 78.5,272C 79.5768,272.47 80.5768,272.303 81.5,271.5C 88.2424,281.347 88.9091,291.514 83.5,302C 76.3111,310.899 66.9778,315.066 55.5,314.5C 55.5,313.5 55.5,312.5 55.5,311.5C 50.1723,310.516 45.839,307.85 42.5,303.5C 41.8165,303.863 41.1499,304.196 40.5,304.5C 32.7447,288.623 36.0781,275.79 50.5,266C 55.3656,264.148 60.3656,262.981 65.5,262.5 Z"/></g>
<g><path style="opacity:1" fill="#265848" d="M 432.5,260.5 C 450.582,283.332 462.749,308.999 469,337.5C 473.446,363.017 465.612,383.683 445.5,399.5C 443.473,400.513 441.473,401.513 439.5,402.5C 438.504,402.586 437.671,402.252 437,401.5C 436.689,399.444 436.189,397.444 435.5,395.5C 433.502,392.798 431.502,390.131 429.5,387.5C 447.226,376.017 454.059,359.683 450,338.5C 446.544,321.616 440.378,305.949 431.5,291.5C 431.414,289.323 430.747,287.323 429.5,285.5C 429.977,284.522 430.643,283.689 431.5,283C 428.833,282.333 428.833,281.667 431.5,281C 426.025,281.249 424.359,279.249 426.5,275C 425.421,274.044 424.255,273.211 423,272.5C 423.673,267.984 422.173,264.151 418.5,261C 419.579,260.044 420.745,259.211 422,258.5C 422.748,260.332 423.748,261.999 425,263.5C 425.741,262.359 426.575,262.359 427.5,263.5C 427.991,261.321 427.991,259.321 427.5,257.5C 428.695,259.297 430.362,260.297 432.5,260.5 Z"/></g>
<g><path style="opacity:1" fill="#195743" d="M 207.5,277.5 C 209.534,279.246 211.701,279.58 214,278.5C 215.119,279.552 215.619,280.719 215.5,282C 217.333,283.167 219.167,284.333 221,285.5C 221.182,282.774 221.682,280.107 222.5,277.5C 223.324,280.785 223.824,284.118 224,287.5C 227.018,287.536 230.018,287.536 233,287.5C 233.833,287.833 234.667,288.167 235.5,288.5C 234.311,289.429 232.978,289.762 231.5,289.5C 231.034,291.201 231.034,292.701 231.5,294C 234.149,294.452 236.649,295.286 239,296.5C 239.167,295.833 239.333,295.167 239.5,294.5C 238.751,292.964 237.751,291.631 236.5,290.5C 237,290.167 237.5,289.833 238,289.5C 240.675,291.5 243.342,293.5 246,295.5C 248.369,294.732 250.535,293.565 252.5,292C 251.061,291.009 250.061,289.676 249.5,288C 251.718,286.909 253.884,285.743 256,284.5C 257.883,285.653 258.716,287.319 258.5,289.5C 257.325,289.281 256.325,289.614 255.5,290.5C 260.997,291.142 266.331,292.142 271.5,293.5C 271.5,292.5 271.5,291.5 271.5,290.5C 273.292,290.366 274.958,290.699 276.5,291.5C 276.631,292.376 276.298,293.043 275.5,293.5C 257.276,303.1 239.276,302.767 221.5,292.5C 216.112,288.114 211.445,283.114 207.5,277.5 Z"/></g>
<g><path style="opacity:1" fill="#c5ae4f" d="M 53.5,267.5 C 74.9156,264.751 84.749,274.084 83,295.5C 75.426,309.27 64.2593,313.104 49.5,307C 40.9415,298.922 38.4415,289.089 42,277.5C 45.0207,273.097 48.854,269.763 53.5,267.5 Z"/></g>
<g><path style="opacity:1" fill="#255640" d="M 56.5,270.5 C 74.7,269.361 82.3667,277.694 79.5,295.5C 72.0153,308.447 62.0153,310.947 49.5,303C 43.7503,296.98 41.917,289.814 44,281.5C 46.5373,275.785 50.7039,272.118 56.5,270.5 Z"/></g>
<g><path style="opacity:1" fill="#225647" d="M 341.5,278.5 C 342.784,281.999 343.117,285.499 342.5,289C 345.517,294.052 347.351,299.552 348,305.5C 348.833,306.5 349.667,307.5 350.5,308.5C 352.005,305.869 352.671,306.203 352.5,309.5C 355.188,309.166 357.521,309.832 359.5,311.5C 356.962,314.25 355.462,317.583 355,321.5C 351.701,344.476 346.535,366.976 339.5,389C 339.743,389.902 340.077,390.735 340.5,391.5C 334.674,391.421 329.007,390.421 323.5,388.5C 322.833,387.833 322.167,387.167 321.5,386.5C 322.309,384.929 322.643,383.262 322.5,381.5C 326.151,368.564 329.651,355.564 333,342.5C 333.671,338.483 334.004,334.483 334,330.5C 314.226,344.306 293.726,356.972 272.5,368.5C 269.393,368.351 266.393,368.851 263.5,370C 257.37,373.007 251.704,376.507 246.5,380.5C 235.671,386.243 224.338,390.91 212.5,394.5C 213.791,392.828 213.791,390.994 212.5,389C 215.452,389.55 218.452,390.05 221.5,390.5C 222.719,389.354 224.052,388.354 225.5,387.5C 224.501,383.639 223.335,383.639 222,387.5C 220.013,386.782 218.179,385.782 216.5,384.5C 215.808,385.025 215.308,385.692 215,386.5C 210.828,385.475 206.661,384.308 202.5,383C 203.624,382.751 204.624,382.251 205.5,381.5C 203.602,380.266 201.935,380.599 200.5,382.5C 198.625,381.164 197.292,381.664 196.5,384C 199.147,384.315 199.813,385.482 198.5,387.5C 199.963,387.632 201.463,387.965 203,388.5C 204.257,388.85 204.591,389.517 204,390.5C 201.56,389.729 199.06,389.562 196.5,390C 194.29,388.491 192.457,386.658 191,384.5C 189.701,384.966 188.201,384.966 186.5,384.5C 199.81,379.515 213.144,374.515 226.5,369.5C 232.5,369.239 238.167,367.739 243.5,365C 244.305,363.887 244.972,362.721 245.5,361.5C 246.5,361.5 247.5,361.5 248.5,361.5C 248.5,360.5 248.5,359.5 248.5,358.5C 279.939,343.774 309.605,325.94 337.5,305C 338.126,304.25 338.626,303.416 339,302.5C 339.697,294.334 340.531,286.334 341.5,278.5 Z M 322.5,381.5 C 321.59,383.019 320.757,384.685 320,386.5C 303.5,381.73 287.667,375.73 272.5,368.5C 293.726,356.972 314.226,344.306 334,330.5C 334.004,334.483 333.671,338.483 333,342.5C 329.651,355.564 326.151,368.564 322.5,381.5 Z"/></g>
<g><path style="opacity:1" fill="#145d9b" d="M 165.5,308.5 C 168.37,309.433 170.704,311.1 172.5,313.5C 173.082,314.931 173.915,316.264 175,317.5C 175.92,317.93 176.753,318.264 177.5,318.5C 176.5,319.833 175.5,321.167 174.5,322.5C 176.074,323.984 177.407,325.651 178.5,327.5C 177.855,328.646 177.022,329.646 176,330.5C 173.406,330.761 170.74,330.761 168,330.5C 165.427,328.93 163.594,326.763 162.5,324C 163.439,318.618 163.439,313.452 162.5,308.5C 163.5,308.5 164.5,308.5 165.5,308.5 Z"/></g>
<g><path style="opacity:1" fill="#2d6799" d="M 159.5,301.5 C 160.922,304.24 162.922,306.573 165.5,308.5C 164.5,308.5 163.5,308.5 162.5,308.5C 163.439,313.452 163.439,318.618 162.5,324C 163.594,326.763 165.427,328.93 168,330.5C 170.74,330.761 173.406,330.761 176,330.5C 177.022,329.646 177.855,328.646 178.5,327.5C 177.407,325.651 176.074,323.984 174.5,322.5C 175.5,321.167 176.5,319.833 177.5,318.5C 176.753,318.264 175.92,317.93 175,317.5C 173.915,316.264 173.082,314.931 172.5,313.5C 196.887,330.248 222.221,345.248 248.5,358.5C 248.5,359.5 248.5,360.5 248.5,361.5C 247.5,361.5 246.5,361.5 245.5,361.5C 245.918,360.778 246.584,360.278 247.5,360C 242.288,357.834 237.788,355.334 234,352.5C 233.667,352.833 233.333,353.167 233,353.5C 228.701,351.183 224.368,348.849 220,346.5C 216.698,351.694 213.531,351.694 210.5,346.5C 212.123,344.887 213.29,343.22 214,341.5C 211.824,341.428 209.824,341.762 208,342.5C 206.257,340.415 204.257,338.748 202,337.5C 199.263,337.376 198.429,338.376 199.5,340.5C 197.567,345.291 194.9,345.791 191.5,342C 194.722,339.081 194.722,336.581 191.5,334.5C 193.045,333.548 194.712,333.215 196.5,333.5C 196.52,331.857 195.853,330.524 194.5,329.5C 190.59,327.87 186.923,325.87 183.5,323.5C 181.164,324.594 181.164,325.927 183.5,327.5C 177.634,328.462 176.468,331.129 180,335.5C 181.918,334.458 183.751,333.292 185.5,332C 183.293,329.016 183.793,328.85 187,331.5C 187.49,332.793 187.657,334.127 187.5,335.5C 184.606,335.556 181.939,336.39 179.5,338C 183.651,340.577 187.985,342.911 192.5,345C 191.748,345.671 191.414,346.504 191.5,347.5C 182.096,342.715 173.263,337.049 165,330.5C 164.51,331.793 164.343,333.127 164.5,334.5C 162.412,328.705 160.912,322.705 160,316.5C 159.501,311.511 159.334,306.511 159.5,301.5 Z"/></g>
<g><path style="opacity:1" fill="#125e9b" d="M 245.5,361.5 C 238.854,364.962 231.854,365.962 224.5,364.5C 223.5,363.167 222.5,361.833 221.5,360.5C 224.425,358.09 227.591,357.424 231,358.5C 231.617,357.551 231.451,356.718 230.5,356C 228.645,355.578 226.811,355.078 225,354.5C 222.584,356.622 220.084,358.622 217.5,360.5C 215.226,360.03 213.226,359.03 211.5,357.5C 212.09,356.201 213.09,355.368 214.5,355C 212.633,354.289 211.133,354.789 210,356.5C 209.135,354.112 209.968,352.612 212.5,352C 209.232,348.712 206.399,349.212 204,353.5C 201.207,350.353 197.707,348.687 193.5,348.5C 192.508,348.672 191.842,348.338 191.5,347.5C 191.414,346.504 191.748,345.671 192.5,345C 187.985,342.911 183.651,340.577 179.5,338C 181.939,336.39 184.606,335.556 187.5,335.5C 187.657,334.127 187.49,332.793 187,331.5C 183.793,328.85 183.293,329.016 185.5,332C 183.751,333.292 181.918,334.458 180,335.5C 176.468,331.129 177.634,328.462 183.5,327.5C 181.164,325.927 181.164,324.594 183.5,323.5C 186.923,325.87 190.59,327.87 194.5,329.5C 195.853,330.524 196.52,331.857 196.5,333.5C 194.712,333.215 193.045,333.548 191.5,334.5C 194.722,336.581 194.722,339.081 191.5,342C 194.9,345.791 197.567,345.291 199.5,340.5C 198.429,338.376 199.263,337.376 202,337.5C 204.257,338.748 206.257,340.415 208,342.5C 209.824,341.762 211.824,341.428 214,341.5C 213.29,343.22 212.123,344.887 210.5,346.5C 213.531,351.694 216.698,351.694 220,346.5C 224.368,348.849 228.701,351.183 233,353.5C 233.333,353.167 233.667,352.833 234,352.5C 237.788,355.334 242.288,357.834 247.5,360C 246.584,360.278 245.918,360.778 245.5,361.5 Z"/></g>
<g><path style="opacity:1" fill="#6f9084" d="M 31.5,331.5 C 31.5,343.167 31.5,354.833 31.5,366.5C 29.9715,361.084 29.3048,355.417 29.5,349.5C 29.3332,343.26 29.9999,337.26 31.5,331.5 Z"/></g>
<g><path style="opacity:1" fill="#296896" d="M 193.5,348.5 C 197.707,348.687 201.207,350.353 204,353.5C 206.399,349.212 209.232,348.712 212.5,352C 209.968,352.612 209.135,354.112 210,356.5C 211.133,354.789 212.633,354.289 214.5,355C 213.09,355.368 212.09,356.201 211.5,357.5C 213.226,359.03 215.226,360.03 217.5,360.5C 220.084,358.622 222.584,356.622 225,354.5C 226.811,355.078 228.645,355.578 230.5,356C 231.451,356.718 231.617,357.551 231,358.5C 227.591,357.424 224.425,358.09 221.5,360.5C 222.5,361.833 223.5,363.167 224.5,364.5C 231.854,365.962 238.854,364.962 245.5,361.5C 244.972,362.721 244.305,363.887 243.5,365C 238.167,367.739 232.5,369.239 226.5,369.5C 218.456,363.63 209.79,358.464 200.5,354C 197.931,352.241 195.597,350.407 193.5,348.5 Z"/></g>
<g><path style="opacity:1" fill="#1d6198" d="M 272.5,368.5 C 287.667,375.73 303.5,381.73 320,386.5C 320.757,384.685 321.59,383.019 322.5,381.5C 322.643,383.262 322.309,384.929 321.5,386.5C 322.167,387.167 322.833,387.833 323.5,388.5C 329.007,390.421 334.674,391.421 340.5,391.5C 344.5,392.167 348.5,392.833 352.5,393.5C 351.171,399.492 350.171,405.492 349.5,411.5C 343.455,410.758 337.455,409.758 331.5,408.5C 331.423,407.25 330.756,406.417 329.5,406C 325.236,405.629 321.069,404.796 317,403.5C 315.744,403.648 314.577,403.982 313.5,404.5C 292.909,397.75 272.576,389.917 252.5,381C 250.527,380.505 248.527,380.338 246.5,380.5C 251.704,376.507 257.37,373.007 263.5,370C 266.393,368.851 269.393,368.351 272.5,368.5 Z"/></g>
<g><path style="opacity:1" fill="#59986e" d="M 397.5,396.5 C 398.615,402.481 398.615,408.481 397.5,414.5C 391.973,427.767 381.973,432.934 367.5,430C 358.272,426.939 352.272,420.772 349.5,411.5C 350.171,405.492 351.171,399.492 352.5,393.5C 359.579,382.523 369.579,378.689 382.5,382C 389.653,384.654 394.653,389.487 397.5,396.5 Z"/></g>
<g><path style="opacity:1" fill="#225645" d="M 55.5,314.5 C 52.8286,322.684 50.662,331.018 49,339.5C 45.1819,366.302 56.0152,383.802 81.5,392C 107.391,398.301 133.224,397.801 159,390.5C 155.684,377.856 152.351,365.189 149,352.5C 147.025,342.217 145.525,331.884 144.5,321.5C 145.105,319.974 146.271,318.974 148,318.5C 148.684,317.216 148.517,316.049 147.5,315C 150.654,311.486 149.987,309.486 145.5,309C 147.609,307.859 149.442,306.359 151,304.5C 153.459,307.584 154.959,311.084 155.5,315C 155.496,318.337 153.83,319.837 150.5,319.5C 150.181,321.75 150.681,323.75 152,325.5C 152.336,323.926 153.169,322.592 154.5,321.5C 154.106,323.424 154.773,325.257 156.5,327C 153.87,330.228 154.036,333.395 157,336.5C 157.774,338.403 157.44,340.07 156,341.5C 154.678,338.362 153.344,335.695 152,333.5C 151.075,334.047 150.242,334.713 149.5,335.5C 150.744,338.051 152.244,340.384 154,342.5C 154.771,345.19 155.604,347.856 156.5,350.5C 157.192,349.975 157.692,349.308 158,348.5C 159.571,351.853 159.738,355.019 158.5,358C 159.744,358.456 160.577,357.956 161,356.5C 162.287,359.145 164.453,360.145 167.5,359.5C 167.5,356.167 167.5,352.833 167.5,349.5C 170.661,361.16 174.161,372.827 178,384.5C 180.774,385.523 183.607,385.523 186.5,384.5C 188.201,384.966 189.701,384.966 191,384.5C 192.457,386.658 194.29,388.491 196.5,390C 199.06,389.562 201.56,389.729 204,390.5C 204.591,389.517 204.257,388.85 203,388.5C 201.463,387.965 199.963,387.632 198.5,387.5C 199.813,385.482 199.147,384.315 196.5,384C 197.292,381.664 198.625,381.164 200.5,382.5C 201.935,380.599 203.602,380.266 205.5,381.5C 204.624,382.251 203.624,382.751 202.5,383C 206.661,384.308 210.828,385.475 215,386.5C 215.308,385.692 215.808,385.025 216.5,384.5C 218.179,385.782 220.013,386.782 222,387.5C 223.335,383.639 224.501,383.639 225.5,387.5C 224.052,388.354 222.719,389.354 221.5,390.5C 218.452,390.05 215.452,389.55 212.5,389C 213.791,390.994 213.791,392.828 212.5,394.5C 207.083,396.946 201.417,398.946 195.5,400.5C 191.904,399.96 188.404,399.96 185,400.5C 184.25,401.126 183.416,401.626 182.5,402C 182.588,403.578 182.588,405.078 182.5,406.5C 180.253,405.626 177.92,405.292 175.5,405.5C 175.584,408.748 174.751,411.748 173,414.5C 171.983,412.624 171.149,410.624 170.5,408.5C 167.89,407.884 165.223,407.551 162.5,407.5C 159.324,407.954 156.324,407.954 153.5,407.5C 150.455,408.44 147.621,409.773 145,411.5C 143.079,410.81 141.245,410.476 139.5,410.5C 138.201,411.694 136.868,412.694 135.5,413.5C 135.167,413.5 134.833,413.5 134.5,413.5C 120.424,414.022 106.424,413.356 92.5,411.5C 90.9549,411.511 89.6216,411.844 88.5,412.5C 62.941,409.426 44.441,396.426 33,373.5C 32.023,371.26 31.523,368.927 31.5,366.5C 31.5,354.833 31.5,343.167 31.5,331.5C 33.1202,321.973 36.1202,312.973 40.5,304.5C 41.1499,304.196 41.8165,303.863 42.5,303.5C 45.839,307.85 50.1723,310.516 55.5,311.5C 55.5,312.5 55.5,313.5 55.5,314.5 Z"/></g>
<g><path style="opacity:1" fill="#246599" d="M 429.5,387.5 C 431.502,390.131 433.502,392.798 435.5,395.5C 436.189,397.444 436.689,399.444 437,401.5C 437.671,402.252 438.504,402.586 439.5,402.5C 426.615,409.893 412.615,413.893 397.5,414.5C 398.615,408.481 398.615,402.481 397.5,396.5C 402.413,395.094 407.413,394.094 412.5,393.5C 418.121,391.668 423.788,389.668 429.5,387.5 Z"/></g>
<g><path style="opacity:1" fill="#125d9b" d="M 412.5,393.5 C 414.57,393.449 416.403,394.115 418,395.5C 418.772,395.355 419.439,395.022 420,394.5C 419.981,396.107 419.815,397.774 419.5,399.5C 422.365,399.945 424.865,399.278 427,397.5C 429.651,398.432 429.985,399.765 428,401.5C 427.309,399.109 426.309,399.109 425,401.5C 422.772,400.701 421.439,401.701 421,404.5C 420.667,403.833 420.333,403.167 420,402.5C 417.144,402.873 414.31,404.039 411.5,406C 413.032,406.7 414.032,407.866 414.5,409.5C 409.88,410.493 405.214,410.827 400.5,410.5C 400.251,406.38 400.251,402.38 400.5,398.5C 403.367,397.226 406.367,396.393 409.5,396C 410.942,395.623 411.942,394.79 412.5,393.5 Z"/></g>
<g><path style="opacity:1" fill="#5c766b" d="M 134.5,413.5 C 128.175,414.166 121.675,414.5 115,414.5C 105.943,414.716 97.1097,414.049 88.5,412.5C 89.6216,411.844 90.9549,411.511 92.5,411.5C 106.424,413.356 120.424,414.022 134.5,413.5 Z"/></g>
<g><path style="opacity:1" fill="#c4b051" d="M 370.5,383.5 C 383.021,383.268 391.521,388.935 396,400.5C 397.807,414.363 391.974,423.196 378.5,427C 366.838,428.873 358.671,424.373 354,413.5C 350.605,398.466 356.105,388.466 370.5,383.5 Z"/></g>
<g><path style="opacity:1" fill="#235641" d="M 367.5,387.5 C 378.932,385.463 387.432,389.463 393,399.5C 394.79,409.75 391.29,417.584 382.5,423C 363.365,426.843 354.532,419.01 356,399.5C 358.691,394.311 362.524,390.311 367.5,387.5 Z"/></g>
<g><path style="opacity:1" fill="#255647" d="M 195.5,400.5 C 192.275,401.65 188.942,402.816 185.5,404C 193.54,424.046 205.54,441.379 221.5,456C 240.167,470 258.833,470 277.5,456C 293.287,441.396 305.287,424.23 313.5,404.5C 314.577,403.982 315.744,403.648 317,403.5C 321.069,404.796 325.236,405.629 329.5,406C 330.756,406.417 331.423,407.25 331.5,408.5C 322.91,432.28 309.243,452.78 290.5,470C 262.57,490.907 234.904,490.573 207.5,469C 200.261,462.431 193.761,455.265 188,447.5C 179.852,434.862 172.519,421.862 166,408.5C 155.962,410.979 145.795,412.645 135.5,413.5C 136.868,412.694 138.201,411.694 139.5,410.5C 141.245,410.476 143.079,410.81 145,411.5C 147.621,409.773 150.455,408.44 153.5,407.5C 156.324,407.954 159.324,407.954 162.5,407.5C 165.223,407.551 167.89,407.884 170.5,408.5C 171.149,410.624 171.983,412.624 173,414.5C 174.751,411.748 175.584,408.748 175.5,405.5C 177.92,405.292 180.253,405.626 182.5,406.5C 182.588,405.078 182.588,403.578 182.5,402C 183.416,401.626 184.25,401.126 185,400.5C 188.404,399.96 191.904,399.96 195.5,400.5 Z"/></g>
</svg>
